<?xml version="1.0" encoding="utf-8"?>
<!-- Generator: Adobe Illustrator 24.2.1, SVG Export Plug-In . SVG Version: 6.00 Build 0)  -->
<svg version="1.1" id="Layer_1" xmlns="http://www.w3.org/2000/svg" xmlns:xlink="http://www.w3.org/1999/xlink" x="0px" y="0px"
	 viewBox="0 0 277.8 82" style="enable-background:new 0 0 277.8 82;" xml:space="preserve">
<style type="text/css">
	.st0{fill:#E86200;}
	.st1{fill:url(#SVGID_1_);}
	.st2{fill-rule:evenodd;clip-rule:evenodd;fill:#FFFFFF;}
	.st3{fill-rule:evenodd;clip-rule:evenodd;fill:url(#SVGID_2_);}
	.st4{fill-rule:evenodd;clip-rule:evenodd;fill:url(#SVGID_3_);}
	.st5{fill-rule:evenodd;clip-rule:evenodd;fill:url(#SVGID_4_);}
	.st6{fill-rule:evenodd;clip-rule:evenodd;fill:url(#SVGID_5_);}
	.st7{fill-rule:evenodd;clip-rule:evenodd;fill:url(#SVGID_6_);}
	.st8{fill-rule:evenodd;clip-rule:evenodd;fill:url(#SVGID_7_);}
	.st9{fill-rule:evenodd;clip-rule:evenodd;fill:url(#SVGID_8_);}
	.st10{fill-rule:evenodd;clip-rule:evenodd;fill:url(#SVGID_9_);}
	.st11{fill-rule:evenodd;clip-rule:evenodd;fill:url(#SVGID_10_);}
	.st12{fill-rule:evenodd;clip-rule:evenodd;fill:url(#SVGID_11_);}
	.st13{fill:url(#SVGID_12_);}
	.st14{fill-rule:evenodd;clip-rule:evenodd;fill:url(#SVGID_13_);}
	.st15{fill-rule:evenodd;clip-rule:evenodd;fill:url(#SVGID_14_);}
	.st16{fill-rule:evenodd;clip-rule:evenodd;fill:url(#SVGID_15_);}
	.st17{fill-rule:evenodd;clip-rule:evenodd;fill:url(#SVGID_16_);}
	.st18{fill-rule:evenodd;clip-rule:evenodd;fill:url(#SVGID_17_);}
	.st19{fill-rule:evenodd;clip-rule:evenodd;fill:url(#SVGID_18_);}
	.st20{fill-rule:evenodd;clip-rule:evenodd;fill:url(#SVGID_19_);}
	.st21{fill-rule:evenodd;clip-rule:evenodd;fill:#DBDBDB;}
	.st22{fill:#FFFFFF;}
</style>
<g id="Logo">
	<path class="st0" d="M16.2,80.7C9.3,80.9,3.6,75.3,3.4,68.4c0-0.5,0-1.1,0.1-1.6L7,26.6c0.6-5.5,4.1-10.3,9.2-12.6
		c1.9-0.8,3.9-1.3,5.9-1.3H59c6.9-0.1,12.6,5.4,12.7,12.4c0,0.5,0,1.1-0.1,1.6l-4.4,50.3c-0.1,1-0.5,1.8-1.2,2.5l0,0H66
		c-0.8,0.7-1.8,1.2-2.9,1.2L16.2,80.7z M22.1,13.7c-1.9,0-3.8,0.4-5.5,1.2c-4.7,2.1-8,6.6-8.6,11.7L4.4,66.9
		C3.7,73.3,8.3,79,14.7,79.7c0.5,0.1,1,0.1,1.5,0.1h46.9c0.8,0,1.6-0.4,2.2-0.9l0,0c0.5-0.5,0.9-1.2,0.9-2l4.4-50.3
		c0.7-6.4-3.9-12.1-10.3-12.8c-0.5-0.1-0.9-0.1-1.4-0.1L22.1,13.7z M65.4,78.8L65.4,78.8z"/>
	<path class="st0" d="M27.8,69c-6.9,0.1-12.7-5.4-12.8-12.3c0-0.5,0-1.1,0.1-1.6l3.5-40.2C19.4,7.1,25.9,1.2,33.7,1h36.9
		c6.9-0.1,12.6,5.4,12.8,12.3c0,0.5,0,1.1-0.1,1.6l0,0l-2.3,26.8l-2,23.5c0,0.1,0,0.2,0,0.3c-0.1,0.8-0.5,1.6-1.1,2.2l-0.1,0.1
		c-0.8,0.8-1.9,1.2-3,1.2H27.8z M33.7,2c-7.3,0.1-13.4,5.7-14.1,13l-3.5,40.1c-0.7,6.4,3.9,12.1,10.3,12.8c0.5,0.1,1,0.1,1.5,0.1
		h46.9c0.8,0,1.7-0.3,2.3-0.9l0,0c0.4-0.5,0.7-1,0.9-1.7c0-0.1,0-0.2,0-0.3l2-23.5l2.3-26.8C82.9,8.5,78.3,2.8,72,2.1
		C71.5,2,71,2,70.6,2H33.7z"/>
	
		<linearGradient id="SVGID_1_" gradientUnits="userSpaceOnUse" x1="21.7309" y1="15.0554" x2="65.0855" y2="67.2588" gradientTransform="matrix(1 0 0 -1 0 82)">
		<stop  offset="0" style="stop-color:#E84900"/>
		<stop  offset="0.3" style="stop-color:#E86200"/>
	</linearGradient>
	<path class="st1" d="M71.1,28.7l-3.5,39.8H29.6c-9.4,0-14.9-6.1-14-15.3l3.5-39.8h38.1C66.5,13,71.7,18.9,71.1,28.7z"/>
</g>
<path class="st2" d="M49,19.4c-4.5-0.2-7.8-0.1-11.5,2.4c-3,1.9-5.2,4.9-6,8.4c-0.5,1.4-0.5,3,0,4.4c0.4,1.1,0.9,2.1,1.8,2.2
	c-0.4,0.1-0.8,0.4-1,0.8c0.3-0.3,0.6-0.4,1-0.5c0,0-0.4,0.3-0.5,0.5c0.6-0.5,1.3-0.8,2-0.9c0,0-0.9,0.5-0.8,1.3
	c-0.9,0.3-1.6,0.8-2.1,1.6c-0.7,1-0.2,1-0.2,1.9s-0.5,1.3-0.4,2.8c0.1,1.3,0.4,2.6,1,3.8c0.6,1.5,1,3.1,1.1,4.7
	c0.1,0.9,0.2,1.7,0.4,2.5c0.4,1.5,1,3.3,1.4,4.2l1.8,1.3c-1.4-1.3-2.2-3.3-2-5.2c0.4,3,3,5.8,6.1,5.8c2.4,0,4.1-1.5,3-3
	c-0.8-1-2.2-1.3-3.4-0.7c-0.7,0.6-1.6,0.9-2.5,0.8c-0.6-1.3-0.6-2.8,0-4.1c2,1.6,3.3,1.2,5.1,0.1c0.6-0.3,1.4-0.1,1.8,0.4
	c-0.3,3.2,3,3.1,3,3.1c1-0.7,1.7-3,1.7-4.4c0-2,1.5-3.3,2.4-4.1c2.5-1.7,2.1-6.3,0.9-9.4c-0.1-0.2-0.1-0.3-0.2-0.4
	c-2-2.3-6.2-2-8.2-1.3c-0.9,0.3-1.3,1.1-1,2.4c0.3,1.3,0.9,2.5,1.7,3.5c-0.7-0.5-1.3-1.1-1.8-1.8c0.2,0.7,0.6,1.4,1.1,2
	c-0.6-0.3-1.2-0.8-1.6-1.4c0,0-1,1.2,0.5,2.5c0,0-0.9-0.1-1.5-1.6c-0.4,0.7-0.3,1.5,0.3,2c-0.4,0.1-0.9-0.1-1.1-0.5
	c0,0-0.1,1.2,0.5,1.5c0,0-1.1,0.3-1.4,0.9c0,0-0.9,0.5-1.2-0.6c0,0,1.2,1.2,1.2-0.3c0.2-1.3,0.4-2.6,0.8-3.9
	c0.4-1.6,0.6-3.2,1.5-4.6c-0.4-0.6-0.6-1.3-0.5-2c0.4,0.8,0.9,1.4,1.7,1.3c0.4-0.1,0.6-0.5,0.6-0.9c0.6,0.5,1.4,0.7,2.1,0.4
	c-0.3-0.3-0.4-0.4-1.1-0.6c0.9-0.1,1.8,0,2.6,0.4c-0.2-0.3-0.6-0.5-1.2-0.6c0.8-0.3,1.8,0,2.3,0.7c0-0.3-0.2-0.5-0.6-0.8
	c0.5,0.1,1,0.4,1.2,0.9c0-0.3-0.2-0.6-0.4-0.7c0.4,0.1,0.8,0.5,1,0.9l0.3,0.1c0.7-0.7,0.6-2.4,1.1-6.2c0.6-4.6,3.3-2.8,3.1-8.6
	C54.9,20.5,52.2,19.7,49,19.4L49,19.4z"/>
<linearGradient id="SVGID_2_" gradientUnits="userSpaceOnUse" x1="54.73" y1="37.5372" x2="55.02" y2="37.5372" gradientTransform="matrix(0.9973 7.358631e-02 7.358631e-02 -0.9973 -15.7141 81.9377)">
	<stop  offset="0" style="stop-color:#E84900"/>
	<stop  offset="0.3" style="stop-color:#E86200"/>
</linearGradient>
<path class="st3" d="M41.8,48.9h0.1l0,0c-0.1-0.1-0.1-0.3-0.1-0.5c0-0.1,0-0.2,0.1-0.2c-0.1,0-0.1,0.1-0.2,0.1
	C41.7,48.5,41.8,48.7,41.8,48.9L41.8,48.9z"/>
<linearGradient id="SVGID_3_" gradientUnits="userSpaceOnUse" x1="46.77" y1="43.4814" x2="49.8383" y2="43.4814" gradientTransform="matrix(0.9973 7.358631e-02 7.358631e-02 -0.9973 -15.7141 81.9377)">
	<stop  offset="0" style="stop-color:#E84900"/>
	<stop  offset="0.3" style="stop-color:#E86200"/>
</linearGradient>
<path class="st4" d="M34.5,42.4c0.5,0.5,1.4,0.6,2,0.1c0.4-0.2,0.7-0.6,0.8-1c-0.9,0.6-2.1,0.6-3.1,0C34.1,41.8,34.2,42.2,34.5,42.4
	L34.5,42.4z"/>
<linearGradient id="SVGID_4_" gradientUnits="userSpaceOnUse" x1="46.0488" y1="45.0319" x2="51.3119" y2="45.0319" gradientTransform="matrix(0.9973 7.358631e-02 7.358631e-02 -0.9973 -15.7141 81.9377)">
	<stop  offset="0" style="stop-color:#E84900"/>
	<stop  offset="0.3" style="stop-color:#E86200"/>
</linearGradient>
<path class="st5" d="M35.2,40.1c-0.7,1.8,2.5,2.1,2.2,0l0.6,0.5c0,0.2,0.1,0.3,0.2,0.5c-0.1-0.1,0-0.3,0.1-0.4
	c0.7,0.1,0.5,0.5,0.5,0.5c0.3-0.5-0.5-0.7-0.5-0.7c-0.6-0.8-1.6-1.1-2.5-0.9c-1,0.2-1.9,1-2.2,2c0.1-0.2,0.4-0.2,0.6-0.2
	C34.1,40.7,34.6,40.2,35.2,40.1L35.2,40.1z"/>
<linearGradient id="SVGID_5_" gradientUnits="userSpaceOnUse" x1="45.2104" y1="45.4326" x2="51.2456" y2="45.4326" gradientTransform="matrix(0.9973 7.358631e-02 7.358631e-02 -0.9973 -15.7141 81.9377)">
	<stop  offset="0" style="stop-color:#E84900"/>
	<stop  offset="0.3" style="stop-color:#E86200"/>
</linearGradient>
<path class="st6" d="M36.2,39c0.9,0.1,1.7,0.5,2.3,1.2c0.1,0.2,0.4,0.1,0.2-0.2c-0.6-0.8-1.5-1.3-2.5-1.4c-1.6,0.1-3,1.1-3.6,2.6
	c-0.1,0.2,0.2,0.6,0.4,0.1C33.6,40.1,34.8,39.2,36.2,39z"/>
<linearGradient id="SVGID_6_" gradientUnits="userSpaceOnUse" x1="46.3956" y1="47.0595" x2="52.8556" y2="47.0595" gradientTransform="matrix(0.9973 7.358631e-02 7.358631e-02 -0.9973 -15.7141 81.9377)">
	<stop  offset="0" style="stop-color:#E84900"/>
	<stop  offset="0.3" style="stop-color:#E86200"/>
</linearGradient>
<path class="st7" d="M36.3,37.8c1.2,0.1,2.3,0.4,2.7,1.6c0.1,0.4,0.2,0.8,0.2,1.2c0.1-0.1,0.2-0.7,0.3-0.8c0.1,0.7,0.1,1.4,0.1,2.1
	c0.2-0.6,0.5-1.2,0.7-2.1c-0.6-0.3,0.2-3.3,0.4-3.7c-0.5,0.7-0.9,1.5-1.2,2.3c-0.2-1.5-5-2-5.4-0.4C34.8,37.7,35.5,37.7,36.3,37.8z"
	/>
<linearGradient id="SVGID_7_" gradientUnits="userSpaceOnUse" x1="45.508" y1="49.448" x2="50.658" y2="49.448" gradientTransform="matrix(0.9973 7.358631e-02 7.358631e-02 -0.9973 -15.7141 81.9377)">
	<stop  offset="0" style="stop-color:#E84900"/>
	<stop  offset="0.3" style="stop-color:#E86200"/>
</linearGradient>
<path class="st8" d="M38.4,36.9c-2-1.1-3.3-0.5-3.9-0.6c-0.5-0.1-0.9-0.4-1.1-0.8c0.3,1.2,1.2,1.2,2,1.1
	C36.4,36.5,37.4,36.6,38.4,36.9L38.4,36.9z"/>
<linearGradient id="SVGID_8_" gradientUnits="userSpaceOnUse" x1="47.27" y1="53.235" x2="58.75" y2="53.235" gradientTransform="matrix(0.9973 7.358631e-02 7.358631e-02 -0.9973 -15.7141 81.9377)">
	<stop  offset="0" style="stop-color:#E84900"/>
	<stop  offset="0.3" style="stop-color:#E86200"/>
</linearGradient>
<path class="st9" d="M39.2,33c1.3,0.9,2.2,1,3.9,0.2c2.4-1.2,3-0.9,3.7-0.8c-1.1-0.5-2.3-0.4-3.3,0.1c-1.2,0.7-2.7,0.7-4,0.1
	c-1.3-0.7-2.7-1.1-4.1-1.1C36.8,31.6,38.1,32.2,39.2,33z"/>
<linearGradient id="SVGID_9_" gradientUnits="userSpaceOnUse" x1="48.4706" y1="37.5351" x2="56.7106" y2="37.5351" gradientTransform="matrix(0.9973 7.358631e-02 7.358631e-02 -0.9973 -15.7141 81.9377)">
	<stop  offset="0" style="stop-color:#E84900"/>
	<stop  offset="0.3" style="stop-color:#E86200"/>
</linearGradient>
<path class="st10" d="M35.9,50.8c-1.3,2.2-0.7,3.6-0.7,3.6c0.1-1.7,0.9-3.3,2-4.5c0.3-0.3,0.4-1.6,0.4-1.9c0,1,1.2,1.1,1.2,1.1
	c-0.5-0.4-0.4-0.8-0.4-0.8c0.5,0.5,1.1,1,1.7,1.4c1,0.5,2.2,0.3,3-0.5c0-0.2-0.5-0.6-0.5-0.6s0.6,0,0.7,0.3c0.5,0.1,0.6-0.5,0.3-0.8
	c-0.3-0.3-0.6-0.5-1-0.5c-0.8-0.2-1.7,0.2-2.1,0.9c0.8,0.2,0.5,1.1-0.3,0.8c-0.5-0.2-0.9-0.6-1.1-1.1c0-0.7-0.3-1.1-0.6-1.1
	s-0.7,0.8-0.7,0.8c0.1-0.8,0.3-1.5,0.8-2.2l0.9-3.7l-1.7,2.9l1.2-1.6l-0.7,2.4c-0.6,0.7-1,1.5-1,2.4C37.1,49.1,37.2,48.6,35.9,50.8
	L35.9,50.8z"/>
<linearGradient id="SVGID_10_" gradientUnits="userSpaceOnUse" x1="49.81" y1="31.4305" x2="49.87" y2="31.4305" gradientTransform="matrix(0.9973 7.358631e-02 7.358631e-02 -0.9973 -15.7141 81.9377)">
	<stop  offset="0" style="stop-color:#E84900"/>
	<stop  offset="0.3" style="stop-color:#E86200"/>
</linearGradient>
<path class="st11" d="M36.3,54.2C36.3,54.2,36.3,54.3,36.3,54.2L36.3,54.2z"/>
<linearGradient id="SVGID_11_" gradientUnits="userSpaceOnUse" x1="49.87" y1="33.5603" x2="59.5449" y2="33.5603" gradientTransform="matrix(0.9973 7.358631e-02 7.358631e-02 -0.9973 -15.7141 81.9377)">
	<stop  offset="0" style="stop-color:#E84900"/>
	<stop  offset="0.3" style="stop-color:#E86200"/>
</linearGradient>
<path class="st12" d="M39.2,52.7c-0.1,0-0.3,0-0.4,0.1c0,0-0.7,0.8-1.2,0.3s-0.9-0.3-1,0.2c0,0.3-0.2,0.7-0.3,0.9
	c0.3-0.3,0.8-0.5,1.2-0.5c1.8,0,2.1,0.8,2.1,0.8c0.7-0.5,1.6-0.8,2.5-0.9h2.8c0.2,0,0.4-0.1,0.5-0.2c0.5-0.1,0.7-0.6,0.6-1.1
	c0,0,0-0.1-0.1-0.1c-0.2-0.5-0.9-0.3-1.2,0.2s-0.5,0.9-1,1h-0.4c-0.8-0.1-1-0.5-1.5-0.7v-2.5l-0.3,2.3h-0.2c-0.6,0-1.1,0.2-1.5,0.6
	c-0.1-0.2-0.3-0.4-0.5-0.5l-0.4-2.5L39.2,52.7L39.2,52.7z"/>
<linearGradient id="SVGID_12_" gradientUnits="userSpaceOnUse" x1="49.018" y1="54.8596" x2="56.4514" y2="54.8596" gradientTransform="matrix(0.9973 7.358631e-02 7.358631e-02 -0.9973 -15.7141 81.9377)">
	<stop  offset="0" style="stop-color:#E84900"/>
	<stop  offset="0.3" style="stop-color:#E86200"/>
</linearGradient>
<path class="st13" d="M40.8,31.1c-1.3-0.1-2.4-0.7-3.6-0.7c1.8,0.3,2.4,1.1,3.6,1.1s2.5-0.6,3.8-0.6C43.3,30.7,42,31.2,40.8,31.1z"
	/>
<linearGradient id="SVGID_13_" gradientUnits="userSpaceOnUse" x1="56.8549" y1="45.9159" x2="63.5943" y2="45.9159" gradientTransform="matrix(0.9973 7.358631e-02 7.358631e-02 -0.9973 -15.7141 81.9377)">
	<stop  offset="0" style="stop-color:#E84900"/>
	<stop  offset="0.3" style="stop-color:#E86200"/>
</linearGradient>
<path class="st14" d="M45.4,40.5c-1-0.1-0.5,1.5,0.1,0.6c-0.7,0.3-0.8-0.7,0-0.4c0.1-0.7,0.8-1.1,1.5-1c-0.6,1.3,0.3,1.9,0.9,1.9
	c0.7,0,1.2-0.4,1.5-1l0.3,0.3c0,0-0.4,0.8-1.9,0.8c0,0,1.4,0.3,2-0.5H50c-0.4,0.7-1.7,1.4-3.9,0.5c0.8,0.8,2.4,1.8,4.5,0.2l-0.5-0.6
	c0.4,0.1,0.7,0.3,0.9,0.6c-0.4-3.4-5-5.1-6.6-2.2c-0.2,0.3,0.2,0.6,0.4,0.1c0.3-0.7,1-1.2,1.8-1.3c0.9-0.1,1.8,0.1,2.5,0.7
	c0.4,0.4,0.1,0.7-0.4,0.3C47.4,38.7,45.4,39.6,45.4,40.5L45.4,40.5z"/>
<linearGradient id="SVGID_14_" gradientUnits="userSpaceOnUse" x1="61.8012" y1="46.5456" x2="64.5512" y2="46.5456" gradientTransform="matrix(0.9973 7.358631e-02 7.358631e-02 -0.9973 -15.7141 81.9377)">
	<stop  offset="0" style="stop-color:#E84900"/>
	<stop  offset="0.3" style="stop-color:#E86200"/>
</linearGradient>
<path class="st15" d="M51.9,41.1c-0.4-1.2-1.3-2.1-2.4-2.5c-0.2,0.3,1,0.9,1.8,2.7C51.6,41.9,52.3,42,51.9,41.1z"/>
<linearGradient id="SVGID_15_" gradientUnits="userSpaceOnUse" x1="56.33" y1="36.2091" x2="61.59" y2="36.2091" gradientTransform="matrix(0.9973 7.358631e-02 7.358631e-02 -0.9973 -15.7141 81.9377)">
	<stop  offset="0" style="stop-color:#E84900"/>
	<stop  offset="0.3" style="stop-color:#E86200"/>
</linearGradient>
<path class="st16" d="M43.8,49.1c-0.8,0.1-0.6,0.9,0,1c0.7,0,1.3-0.5,1.5-1.1c0.1,0.2,0.1,0.3,0.3,0.4c1.3,1.3,2.1,3,2.5,4.7
	c0,0,0.4-1.4-1.2-3.7c-0.9-1.4-1.3-1.8-1.5-2c0-0.2,0-0.4,0-0.6c-0.3-0.9-1.1-1.6-2-1.7C45.7,48.2,43.8,49.2,43.8,49.1L43.8,49.1z"
	/>
<linearGradient id="SVGID_16_" gradientUnits="userSpaceOnUse" x1="45.2" y1="48.9425" x2="46.52" y2="48.9425" gradientTransform="matrix(0.9973 7.358631e-02 7.358631e-02 -0.9973 -15.7141 81.9377)">
	<stop  offset="0" style="stop-color:#E84900"/>
	<stop  offset="0.3" style="stop-color:#E86200"/>
</linearGradient>
<path class="st17" d="M33.8,36.9c0.1-0.2,0.3-0.3,0.5-0.3c-0.5,0-0.9-0.2-1.3-0.5C33.1,36.5,33.4,36.8,33.8,36.9L33.8,36.9z"/>
<linearGradient id="SVGID_17_" gradientUnits="userSpaceOnUse" x1="61.7" y1="32.6005" x2="62.6" y2="32.6005" gradientTransform="matrix(0.9973 7.358631e-02 7.358631e-02 -0.9973 -15.7141 81.9377)">
	<stop  offset="0" style="stop-color:#E84900"/>
	<stop  offset="0.3" style="stop-color:#E86200"/>
</linearGradient>
<path class="st18" d="M48.5,55.6c0,0,1.5-2-0.2-3.2C48.8,53.4,48.8,54.5,48.5,55.6z"/>
<linearGradient id="SVGID_18_" gradientUnits="userSpaceOnUse" x1="43.22" y1="48.0653" x2="44.41" y2="48.0653" gradientTransform="matrix(0.9973 7.358631e-02 7.358631e-02 -0.9973 -15.7141 81.9377)">
	<stop  offset="0" style="stop-color:#E84900"/>
	<stop  offset="0.3" style="stop-color:#E86200"/>
</linearGradient>
<path class="st19" d="M31,36.4c0.1,0.1,0.2,0.3,0.2,0.4c0,0.1,0,0.2,0,0.3c0,0.1,0,0.2,0,0.2c-0.1,0.2-0.1,0.5,0,0.7
	c0,0.1,0,0.2,0,0.3c0.1,0.1,0.1,0.2,0.1,0.3c0,0.1,0,0.2,0,0.3l0,0c0.2-0.3,0.5-0.6,0.8-0.9c-0.1,0-0.1,0-0.2-0.1
	c-0.3-0.2-0.4-0.6-0.3-0.9c0.1-0.2,0.2-0.3,0.3-0.5c-0.4-0.4-0.6-0.9-0.8-1.4V36C31.1,36.2,31,36.3,31,36.4L31,36.4z"/>
<linearGradient id="SVGID_19_" gradientUnits="userSpaceOnUse" x1="54.68" y1="44.5937" x2="55.72" y2="44.5937" gradientTransform="matrix(0.9973 7.358631e-02 7.358631e-02 -0.9973 -15.7141 81.9377)">
	<stop  offset="0" style="stop-color:#E84900"/>
	<stop  offset="0.3" style="stop-color:#E86200"/>
</linearGradient>
<path class="st20" d="M42.8,39.9c-0.4,1-0.5,2.1-0.8,3.1l0,0h0.1c0.1-0.3,0.2-0.5,0.4-0.7c0.1-0.1,0.2-0.2,0.3-0.2
	c0-0.2,0.1-0.4,0.3-0.5c-0.1-0.3-0.2-0.6-0.2-0.9l0,0C42.8,40.5,42.8,40.2,42.8,39.9z"/>
<path class="st21" d="M35.5,39.8c-0.2,0.4-0.1,0.9,0.3,1.1c0.1,0.1,0.3,0.1,0.5,0.1l0.2-0.2H37c0-0.1,0-0.3,0.1-0.4l0.2-0.1
	c-0.1-0.1-0.2-0.3-0.3-0.4c0,1.2-1.5,0.5-0.8-0.2C36.2,39.6,35.5,39.8,35.5,39.8L35.5,39.8z"/>
<path class="st21" d="M47.8,40.8l0.2,0.4c1.1,0,0.9-0.9,0.9-0.9c-0.4,0.9-1.5,0.2-0.9-0.5h-0.6c-0.2,0.3-0.2,0.7-0.1,1l0.3-0.2v0.5
	L47.8,40.8L47.8,40.8z"/>
<path class="st22" d="M98.1,36.7c1.4,4.5,4.7,7.6,12.2,7.6s10.4-2.9,10.4-6.5c0-3.8-2.1-6.1-12-7.7c-11.5-1.9-14.2-5.5-14.2-10.8
	c0-6.7,6.4-10.6,14.7-10.6c12.4,0,15.3,6.5,15.8,10.4h-5.5c-0.8-2.6-2.4-6-10.4-6c-5.5,0-9,1.9-9,5.7c0,3.1,1.6,5.1,10.2,6.5
	c13.8,2.4,16,6.6,16,11.9c0,6.1-4.8,11.3-16.3,11.3c-10.7,0-16.1-4.9-17.3-11.9L98.1,36.7z"/>
<path class="st22" d="M140.1,9.6h5.4V25h23V9.6h5.4v38.2h-5.4V29.6h-23v18.2h-5.4V9.6z"/>
<path class="st22" d="M195.9,36.2L191,47.8h-5.6l16.4-38.2h6.6l17.1,38.2h-5.9l-5.1-11.6H195.9z M212.6,31.6
	c-4.7-10.5-6.9-15.5-7.8-18.1l0,0c-0.8,2.5-3.4,9-7.2,18.1H212.6z"/>
<path class="st22" d="M237,9.6h5.4V25h23V9.6h5.4v38.2h-5.4V29.6h-23v18.2H237V9.6z"/>
<path class="st22" d="M93.1,60.2c0.3,0.8,0.9,1.4,2.5,1.4s2-0.5,2-1.2s-0.5-1.1-2.5-1.4c-2.9-0.5-3.5-1.4-3.5-2.6
	c0-1.7,1.6-2.6,3.6-2.6c3,0,3.7,1.5,3.8,2.5h-1.8c-0.1-0.5-0.5-1.1-2-1.1c-1.1,0-1.7,0.4-1.7,1s0.4,0.9,2.1,1.2
	c3.3,0.6,3.8,1.6,3.8,2.8c0,1.5-1.2,2.7-4,2.7c-2.7,0-3.9-1.2-4.2-2.8L93.1,60.2z"/>
<path class="st22" d="M110.3,61c0,0.8,0,1.6,0.1,1.7h-1.7c0-0.3-0.1-0.5-0.1-0.8c-0.5,0.7-1.4,1.1-2.3,1c-1.8,0-2.4-1.1-2.4-2.1
	c0-1.7,1.5-2.1,3.3-2.1h1.4v-0.2c0-0.6-0.2-1.1-1.3-1.1s-1.2,0.4-1.3,0.8h-1.8c0.1-0.8,0.6-2,3-2c2.6,0,3.1,1.2,3.1,2.3L110.3,61z
	 M108.6,59.8h-1.4c-1.2,0-1.7,0.3-1.7,0.9s0.4,0.9,1.2,0.9c1.3,0,1.8-0.7,1.8-1.6L108.6,59.8z"/>
<path class="st22" d="M115.4,58c0-0.5,0-1.1,0-1.6h1.7c0,0.3,0.1,0.5,0.1,0.8c0.4-0.7,1.2-1,2-1c0.8-0.1,1.6,0.4,1.9,1.1
	c0.5-0.7,1.3-1.1,2.2-1.1c1.3,0,2.3,0.8,2.3,2.7v3.9h-1.7v-3.8c0-0.6-0.2-1.4-1.1-1.4s-1.3,0.5-1.3,1.7v3.5h-1.7v-3.9
	c0-0.7-0.2-1.3-1.2-1.3s-1.3,0.7-1.3,1.7v3.5h-1.7L115.4,58z"/>
<path class="st22" d="M137,60.9c0,0.6,0,1.2,0,1.9h-1.7c0-0.2,0-0.5,0-0.8c-0.3,0.6-0.8,1-2.2,1s-2.4-0.8-2.4-2.6v-3.9h1.8V60
	c0,0.9,0.3,1.5,1.3,1.5c1.1,0,1.5-0.7,1.5-2.2v-2.9h1.7V60.9z"/>
<path class="st22" d="M143.3,60c0,0.9,0.8,1.6,1.7,1.6c0,0,0,0,0.1,0c0.6,0.1,1.2-0.2,1.5-0.8h1.8c-0.8,1.8-2.9,2.6-4.7,1.8
	c-1.2-0.5-2-1.7-2.1-3c-0.1-1.8,1.3-3.3,3.1-3.4c0.1,0,0.2,0,0.3,0c1.8-0.1,3.3,1.2,3.4,2.9c0,0.1,0,0.3,0,0.4c0,0.2,0,0.2,0,0.4
	H143.3z M146.7,58.9c0-0.8-0.7-1.4-1.5-1.4c-0.1,0-0.1,0-0.2,0c-0.8-0.1-1.6,0.5-1.7,1.3c0,0,0,0.1,0,0.1L146.7,58.9z"/>
<path class="st22" d="M153.1,62.8v-9.3h1.8v9.3L153.1,62.8z"/>
<path class="st22" d="M166.9,54h1.8v3.4h4.4V54h1.8v8.8h-1.8v-3.9h-4.4v3.9h-1.8V54z"/>
<path class="st22" d="M186.3,61c0,0.8,0,1.6,0,1.7h-1.7c0-0.3-0.1-0.5-0.1-0.8c-0.5,0.7-1.4,1.1-2.3,1c-1.8,0-2.5-1.1-2.5-2.1
	c0-1.7,1.5-2.1,3.3-2.1h1.4v-0.2c0-0.6-0.2-1.1-1.3-1.1s-1.2,0.4-1.3,0.8h-1.8c0.1-0.8,0.6-2,3-2c2.6,0,3.1,1.2,3.1,2.3L186.3,61z
	 M184.6,59.8h-1.4c-1.2,0-1.7,0.3-1.7,0.9s0.4,0.9,1.2,0.9c1.3,0,1.8-0.7,1.8-1.6V59.8z"/>
<path class="st22" d="M193.1,53.5v3.8c0.5-0.7,1.3-1.2,2.2-1.1c1.5,0,2.5,0.9,2.5,2.7v3.8H196v-3.6c0-0.9-0.3-1.5-1.3-1.5
	s-1.6,0.8-1.6,2.1v3.1h-1.8v-9.3H193.1z"/>
<path class="st22" d="M202.9,58c0-0.5,0-1.2,0-1.6h1.7c0,0.2,0,0.6,0.1,0.9c0.8-1.2,2.4-1.5,3.6-0.7c0.7,0.5,1.1,1.3,1.1,2.2v3.9
	h-1.8v-3.6c0-0.8-0.3-1.5-1.3-1.5s-1.6,0.8-1.6,2v3.2h-1.8L202.9,58z"/>
<path class="st22" d="M215.7,60c0,0.9,0.8,1.6,1.7,1.6c0,0,0,0,0.1,0c0.6,0.1,1.2-0.2,1.5-0.8h1.8c-0.5,1.4-1.9,2.2-3.3,2.1
	c-1.8,0.1-3.3-1.2-3.4-2.9c0-0.1,0-0.3,0-0.4c-0.1-1.8,1.3-3.3,3.1-3.4c0.1,0,0.2,0,0.3,0c1.7-0.1,3.3,1.2,3.4,2.9
	c0,0.2,0,0.3,0,0.5V60H215.7z M219,58.9c0-0.8-0.7-1.4-1.5-1.4c-0.1,0-0.1,0-0.2,0c-0.8-0.1-1.6,0.5-1.7,1.3c0,0,0,0.1,0,0.1H219z"
	/>
<path class="st22" d="M225.4,58c0-0.5,0-1.1,0-1.6h1.7c0,0.2,0,0.5,0,0.8c0.4-0.7,1.2-1,2-1c0.8-0.1,1.6,0.4,1.9,1.1
	c0.5-0.7,1.3-1.1,2.2-1.1c1.3,0,2.4,0.8,2.4,2.7v3.9h-1.7v-3.8c0-0.6-0.2-1.4-1.1-1.4s-1.3,0.5-1.3,1.7v3.5h-1.7v-3.9
	c0-0.7-0.2-1.3-1.1-1.3s-1.3,0.7-1.3,1.7v3.5h-1.7L225.4,58z"/>
<path class="st22" d="M246.7,61c0,0.8,0,1.6,0.1,1.7h-1.7c0-0.2-0.1-0.5-0.1-0.7c-0.5,0.7-1.4,1.1-2.3,1c-1.8,0-2.4-1.1-2.4-2.1
	c0-1.7,1.5-2.1,3.3-2.1h1.4v-0.2c0-0.6-0.2-1.1-1.3-1.1s-1.2,0.4-1.3,0.8h-1.8c0.1-0.8,0.6-2,3-2c2.6,0,3.1,1.2,3.1,2.3L246.7,61z
	 M245,59.9h-1.4c-1.2,0-1.7,0.3-1.7,0.9s0.4,0.9,1.2,0.9c1.3,0,1.8-0.7,1.8-1.6L245,59.9z"/>
<path class="st22" d="M251.8,58c0-0.5,0-1.2,0-1.6h1.7c0,0.2,0,0.6,0.1,0.9c0.8-1.2,2.4-1.5,3.6-0.7c0.7,0.5,1.1,1.3,1.1,2.2v3.9
	h-1.8v-3.6c0-0.8-0.3-1.5-1.3-1.5s-1.6,0.8-1.6,2v3.2h-1.8L251.8,58z"/>
<path class="st22" d="M263.3,58c0-0.5,0-1.2,0-1.6h1.7c0,0.2,0,0.6,0.1,0.9c0.8-1.2,2.4-1.5,3.6-0.7c0.7,0.5,1.1,1.3,1.1,2.2v3.9
	H268v-3.6c0-0.8-0.3-1.5-1.3-1.5s-1.6,0.8-1.6,2v3.2h-1.8L263.3,58z"/>
<path class="st22" d="M93.9,72.1l-0.9,2h-1l2.9-6.7h1.2l3,6.7h-1l-0.9-2H93.9z M96.9,71.3c-0.8-1.9-1.2-2.8-1.4-3.2l0,0
	c-0.1,0.4-0.6,1.6-1.3,3.2H96.9z"/>
<path class="st22" d="M107,72.7c-0.3,1-1.3,1.7-2.3,1.6c-1.3,0.1-2.4-0.9-2.5-2.2c0-0.1,0-0.2,0-0.3c-0.1-1.4,1-2.5,2.3-2.5
	c0.1,0,0.1,0,0.2,0c1.1-0.1,2.1,0.6,2.3,1.7h-0.9c-0.2-0.6-0.8-1-1.4-0.9c-1,0.1-1.7,1-1.6,2c0.1,0.8,0.8,1.5,1.6,1.6
	c0.6,0,1.2-0.3,1.4-0.9L107,72.7z"/>
<path class="st22" d="M114.9,73c0,0.5,0,1.1,0,1.2H114c0-0.2-0.1-0.5-0.1-0.7c-0.2,0.5-0.8,0.8-1.8,0.8c-1.4,0-1.9-0.8-1.9-1.5
	c0-1.2,1.1-1.6,2.5-1.6h1.2V71c0-0.5-0.2-1-1.2-1s-1.1,0.4-1.2,0.8h-0.9c0-0.6,0.5-1.5,2.1-1.5s2.1,0.9,2.1,1.7L114.9,73z M114,71.8
	h-1.2c-1.1,0-1.6,0.2-1.6,0.9c0,0.5,0.3,0.9,1.2,0.9c0.8,0.1,1.5-0.4,1.6-1.2c0-0.1,0-0.3,0-0.4V71.8z"/>
<path class="st22" d="M123.6,67v5.7c0,0.5,0,0.9,0,1.4h-0.9c0-0.2,0-0.5,0-0.7c-0.4,0.6-1.1,0.9-1.8,0.9c-1.3,0-2.3-1-2.3-2.3
	c0-0.1,0-0.2,0-0.2c0-1.4,1-2.5,2.4-2.6c0,0,0,0,0,0c0.6-0.1,1.3,0.2,1.7,0.7V67H123.6z M119.5,71.8c-0.1,0.9,0.6,1.7,1.5,1.8
	c0,0,0.1,0,0.1,0c1.1,0,1.6-0.7,1.6-1.8s-0.4-1.7-1.6-1.7C120.2,70,119.5,70.7,119.5,71.8C119.5,71.7,119.5,71.7,119.5,71.8
	L119.5,71.8z"/>
<path class="st22" d="M128.1,72c0,0.9,0.7,1.6,1.6,1.6c0,0,0,0,0.1,0c0.6,0,1.2-0.3,1.4-0.8h0.9c-0.4,1-1.3,1.6-2.4,1.5
	c-1.4-0.1-2.5-1.3-2.4-2.7c0.1-1.3,1.1-2.3,2.4-2.4c1.3-0.1,2.4,0.9,2.5,2.2c0,0.1,0,0.2,0,0.3V72H128.1z M131.2,71.4
	c0-0.8-0.6-1.4-1.4-1.4c0,0-0.1,0-0.1,0c-0.8-0.1-1.5,0.5-1.5,1.3c0,0,0,0,0,0.1H131.2z"/>
<path class="st22" d="M135.8,70.6c0-0.4,0-0.8,0-1.2h0.9c0,0.2,0,0.5,0,0.7c0.3-0.6,0.9-0.9,1.6-0.9c0.6-0.1,1.2,0.3,1.5,0.9
	c0.3-0.6,1-1,1.7-0.9c0.9,0,1.7,0.6,1.7,2v3h-0.9v-3c0-0.6-0.2-1.2-1-1.2s-1.3,0.5-1.3,1.6v2.6H139v-3c0-0.6-0.2-1.2-1-1.2
	s-1.2,0.7-1.2,1.6v2.6h-0.9L135.8,70.6z"/>
<path class="st22" d="M147.3,69.3c1,2.3,1.6,3.7,1.7,4.1l0,0c0.2-0.5,0.7-1.8,1.6-4.1h0.9l-1.9,4.6c-0.9,2.1-1.2,2.5-2.4,2.5
	c-0.2,0-0.4,0-0.6,0v-0.8c0.2,0,0.4,0,0.5,0c0.6,0,0.9-0.3,1.3-1.2l-2.2-5L147.3,69.3z"/>
<path class="st22" d="M160.5,74.2v-4.1h-0.9v-0.7h0.9v-0.7c0-1.1,0.5-1.8,1.6-1.8c0.2,0,0.4,0,0.6,0.1v0.7c-0.1,0-0.3,0-0.4,0
	c-0.6,0-0.8,0.3-0.8,1v0.6h1.1V70h-1.1v4.1L160.5,74.2z"/>
<path class="st22" d="M170.6,71.8c0,1.4-1.1,2.6-2.6,2.6c-1.4,0-2.6-1.1-2.6-2.6c0-1.4,1.1-2.6,2.6-2.6
	C169.4,69.2,170.6,70.3,170.6,71.8z M166.4,71.8c-0.1,0.9,0.6,1.7,1.5,1.8c0,0,0.1,0,0.1,0c0.9,0,1.6-0.7,1.6-1.6c0-0.1,0-0.1,0-0.2
	c0.1-0.9-0.6-1.7-1.5-1.8c0,0-0.1,0-0.1,0c-0.9,0-1.6,0.7-1.6,1.6C166.4,71.6,166.4,71.7,166.4,71.8z"/>
<path class="st22" d="M174.2,70.7c0-0.4,0-0.9,0-1.3h0.9c0,0.1,0,0.7,0,1.1c0.3-0.8,1.1-1.3,1.9-1.2v0.9c-1-0.1-1.9,0.7-2,1.7
	c0,0.1,0,0.2,0,0.4v2h-0.9L174.2,70.7z"/>
<path class="st22" d="M185.9,67.4h0.9v2.7h4.1v-2.7h0.9v6.7h-0.9v-3.2h-4.1v3.2h-0.9V67.4z"/>
<path class="st22" d="M200.8,71.8c0,1.4-1.1,2.6-2.6,2.6c-1.4,0-2.6-1.1-2.6-2.6c0-1.4,1.1-2.6,2.6-2.6
	C199.6,69.2,200.7,70.3,200.8,71.8z M196.6,71.8c-0.1,0.9,0.6,1.7,1.5,1.8c0,0,0.1,0,0.1,0c0.9,0,1.6-0.7,1.6-1.6c0-0.1,0-0.1,0-0.2
	c0.1-0.9-0.6-1.7-1.5-1.8c-0.1,0-0.1,0-0.2,0c-0.9,0-1.6,0.7-1.6,1.6C196.5,71.6,196.6,71.7,196.6,71.8z"/>
<path class="st22" d="M204.4,70.6c0-0.4,0-0.8,0-1.2h0.9c0,0.2,0,0.5,0,0.7c0.3-0.6,0.9-0.9,1.6-0.9c0.6-0.1,1.2,0.3,1.5,0.9
	c0.3-0.6,1-1,1.6-0.9c0.9,0,1.7,0.6,1.7,2v3h-0.9v-3c0-0.6-0.2-1.2-1-1.2s-1.3,0.5-1.3,1.6v2.6h-0.9v-3c0-0.6-0.2-1.2-1-1.2
	s-1.2,0.7-1.2,1.6v2.6h-0.9L204.4,70.6z"/>
<path class="st22" d="M216.2,72c0,0.9,0.7,1.6,1.6,1.6c0,0,0,0,0.1,0c0.6,0.1,1.1-0.3,1.4-0.8h0.9c-0.4,1-1.3,1.6-2.4,1.5
	c-1.3,0.1-2.4-0.9-2.5-2.3c0-0.1,0-0.2,0-0.3c-0.1-1.3,0.9-2.5,2.3-2.5c0.1,0,0.1,0,0.2,0c1.3-0.1,2.4,0.9,2.5,2.2
	c0,0.1,0,0.2,0,0.3c0,0.1,0,0.2,0,0.2H216.2z M219.4,71.4c0-0.8-0.6-1.4-1.4-1.4c0,0-0.1,0-0.1,0c-0.8-0.1-1.5,0.5-1.5,1.3
	c0,0,0,0,0,0.1H219.4z"/>
<path class="st22" d="M228.8,71.8c0,1.4-1.1,2.6-2.6,2.6c-1.4,0-2.6-1.1-2.6-2.6c0-1.4,1.1-2.6,2.6-2.6
	C227.6,69.2,228.8,70.3,228.8,71.8z M224.6,71.8c-0.1,0.9,0.6,1.7,1.5,1.8c0,0,0.1,0,0.1,0c0.9,0,1.6-0.7,1.6-1.6c0-0.1,0-0.1,0-0.2
	c0.1-0.9-0.6-1.7-1.5-1.8c0,0-0.1,0-0.1,0c-0.9,0-1.6,0.7-1.6,1.6C224.6,71.6,224.6,71.7,224.6,71.8z"/>
<path class="st22" d="M233.3,73.4v2.8h-0.9v-5.7c0-0.4,0-0.8,0-1.2h0.9c0,0.3,0,0.5,0,0.8c0.4-0.7,1.1-1,1.9-1
	c1.3,0,2.3,1.1,2.2,2.4c0,0,0,0.1,0,0.1c0.1,1.3-0.9,2.5-2.2,2.6c-0.1,0-0.1,0-0.2,0C234.3,74.3,233.7,74,233.3,73.4z M236.5,71.7
	c0.1-0.9-0.6-1.6-1.5-1.7c0,0-0.1,0-0.1,0c-1.1,0-1.6,0.8-1.6,1.8c-0.1,0.8,0.5,1.6,1.3,1.7c0.1,0,0.2,0,0.3,0
	c0.9,0,1.6-0.7,1.6-1.6C236.5,71.8,236.5,71.8,236.5,71.7z"/>
<path class="st22" d="M245.2,73c0,0.5,0,1.1,0,1.2h-0.9c0-0.2-0.1-0.5-0.1-0.7c-0.2,0.5-0.8,0.8-1.8,0.8c-1.4,0-1.9-0.8-1.9-1.5
	c0-1.2,1.1-1.6,2.5-1.6h1.2V71c0-0.5-0.2-1-1.2-1s-1.1,0.4-1.2,0.8H241c0.1-0.6,0.5-1.5,2.1-1.5s2.1,0.9,2.1,1.7L245.2,73z
	 M244.4,71.8h-1.1c-1.1,0-1.6,0.2-1.6,0.9c0,0.5,0.4,0.9,1.1,0.9c0.8,0.1,1.5-0.4,1.6-1.2c0-0.1,0-0.3,0-0.4V71.8z"/>
<path class="st22" d="M248.5,69.3h0.9v-1.5h0.9v1.6h1.2v0.7h-1.2v2.6c0,0.6,0.1,0.8,0.7,0.8c0.2,0,0.3,0,0.5,0v0.7
	c-0.2,0.1-0.5,0.1-0.7,0.1c-1,0-1.3-0.4-1.3-1.4v-2.8h-0.9V69.3z"/>
<path class="st22" d="M256,67v3.2c0.3-0.7,1-1.1,1.8-1c1.1,0,1.8,0.7,1.8,2v2.9h-0.9v-2.7c0-0.8-0.3-1.4-1.2-1.4s-1.5,0.8-1.5,1.8
	v2.4h-0.9V67H256z"/>
<path class="st22" d="M263.8,69.3c1,2.3,1.6,3.7,1.7,4.1l0,0c0.2-0.5,0.7-1.8,1.6-4.1h0.9l-1.9,4.6c-0.9,2.1-1.2,2.5-2.4,2.5
	c-0.2,0-0.4,0-0.6,0v-0.8c0.2,0,0.4,0,0.5,0c0.6,0,0.9-0.3,1.3-1.2l-2.2-5L263.8,69.3z"/>
</svg>
