<svg id="Layer_1" data-name="Layer 1" xmlns="http://www.w3.org/2000/svg" xmlns:xlink="http://www.w3.org/1999/xlink" viewBox="0 0 471 82"><defs><style>.cls-1{fill:#e86200;}.cls-2{fill:url(#linear-gradient);}.cls-3{fill:#fff;}.cls-10,.cls-11,.cls-12,.cls-13,.cls-15,.cls-16,.cls-17,.cls-18,.cls-19,.cls-20,.cls-21,.cls-22,.cls-3,.cls-4,.cls-5,.cls-6,.cls-7,.cls-8,.cls-9{fill-rule:evenodd;}.cls-4{fill:url(#linear-gradient-2);}.cls-5{fill:url(#linear-gradient-3);}.cls-6{fill:url(#linear-gradient-4);}.cls-7{fill:url(#linear-gradient-5);}.cls-8{fill:url(#linear-gradient-6);}.cls-9{fill:url(#linear-gradient-7);}.cls-10{fill:url(#linear-gradient-8);}.cls-11{fill:url(#linear-gradient-9);}.cls-12{fill:url(#linear-gradient-10);}.cls-13{fill:url(#linear-gradient-11);}.cls-14{fill:url(#linear-gradient-12);}.cls-15{fill:url(#linear-gradient-13);}.cls-16{fill:url(#linear-gradient-14);}.cls-17{fill:url(#linear-gradient-15);}.cls-18{fill:url(#linear-gradient-16);}.cls-19{fill:url(#linear-gradient-17);}.cls-20{fill:url(#linear-gradient-18);}.cls-21{fill:url(#linear-gradient-19);}.cls-22{fill:#dbdbdb;}.cls-23{fill:#5c6474;}</style><linearGradient id="linear-gradient" x1="25.73" y1="66.96" x2="69.09" y2="14.75" gradientUnits="userSpaceOnUse"><stop offset="0" stop-color="#e84900"/><stop offset="0.3" stop-color="#e86200"/></linearGradient><linearGradient id="linear-gradient-2" x1="60.81" y1="100.86" x2="61.1" y2="100.86" gradientTransform="translate(-7.59 -56.58) rotate(4.22)" xlink:href="#linear-gradient"/><linearGradient id="linear-gradient-3" x1="52.85" y1="94.96" x2="55.92" y2="94.96" gradientTransform="translate(-7.59 -56.58) rotate(4.22)" xlink:href="#linear-gradient"/><linearGradient id="linear-gradient-4" x1="52.13" y1="93.42" x2="57.39" y2="93.42" gradientTransform="translate(-7.59 -56.58) rotate(4.22)" xlink:href="#linear-gradient"/><linearGradient id="linear-gradient-5" x1="51.29" y1="92.97" x2="57.33" y2="92.97" gradientTransform="translate(-7.59 -56.58) rotate(4.22)" xlink:href="#linear-gradient"/><linearGradient id="linear-gradient-6" x1="52.47" y1="91.38" x2="58.93" y2="91.38" gradientTransform="translate(-7.59 -56.58) rotate(4.22)" xlink:href="#linear-gradient"/><linearGradient id="linear-gradient-7" x1="51.59" y1="88.99" x2="56.74" y2="88.99" gradientTransform="translate(-7.59 -56.58) rotate(4.22)" xlink:href="#linear-gradient"/><linearGradient id="linear-gradient-8" x1="53.35" y1="85.23" x2="64.83" y2="85.23" gradientTransform="translate(-7.59 -56.58) rotate(4.22)" xlink:href="#linear-gradient"/><linearGradient id="linear-gradient-9" x1="54.55" y1="100.92" x2="62.79" y2="100.92" gradientTransform="translate(-7.59 -56.58) rotate(4.22)" xlink:href="#linear-gradient"/><linearGradient id="linear-gradient-10" x1="55.89" y1="107.01" x2="55.95" y2="107.01" gradientTransform="translate(-7.59 -56.58) rotate(4.22)" xlink:href="#linear-gradient"/><linearGradient id="linear-gradient-11" x1="55.95" y1="104.88" x2="65.62" y2="104.88" gradientTransform="translate(-7.59 -56.58) rotate(4.22)" xlink:href="#linear-gradient"/><linearGradient id="linear-gradient-12" x1="55.1" y1="83.59" x2="62.53" y2="83.59" gradientTransform="translate(-7.59 -56.58) rotate(4.22)" xlink:href="#linear-gradient"/><linearGradient id="linear-gradient-13" x1="62.94" y1="92.54" x2="69.68" y2="92.54" gradientTransform="translate(-7.59 -56.58) rotate(4.22)" xlink:href="#linear-gradient"/><linearGradient id="linear-gradient-14" x1="67.88" y1="91.89" x2="70.63" y2="91.89" gradientTransform="translate(-7.59 -56.58) rotate(4.22)" xlink:href="#linear-gradient"/><linearGradient id="linear-gradient-15" x1="62.41" y1="102.19" x2="67.67" y2="102.19" gradientTransform="translate(-7.59 -56.58) rotate(4.22)" xlink:href="#linear-gradient"/><linearGradient id="linear-gradient-16" x1="51.28" y1="89.5" x2="52.6" y2="89.5" gradientTransform="translate(-7.59 -56.58) rotate(4.22)" xlink:href="#linear-gradient"/><linearGradient id="linear-gradient-17" x1="67.78" y1="105.84" x2="68.68" y2="105.84" gradientTransform="translate(-7.59 -56.58) rotate(4.22)" xlink:href="#linear-gradient"/><linearGradient id="linear-gradient-18" x1="49.3" y1="90.36" x2="50.49" y2="90.36" gradientTransform="translate(-7.59 -56.58) rotate(4.22)" xlink:href="#linear-gradient"/><linearGradient id="linear-gradient-19" x1="60.76" y1="93.86" x2="61.8" y2="93.86" gradientTransform="translate(-7.59 -56.58) rotate(4.22)" xlink:href="#linear-gradient"/></defs><g id="Logo"><path class="cls-1" d="M20.21,80.73A12.56,12.56,0,0,1,7.5,66.8L11,26.59A15.55,15.55,0,0,1,20.18,14a14.35,14.35,0,0,1,5.91-1.27H63A12.55,12.55,0,0,1,75.66,26.67L71.25,76.94a4.18,4.18,0,0,1-1.18,2.53l0,0-.05,0a4.17,4.17,0,0,1-2.86,1.19Zm5.88-67a13.48,13.48,0,0,0-5.52,1.19A14.57,14.57,0,0,0,12,26.67L8.45,66.89A11.61,11.61,0,0,0,20.21,79.78H67.13a3.27,3.27,0,0,0,2.22-.94l0,0a3.29,3.29,0,0,0,.94-2l4.4-50.26A11.61,11.61,0,0,0,63,13.7ZM69.42,78.78l0,0Z"/><path class="cls-1" d="M31.82,69A12.56,12.56,0,0,1,19.11,55.06l3.52-40.22A15.44,15.44,0,0,1,37.68,1H74.55A12.55,12.55,0,0,1,87.24,14.92h0L84.89,41.73l-2,23.46c0,.12,0,.24,0,.35a4.2,4.2,0,0,1-1.11,2.16l-.06.06A4.19,4.19,0,0,1,78.75,69ZM37.68,2a14.47,14.47,0,0,0-14.1,13L20.06,55.14A11.61,11.61,0,0,0,31.82,68H78.74A3.22,3.22,0,0,0,81,67.09l0,0a3.2,3.2,0,0,0,.86-1.67c0-.09,0-.18,0-.26l2-23.46,2.34-26.81A11.59,11.59,0,0,0,74.55,2Z"/><path class="cls-2" d="M75.11,28.67,71.62,68.5H33.57c-9.35,0-14.89-6.06-14-15.32l3.49-39.83H61.13C70.53,13,75.72,18.85,75.11,28.67Z"/></g><path class="cls-3" d="M53,19.43c-4.54-.25-7.8-.13-11.53,2.44a13.31,13.31,0,0,0-6,8.37,7.36,7.36,0,0,0,0,4.43c.35,1.06.91,2.11,1.77,2.19a1.58,1.58,0,0,0-1,.8,1.85,1.85,0,0,1,1-.5s-.43.33-.47.54a3.51,3.51,0,0,1,2-.9s-.92.5-.85,1.29a3.83,3.83,0,0,0-2.11,1.58c-.72,1-.16.95-.24,1.89s-.55,1.3-.43,2.75a10,10,0,0,0,1,3.75,16.16,16.16,0,0,1,1.09,4.71,16.63,16.63,0,0,0,.38,2.54c.44,1.49,1,3.26,1.39,4.2l1.8,1.31a6.41,6.41,0,0,1-2-5.2c.41,3,3,5.79,6.12,5.82,2.4,0,4.14-1.5,3-3a2.71,2.71,0,0,0-3.37-.69,3.57,3.57,0,0,1-2.5.82,4.59,4.59,0,0,1,0-4.1c2,1.6,3.27,1.16,5.13.1a1.49,1.49,0,0,1,1.82.42C48.7,58.18,52,58.13,52,58.13c1-.66,1.73-3,1.71-4.39,0-2,1.47-3.29,2.4-4.1,2.45-1.65,2.11-6.35.86-9.4-.06-.15-.12-.29-.19-.43-2-2.34-6.23-2.05-8.23-1.34-.86.3-1.27,1.1-1,2.38a8.51,8.51,0,0,0,1.74,3.49,9.46,9.46,0,0,1-1.79-1.83,5.78,5.78,0,0,0,1.1,2A4.58,4.58,0,0,1,47,43.1s-1.05,1.19.49,2.51c0,0-.89-.06-1.47-1.56a1.48,1.48,0,0,0,.35,2,.94.94,0,0,1-1.08-.51s-.07,1.24.51,1.45c0,0-1.11.33-1.41.91,0,0-.86.53-1.24-.57,0,0,1.19,1.24,1.25-.31a22.64,22.64,0,0,1,.8-3.9c.43-1.6.6-3.24,1.53-4.64a3.09,3.09,0,0,1-.53-2c.43.76.86,1.39,1.68,1.27.43-.08.57-.45.64-.86a2,2,0,0,0,2.07.41c-.27-.32-.38-.39-1.1-.61a4.83,4.83,0,0,1,2.6.41c-.16-.33-.57-.48-1.15-.58a2,2,0,0,1,2.3.7c0-.28-.19-.45-.57-.76a2.07,2.07,0,0,1,1.25.86.9.9,0,0,0-.44-.73,1.68,1.68,0,0,1,1,.87l.29.14c.69-.65.64-2.41,1.09-6.19.56-4.58,3.33-2.84,3.09-8.65-.09-2.22-2.73-3.05-5.94-3.23Z"/><path class="cls-4" d="M45.76,48.87l.11,0h0a.72.72,0,0,1-.12-.46,1,1,0,0,1,.06-.25.76.76,0,0,0-.18.09,1.06,1.06,0,0,1,.1.67Z"/><path class="cls-5" d="M38.46,42.4a1.52,1.52,0,0,0,2,.12,1.41,1.41,0,0,0,.76-1,3,3,0,0,1-3.07,0,1,1,0,0,0,.28.9Z"/><path class="cls-6" d="M39.18,40.1c-.65,1.77,2.55,2.06,2.17-.05l.59.5a1,1,0,0,0,.17.45.31.31,0,0,1,.07-.37c.67.1.5.5.5.5.35-.45-.52-.69-.52-.69a2.43,2.43,0,0,0-2.5-.89,2.93,2.93,0,0,0-2.22,2,.6.6,0,0,1,.56-.2,1.59,1.59,0,0,1,1.18-1.27Z"/><path class="cls-7" d="M40.19,39a3.24,3.24,0,0,1,2.26,1.23c.13.15.44.08.23-.22a3.32,3.32,0,0,0-2.47-1.39,4.13,4.13,0,0,0-3.58,2.61c-.07.23.16.56.37.06A4.35,4.35,0,0,1,40.19,39Z"/><path class="cls-8" d="M40.28,37.75c1.17.1,2.27.36,2.72,1.58a3.64,3.64,0,0,1,.2,1.15c.06-.09.2-.67.26-.77a11.4,11.4,0,0,1,.11,2.07c.22-.59.45-1.25.74-2.12-.56-.31.23-3.26.36-3.7a7.28,7.28,0,0,0-1.18,2.3c-.25-1.53-5-2-5.43-.4a7.28,7.28,0,0,1,2.22-.11Z"/><path class="cls-9" d="M42.41,36.9c-2-1.1-3.28-.5-3.93-.64a2.16,2.16,0,0,1-1.13-.84c.3,1.23,1.23,1.2,2,1.12a9.17,9.17,0,0,1,3,.36Z"/><path class="cls-10" d="M43.22,33c1.33.9,2.24,1,3.93.18,2.42-1.16,3-.92,3.7-.77a4,4,0,0,0-3.34.07,4.35,4.35,0,0,1-4,.1,9,9,0,0,0-4.08-1.09A7.49,7.49,0,0,1,43.22,33Z"/><path class="cls-11" d="M39.86,50.79c-1.33,2.2-.73,3.63-.73,3.63a7.63,7.63,0,0,1,2-4.51c.35-.35.37-1.63.37-1.91,0,1,1.25,1.08,1.25,1.08-.49-.44-.41-.79-.41-.79A16.87,16.87,0,0,0,44,49.67,2.7,2.7,0,0,0,47,49.18c0-.22-.51-.58-.51-.58s.61,0,.71.28c.48.13.57-.46.35-.8a1.54,1.54,0,0,0-1-.55,1.94,1.94,0,0,0-2.08.92c.79.19.46,1.09-.34.75A2.6,2.6,0,0,1,43,48.13c0-.68-.28-1.08-.58-1.11s-.68.83-.68.83a5.16,5.16,0,0,1,.76-2.17L43.41,42l-1.74,2.93,1.23-1.61-.68,2.39a3.91,3.91,0,0,0-1,2.4c-.07,1,0,.48-1.37,2.67Z"/><path class="cls-12" d="M40.34,54.21a.36.36,0,0,0-.07.1l.07-.1Z"/><path class="cls-13" d="M43.19,52.65a.65.65,0,0,0-.4.1s-.7.77-1.15.34-.94-.34-1,.18a2.44,2.44,0,0,1-.32.94,1.89,1.89,0,0,1,1.25-.5c1.76-.05,2.08.85,2.08.85a4.81,4.81,0,0,1,2.51-.87l2.79,0a2.12,2.12,0,0,0,.54-.18.88.88,0,0,0,.56-1.22c-.23-.48-.93-.3-1.23.22s-.47.86-1,1H47.4c-.83-.07-1-.49-1.48-.71l0-2.45-.3,2.34-.17,0a2.11,2.11,0,0,0-1.49.59,1.31,1.31,0,0,0-.47-.51l-.36-2.48.08,2.39Z"/><path class="cls-14" d="M44.82,31.1c-1.26-.07-2.39-.71-3.58-.7,1.82.31,2.43,1.08,3.61,1.15s2.5-.63,3.8-.56C47.34,30.69,46.05,31.19,44.82,31.1Z"/><path class="cls-15" d="M49.38,40.51c-1-.13-.53,1.45.12.64-.66.35-.78-.7,0-.4a1.29,1.29,0,0,1,1.51-1c-.59,1.28.33,1.86.91,1.9a1.55,1.55,0,0,0,1.48-1l.27.31s-.38.79-1.89.8c0,0,1.41.34,2-.5H54c-.39.68-1.67,1.4-3.92.51.75.82,2.37,1.82,4.52.16l-.5-.56A2.11,2.11,0,0,1,55,42c-.44-3.38-4.95-5.14-6.57-2.17-.15.31.17.64.36.12a2.08,2.08,0,0,1,1.83-1.26,3.09,3.09,0,0,1,2.46.66c.42.36.1.69-.37.3-1.32-1-3.36-.07-3.34.85Z"/><path class="cls-16" d="M55.9,41.07a3.91,3.91,0,0,0-2.42-2.51c-.24.26,1.05.93,1.81,2.72.26.62,1,.74.61-.21Z"/><path class="cls-17" d="M47.77,49.09c-.82.09-.64.92,0,1A1.67,1.67,0,0,0,49.29,49a1.22,1.22,0,0,0,.26.44,9.93,9.93,0,0,1,2.52,4.74s.43-1.39-1.18-3.73c-.94-1.37-1.29-1.76-1.47-2a2,2,0,0,0,0-.64,2.29,2.29,0,0,0-2-1.66c2.3,2,.35,3,.35,3Z"/><path class="cls-18" d="M37.77,36.9a1,1,0,0,1,.51-.31A1.8,1.8,0,0,1,37,36.07a1.19,1.19,0,0,0,.78.83Z"/><path class="cls-19" d="M52.49,55.57s1.54-2-.16-3.18a4.62,4.62,0,0,1,.16,3.18Z"/><path class="cls-20" d="M35,36.43a.74.74,0,0,1,.17.43c0,.12,0,.24,0,.35a1,1,0,0,1,0,.25,1.31,1.31,0,0,0,0,.68.83.83,0,0,1,0,.31,1,1,0,0,1,.09.35,2.62,2.62,0,0,0,0,.28l0,0a4.76,4.76,0,0,1,.77-.87.51.51,0,0,1-.18-.09.76.76,0,0,1-.26-.94,2.22,2.22,0,0,1,.29-.46,4.59,4.59,0,0,1-.83-1.4l0,.69a.79.79,0,0,1-.11.45Z"/><path class="cls-21" d="M46.79,39.94c-.36,1-.53,2.13-.8,3.14v0h.1a2.23,2.23,0,0,1,.4-.69.71.71,0,0,1,.34-.23.71.71,0,0,1,.31-.48,8.3,8.3,0,0,1-.25-.87v0A5.1,5.1,0,0,1,46.79,39.94Z"/><path class="cls-22" d="M39.55,39.82a.83.83,0,0,0,.75,1.25l.21-.18.47,0c0-.14.05-.29.08-.43l.19-.06c-.1-.14-.21-.27-.32-.4,0,1.17-1.5.45-.84-.16.07-.26-.54,0-.54,0Z"/><path class="cls-22" d="M51.8,40.78l.16.41c1.07,0,.89-.9.89-.9-.41.92-1.54.18-.92-.53l-.6,0a1.09,1.09,0,0,0-.07,1l.3-.21,0,.51.28-.28Z"/><path class="cls-23" d="M102.09,36.67c1.39,4.47,4.67,7.62,12.19,7.62s10.38-2.92,10.38-6.47c0-3.76-2.1-6.07-12-7.73-11.49-1.94-14.24-5.55-14.24-10.75,0-6.72,6.38-10.55,14.7-10.55,12.43,0,15.35,6.5,15.78,10.36h-5.47c-.77-2.6-2.4-6-10.45-6-5.49,0-9,1.87-9,5.7,0,3.12,1.56,5.1,10.23,6.55,13.79,2.35,16,6.63,16,11.91,0,6.08-4.85,11.3-16.35,11.3-10.67,0-16.07-4.87-17.31-11.9Z"/><path class="cls-23" d="M144.1,9.57h5.4V25h23V9.57h5.4V47.78h-5.4V29.6h-23V47.78h-5.4Z"/><path class="cls-23" d="M199.9,36.2,195,47.78h-5.63L205.77,9.57h6.55l17.09,38.21h-5.88L218.38,36.2Zm16.73-4.59c-4.67-10.55-6.87-15.55-7.75-18.14h0c-.79,2.5-3.4,9-7.24,18.14Z"/><path class="cls-23" d="M241,9.57h5.4V25h23V9.57h5.4V47.78h-5.4V29.6h-23V47.78H241Z"/><path class="cls-23" d="M97.08,60.15c.28.85.93,1.42,2.48,1.42s2-.5,2-1.15-.43-1.09-2.42-1.42c-2.91-.5-3.49-1.44-3.49-2.62,0-1.69,1.61-2.58,3.64-2.58,3,0,3.73,1.53,3.83,2.51h-1.85c-.14-.49-.46-1.14-2-1.14-1.09,0-1.7.36-1.7,1s.36.89,2.12,1.2c3.28.58,3.8,1.58,3.8,2.83,0,1.49-1.17,2.71-4,2.71-2.65,0-3.89-1.19-4.16-2.79Z"/><path class="cls-23" d="M114.34,61c0,.76,0,1.58.06,1.72h-1.67a5.16,5.16,0,0,1-.08-.79,2.45,2.45,0,0,1-2.32,1c-1.76,0-2.45-1.07-2.45-2.07,0-1.66,1.47-2.12,3.33-2.12h1.41v-.25c0-.57-.25-1.07-1.32-1.07s-1.2.4-1.3.83h-1.76c.06-.8.62-2,3-2,2.63,0,3.06,1.25,3.06,2.32Zm-1.72-1.16h-1.37c-1.17,0-1.66.29-1.66.9s.38.88,1.21.88c1.29,0,1.82-.66,1.82-1.62Z"/><path class="cls-23" d="M119.43,58c0-.55,0-1.09,0-1.64h1.68a7.18,7.18,0,0,1,.06.81,2.24,2.24,0,0,1,2-1,1.9,1.9,0,0,1,1.93,1.1,2.43,2.43,0,0,1,2.17-1.1c1.31,0,2.35.78,2.35,2.68v3.88h-1.73V58.92c0-.61-.21-1.36-1.14-1.36s-1.33.53-1.33,1.68v3.52h-1.74V58.9c0-.67-.24-1.34-1.15-1.34s-1.33.7-1.33,1.71v3.49h-1.74Z"/><path class="cls-23" d="M141,60.9c0,.62,0,1.24,0,1.86h-1.72c0-.18,0-.52,0-.85-.32.57-.83,1-2.19,1s-2.39-.76-2.39-2.64V56.38h1.77V60c0,.88.33,1.54,1.26,1.54,1.11,0,1.54-.65,1.54-2.23V56.38H141Z"/><path class="cls-23" d="M147.34,60a1.65,1.65,0,0,0,1.76,1.61,1.56,1.56,0,0,0,1.53-.75h1.76a3.57,3.57,0,0,1-6.81-1.27,3.26,3.26,0,0,1,3.47-3.38,3.18,3.18,0,0,1,3.42,3.36c0,.15,0,.25,0,.43Zm3.33-1.11A1.45,1.45,0,0,0,149,57.46a1.51,1.51,0,0,0-1.68,1.42Z"/><path class="cls-23" d="M157.06,62.76V53.47h1.76v9.29Z"/><path class="cls-23" d="M170.91,54h1.84v3.38h4.45V54H179v8.78H177.2V58.85h-4.45v3.91h-1.84Z"/><path class="cls-23" d="M190.33,61c0,.76,0,1.58,0,1.72h-1.67a5.16,5.16,0,0,1-.07-.79,2.45,2.45,0,0,1-2.32,1c-1.77,0-2.46-1.07-2.46-2.07,0-1.66,1.47-2.12,3.34-2.12h1.4v-.25c0-.57-.24-1.07-1.31-1.07s-1.21.4-1.31.83h-1.76c.06-.8.62-2,3-2,2.63,0,3.07,1.25,3.07,2.32Zm-1.73-1.16h-1.37c-1.16,0-1.66.29-1.66.9s.38.88,1.22.88c1.29,0,1.81-.66,1.81-1.62Z"/><path class="cls-23" d="M197.14,53.47v3.81a2.34,2.34,0,0,1,2.19-1.08c1.54,0,2.48.9,2.48,2.72v3.84H200V59.13c0-.9-.28-1.54-1.28-1.54s-1.61.83-1.61,2.08v3.09h-1.76V53.47Z"/><path class="cls-23" d="M206.89,58c0-.54,0-1.15,0-1.61h1.71c0,.19,0,.62.06.93a2.56,2.56,0,0,1,4.67,1.53v3.92h-1.78V59.13c0-.84-.32-1.54-1.31-1.54s-1.57.77-1.57,2v3.15h-1.77Z"/><path class="cls-23" d="M219.71,60a1.65,1.65,0,0,0,1.76,1.61,1.53,1.53,0,0,0,1.52-.75h1.76a3.16,3.16,0,0,1-3.32,2.08A3.19,3.19,0,0,1,218,59.58a3.25,3.25,0,0,1,3.46-3.38,3.17,3.17,0,0,1,3.42,3.36V60ZM223,58.88a1.45,1.45,0,0,0-1.63-1.42,1.5,1.5,0,0,0-1.68,1.42Z"/><path class="cls-23" d="M229.44,58c0-.55,0-1.09,0-1.64h1.69c0,.25,0,.55,0,.81a2.24,2.24,0,0,1,2-1,1.9,1.9,0,0,1,1.93,1.1,2.43,2.43,0,0,1,2.17-1.1c1.31,0,2.35.78,2.35,2.68v3.88h-1.73V58.92c0-.61-.21-1.36-1.14-1.36s-1.33.53-1.33,1.68v3.52h-1.74V58.9c0-.67-.24-1.34-1.15-1.34s-1.33.7-1.33,1.71v3.49h-1.74Z"/><path class="cls-23" d="M250.67,61c0,.76,0,1.58.05,1.72h-1.66A5.16,5.16,0,0,1,249,62a2.45,2.45,0,0,1-2.32,1c-1.76,0-2.45-1.07-2.45-2.07,0-1.66,1.47-2.12,3.33-2.12H249v-.25c0-.57-.25-1.07-1.32-1.07s-1.21.4-1.3.83h-1.76c.06-.8.62-2,3-2,2.63,0,3.06,1.25,3.06,2.32ZM249,59.88h-1.37c-1.17,0-1.66.29-1.66.9s.38.88,1.21.88c1.29,0,1.82-.66,1.82-1.62Z"/><path class="cls-23" d="M255.76,58c0-.54,0-1.15,0-1.61h1.71c0,.19.05.62.06.93a2.56,2.56,0,0,1,4.67,1.53v3.92h-1.78V59.13c0-.84-.32-1.54-1.31-1.54s-1.57.77-1.57,2v3.15h-1.77Z"/><path class="cls-23" d="M267.26,58c0-.54,0-1.15,0-1.61H269c0,.19.05.62.06.93a2.56,2.56,0,0,1,4.67,1.53v3.92h-1.78V59.13c0-.84-.32-1.54-1.31-1.54s-1.57.77-1.57,2v3.15h-1.77Z"/><path class="cls-23" d="M97.89,72.11l-.87,2H96l2.9-6.74h1.16l3,6.74h-1l-.91-2Zm3-.81c-.83-1.86-1.21-2.75-1.37-3.2h0c-.14.44-.6,1.59-1.28,3.2Z"/><path class="cls-23" d="M111,72.65a2.24,2.24,0,0,1-2.35,1.63,2.36,2.36,0,0,1-2.53-2.52,2.45,2.45,0,0,1,2.54-2.55A2.14,2.14,0,0,1,111,70.88h-.9a1.4,1.4,0,0,0-1.44-.93,1.81,1.81,0,0,0,0,3.6,1.44,1.44,0,0,0,1.45-.9Z"/><path class="cls-23" d="M118.9,73c0,.47,0,1.08,0,1.19h-.86a4.23,4.23,0,0,1-.06-.7c-.25.5-.8.83-1.81.83-1.36,0-1.86-.82-1.86-1.54,0-1.23,1.12-1.57,2.49-1.57H118v-.25c0-.53-.23-1-1.25-1s-1.14.4-1.23.85h-.9c0-.64.48-1.54,2.13-1.54s2.13.86,2.13,1.65ZM118,71.81h-1.15c-1.1,0-1.62.24-1.62.89,0,.47.35.88,1.15.88A1.41,1.41,0,0,0,118,72Z"/><path class="cls-23" d="M127.56,67v5.74c0,.46,0,.93,0,1.39h-.88c0-.2,0-.49,0-.73a1.8,1.8,0,0,1-1.77.86,2.3,2.3,0,0,1-2.33-2.49A2.48,2.48,0,0,1,125,69.21a1.76,1.76,0,0,1,1.66.74V67Zm-4.07,4.75a1.62,1.62,0,0,0,1.59,1.76c1.14,0,1.61-.74,1.61-1.8S126.32,70,125.11,70A1.64,1.64,0,0,0,123.49,71.77Z"/><path class="cls-23" d="M132.12,72a1.59,1.59,0,0,0,1.64,1.6,1.48,1.48,0,0,0,1.43-.78h.9a2.31,2.31,0,0,1-2.37,1.5,2.54,2.54,0,0,1,0-5.07,2.33,2.33,0,0,1,2.47,2.51V72Zm3.1-.64a1.41,1.41,0,0,0-1.53-1.4,1.44,1.44,0,0,0-1.55,1.4Z"/><path class="cls-23" d="M139.81,70.59c0-.42,0-.83,0-1.24h.87c0,.19,0,.46,0,.72a1.69,1.69,0,0,1,1.55-.86,1.43,1.43,0,0,1,1.47.93,1.81,1.81,0,0,1,1.66-.93c.94,0,1.71.55,1.71,2v3h-.89V71.21c0-.55-.18-1.25-1-1.25s-1.26.52-1.26,1.56v2.63H143v-3c0-.58-.2-1.22-1-1.22s-1.25.71-1.25,1.63v2.56h-.9Z"/><path class="cls-23" d="M151.32,69.35c1,2.35,1.57,3.7,1.71,4.11h0c.17-.48.66-1.85,1.57-4.11h.94l-1.88,4.56c-.85,2.06-1.16,2.48-2.37,2.48a4.46,4.46,0,0,1-.63,0v-.8a3.79,3.79,0,0,0,.53,0c.65,0,.9-.27,1.34-1.21l-2.23-5Z"/><path class="cls-23" d="M164.51,74.15V70.06h-.9v-.71h.9V68.7c0-1.09.48-1.76,1.6-1.76a2,2,0,0,1,.56.06v.74a2,2,0,0,0-.42,0c-.65,0-.83.27-.83,1v.6h1.12v.71h-1.12v4.09Z"/><path class="cls-23" d="M174.56,71.75a2.56,2.56,0,0,1-5.12,0,2.56,2.56,0,0,1,5.12,0Zm-4.19,0A1.66,1.66,0,0,0,172,73.54a1.6,1.6,0,0,0,1.62-1.78A1.65,1.65,0,0,0,172,70,1.6,1.6,0,0,0,170.37,71.75Z"/><path class="cls-23" d="M178.21,70.65c0-.43,0-.87,0-1.3h.88c0,.14,0,.65,0,1.08a2,2,0,0,1,1.94-1.21v.86a1.83,1.83,0,0,0-1.94,2.07v2h-.91Z"/><path class="cls-23" d="M189.93,67.41h.95v2.72h4.06V67.41h.95v6.74h-.95V70.94h-4.06v3.21h-.95Z"/><path class="cls-23" d="M204.75,71.75a2.56,2.56,0,0,1-5.12,0,2.56,2.56,0,0,1,5.12,0Zm-4.19,0a1.66,1.66,0,0,0,1.64,1.79,1.6,1.6,0,0,0,1.62-1.78,1.65,1.65,0,0,0-1.65-1.8A1.6,1.6,0,0,0,200.56,71.75Z"/><path class="cls-23" d="M208.4,70.59c0-.42,0-.83,0-1.24h.87c0,.19,0,.46,0,.72a1.69,1.69,0,0,1,1.55-.86,1.45,1.45,0,0,1,1.48.93,1.78,1.78,0,0,1,1.65-.93c.94,0,1.72.55,1.72,2v3h-.9V71.21c0-.55-.18-1.25-1-1.25s-1.26.52-1.26,1.56v2.63h-.89v-3c0-.58-.2-1.22-1-1.22s-1.25.71-1.25,1.63v2.56h-.9Z"/><path class="cls-23" d="M220.25,72a1.59,1.59,0,0,0,1.64,1.6,1.45,1.45,0,0,0,1.42-.78h.91a2.32,2.32,0,0,1-2.38,1.5,2.38,2.38,0,0,1-2.5-2.52,2.41,2.41,0,0,1,2.48-2.55,2.34,2.34,0,0,1,2.47,2.51,2,2,0,0,1,0,.24Zm3.1-.64a1.41,1.41,0,0,0-1.54-1.4,1.45,1.45,0,0,0-1.55,1.4Z"/><path class="cls-23" d="M232.77,71.75a2.56,2.56,0,0,1-5.12,0,2.56,2.56,0,0,1,5.12,0Zm-4.2,0a1.66,1.66,0,0,0,1.64,1.79,1.6,1.6,0,0,0,1.63-1.78,1.66,1.66,0,0,0-1.65-1.8A1.61,1.61,0,0,0,228.57,71.75Z"/><path class="cls-23" d="M237.32,73.44v2.82h-.9V70.55c0-.4,0-.8,0-1.2h.88a7.69,7.69,0,0,1,0,.82,2,2,0,0,1,1.85-1,2.31,2.31,0,0,1,2.24,2.46A2.44,2.44,0,0,1,239,74.28,1.8,1.8,0,0,1,237.32,73.44Zm3.15-1.74A1.58,1.58,0,0,0,238.9,70c-1.12,0-1.61.79-1.61,1.8a1.55,1.55,0,0,0,1.59,1.75A1.62,1.62,0,0,0,240.47,71.7Z"/><path class="cls-23" d="M249.24,73c0,.47,0,1.08,0,1.19h-.86a4.23,4.23,0,0,1-.06-.7c-.25.5-.8.83-1.82.83-1.35,0-1.85-.82-1.85-1.54,0-1.23,1.11-1.57,2.49-1.57h1.17v-.25c0-.53-.23-1-1.25-1s-1.14.4-1.23.85H245c.06-.64.49-1.54,2.14-1.54s2.13.86,2.13,1.65Zm-.88-1.15h-1.15c-1.1,0-1.62.24-1.62.89,0,.47.35.88,1.15.88A1.42,1.42,0,0,0,248.36,72Z"/><path class="cls-23" d="M252.5,69.35h.95V67.8h.91v1.55h1.25v.71h-1.25v2.63c0,.55.14.79.66.79a1.87,1.87,0,0,0,.47,0v.67a2.42,2.42,0,0,1-.74.09c-1,0-1.3-.45-1.3-1.39V70.06h-.95Z"/><path class="cls-23" d="M260,67v3.19a1.81,1.81,0,0,1,1.78-1c1.1,0,1.82.68,1.82,2v2.9h-.91V71.39c0-.81-.29-1.42-1.19-1.42s-1.49.82-1.49,1.82v2.36h-.91V67Z"/><path class="cls-23" d="M267.82,69.35c1,2.35,1.58,3.7,1.72,4.11h0c.17-.48.66-1.85,1.58-4.11h.94l-1.88,4.56c-.86,2.06-1.17,2.48-2.37,2.48a4.34,4.34,0,0,1-.63,0v-.8a3.79,3.79,0,0,0,.53,0c.65,0,.9-.27,1.33-1.21l-2.22-5Z"/><g id="Logo-2" data-name="Logo"><path class="cls-1" d="M20.21,80.73A12.56,12.56,0,0,1,7.5,66.8L11,26.59A15.55,15.55,0,0,1,20.18,14a14.35,14.35,0,0,1,5.91-1.27H63A12.55,12.55,0,0,1,75.66,26.67L71.25,76.94a4.18,4.18,0,0,1-1.18,2.53l0,0-.05,0a4.17,4.17,0,0,1-2.86,1.19Zm5.88-67a13.48,13.48,0,0,0-5.52,1.19A14.57,14.57,0,0,0,12,26.67L8.45,66.89A11.61,11.61,0,0,0,20.21,79.78H67.13a3.27,3.27,0,0,0,2.22-.94l0,0a3.29,3.29,0,0,0,.94-2l4.4-50.26A11.61,11.61,0,0,0,63,13.7ZM69.42,78.78l0,0Z"/><path class="cls-1" d="M31.82,69A12.56,12.56,0,0,1,19.11,55.06l3.52-40.22A15.44,15.44,0,0,1,37.68,1H74.55A12.55,12.55,0,0,1,87.24,14.92h0L84.89,41.73l-2,23.46c0,.12,0,.24,0,.35a4.2,4.2,0,0,1-1.11,2.16l-.06.06A4.19,4.19,0,0,1,78.75,69ZM37.68,2a14.47,14.47,0,0,0-14.1,13L20.06,55.14A11.61,11.61,0,0,0,31.82,68H78.74A3.22,3.22,0,0,0,81,67.09l0,0a3.2,3.2,0,0,0,.86-1.67c0-.09,0-.18,0-.26l2-23.46,2.34-26.81A11.59,11.59,0,0,0,74.55,2Z"/><path class="cls-2" d="M75.11,28.67,71.62,68.5H33.57c-9.35,0-14.89-6.06-14-15.32l3.49-39.83H61.13C70.53,13,75.72,18.85,75.11,28.67Z"/></g><path class="cls-3" d="M53,19.43c-4.54-.25-7.8-.13-11.53,2.44a13.31,13.31,0,0,0-6,8.37,7.36,7.36,0,0,0,0,4.43c.35,1.06.91,2.11,1.77,2.19a1.58,1.58,0,0,0-1,.8,1.85,1.85,0,0,1,1-.5s-.43.33-.47.54a3.51,3.51,0,0,1,2-.9s-.92.5-.85,1.29a3.83,3.83,0,0,0-2.11,1.58c-.72,1-.16.95-.24,1.89s-.55,1.3-.43,2.75a10,10,0,0,0,1,3.75,16.16,16.16,0,0,1,1.09,4.71,16.63,16.63,0,0,0,.38,2.54c.44,1.49,1,3.26,1.39,4.2l1.8,1.31a6.41,6.41,0,0,1-2-5.2c.41,3,3,5.79,6.12,5.82,2.4,0,4.14-1.5,3-3a2.71,2.71,0,0,0-3.37-.69,3.57,3.57,0,0,1-2.5.82,4.59,4.59,0,0,1,0-4.1c2,1.6,3.27,1.16,5.13.1a1.49,1.49,0,0,1,1.82.42C48.7,58.18,52,58.13,52,58.13c1-.66,1.73-3,1.71-4.39,0-2,1.47-3.29,2.4-4.1,2.45-1.65,2.11-6.35.86-9.4-.06-.15-.12-.29-.19-.43-2-2.34-6.23-2.05-8.23-1.34-.86.3-1.27,1.1-1,2.38a8.51,8.51,0,0,0,1.74,3.49,9.46,9.46,0,0,1-1.79-1.83,5.78,5.78,0,0,0,1.1,2A4.58,4.58,0,0,1,47,43.1s-1.05,1.19.49,2.51c0,0-.89-.06-1.47-1.56a1.48,1.48,0,0,0,.35,2,.94.94,0,0,1-1.08-.51s-.07,1.24.51,1.45c0,0-1.11.33-1.41.91,0,0-.86.53-1.24-.57,0,0,1.19,1.24,1.25-.31a22.64,22.64,0,0,1,.8-3.9c.43-1.6.6-3.24,1.53-4.64a3.09,3.09,0,0,1-.53-2c.43.76.86,1.39,1.68,1.27.43-.08.57-.45.64-.86a2,2,0,0,0,2.07.41c-.27-.32-.38-.39-1.1-.61a4.83,4.83,0,0,1,2.6.41c-.16-.33-.57-.48-1.15-.58a2,2,0,0,1,2.3.7c0-.28-.19-.45-.57-.76a2.07,2.07,0,0,1,1.25.86.9.9,0,0,0-.44-.73,1.68,1.68,0,0,1,1,.87l.29.14c.69-.65.64-2.41,1.09-6.19.56-4.58,3.33-2.84,3.09-8.65-.09-2.22-2.73-3.05-5.94-3.23Z"/><path class="cls-4" d="M45.76,48.87l.11,0h0a.72.72,0,0,1-.12-.46,1,1,0,0,1,.06-.25.76.76,0,0,0-.18.09,1.06,1.06,0,0,1,.1.67Z"/><path class="cls-5" d="M38.46,42.4a1.52,1.52,0,0,0,2,.12,1.41,1.41,0,0,0,.76-1,3,3,0,0,1-3.07,0,1,1,0,0,0,.28.9Z"/><path class="cls-6" d="M39.18,40.1c-.65,1.77,2.55,2.06,2.17-.05l.59.5a1,1,0,0,0,.17.45.31.31,0,0,1,.07-.37c.67.1.5.5.5.5.35-.45-.52-.69-.52-.69a2.43,2.43,0,0,0-2.5-.89,2.93,2.93,0,0,0-2.22,2,.6.6,0,0,1,.56-.2,1.59,1.59,0,0,1,1.18-1.27Z"/><path class="cls-7" d="M40.19,39a3.24,3.24,0,0,1,2.26,1.23c.13.15.44.08.23-.22a3.32,3.32,0,0,0-2.47-1.39,4.13,4.13,0,0,0-3.58,2.61c-.07.23.16.56.37.06A4.35,4.35,0,0,1,40.19,39Z"/><path class="cls-8" d="M40.28,37.75c1.17.1,2.27.36,2.72,1.58a3.64,3.64,0,0,1,.2,1.15c.06-.09.2-.67.26-.77a11.4,11.4,0,0,1,.11,2.07c.22-.59.45-1.25.74-2.12-.56-.31.23-3.26.36-3.7a7.28,7.28,0,0,0-1.18,2.3c-.25-1.53-5-2-5.43-.4a7.28,7.28,0,0,1,2.22-.11Z"/><path class="cls-9" d="M42.41,36.9c-2-1.1-3.28-.5-3.93-.64a2.16,2.16,0,0,1-1.13-.84c.3,1.23,1.23,1.2,2,1.12a9.17,9.17,0,0,1,3,.36Z"/><path class="cls-10" d="M43.22,33c1.33.9,2.24,1,3.93.18,2.42-1.16,3-.92,3.7-.77a4,4,0,0,0-3.34.07,4.35,4.35,0,0,1-4,.1,9,9,0,0,0-4.08-1.09A7.49,7.49,0,0,1,43.22,33Z"/><path class="cls-11" d="M39.86,50.79c-1.33,2.2-.73,3.63-.73,3.63a7.63,7.63,0,0,1,2-4.51c.35-.35.37-1.63.37-1.91,0,1,1.25,1.08,1.25,1.08-.49-.44-.41-.79-.41-.79A16.87,16.87,0,0,0,44,49.67,2.7,2.7,0,0,0,47,49.18c0-.22-.51-.58-.51-.58s.61,0,.71.28c.48.13.57-.46.35-.8a1.54,1.54,0,0,0-1-.55,1.94,1.94,0,0,0-2.08.92c.79.19.46,1.09-.34.75A2.6,2.6,0,0,1,43,48.13c0-.68-.28-1.08-.58-1.11s-.68.83-.68.83a5.16,5.16,0,0,1,.76-2.17L43.41,42l-1.74,2.93,1.23-1.61-.68,2.39a3.91,3.91,0,0,0-1,2.4c-.07,1,0,.48-1.37,2.67Z"/><path class="cls-12" d="M40.34,54.21a.36.36,0,0,0-.07.1l.07-.1Z"/><path class="cls-13" d="M43.19,52.65a.65.65,0,0,0-.4.1s-.7.77-1.15.34-.94-.34-1,.18a2.44,2.44,0,0,1-.32.94,1.89,1.89,0,0,1,1.25-.5c1.76-.05,2.08.85,2.08.85a4.81,4.81,0,0,1,2.51-.87l2.79,0a2.12,2.12,0,0,0,.54-.18.88.88,0,0,0,.56-1.22c-.23-.48-.93-.3-1.23.22s-.47.86-1,1H47.4c-.83-.07-1-.49-1.48-.71l0-2.45-.3,2.34-.17,0a2.11,2.11,0,0,0-1.49.59,1.31,1.31,0,0,0-.47-.51l-.36-2.48.08,2.39Z"/><path class="cls-14" d="M44.82,31.1c-1.26-.07-2.39-.71-3.58-.7,1.82.31,2.43,1.08,3.61,1.15s2.5-.63,3.8-.56C47.34,30.69,46.05,31.19,44.82,31.1Z"/><path class="cls-15" d="M49.38,40.51c-1-.13-.53,1.45.12.64-.66.35-.78-.7,0-.4a1.29,1.29,0,0,1,1.51-1c-.59,1.28.33,1.86.91,1.9a1.55,1.55,0,0,0,1.48-1l.27.31s-.38.79-1.89.8c0,0,1.41.34,2-.5H54c-.39.68-1.67,1.4-3.92.51.75.82,2.37,1.82,4.52.16l-.5-.56A2.11,2.11,0,0,1,55,42c-.44-3.38-4.95-5.14-6.57-2.17-.15.31.17.64.36.12a2.08,2.08,0,0,1,1.83-1.26,3.09,3.09,0,0,1,2.46.66c.42.36.1.69-.37.3-1.32-1-3.36-.07-3.34.85Z"/><path class="cls-16" d="M55.9,41.07a3.91,3.91,0,0,0-2.42-2.51c-.24.26,1.05.93,1.81,2.72.26.62,1,.74.61-.21Z"/><path class="cls-17" d="M47.77,49.09c-.82.09-.64.92,0,1A1.67,1.67,0,0,0,49.29,49a1.22,1.22,0,0,0,.26.44,9.93,9.93,0,0,1,2.52,4.74s.43-1.39-1.18-3.73c-.94-1.37-1.29-1.76-1.47-2a2,2,0,0,0,0-.64,2.29,2.29,0,0,0-2-1.66c2.3,2,.35,3,.35,3Z"/><path class="cls-18" d="M37.77,36.9a1,1,0,0,1,.51-.31A1.8,1.8,0,0,1,37,36.07a1.19,1.19,0,0,0,.78.83Z"/><path class="cls-19" d="M52.49,55.57s1.54-2-.16-3.18a4.62,4.62,0,0,1,.16,3.18Z"/><path class="cls-20" d="M35,36.43a.74.74,0,0,1,.17.43c0,.12,0,.24,0,.35a1,1,0,0,1,0,.25,1.31,1.31,0,0,0,0,.68.83.83,0,0,1,0,.31,1,1,0,0,1,.09.35,2.62,2.62,0,0,0,0,.28l0,0a4.76,4.76,0,0,1,.77-.87.51.51,0,0,1-.18-.09.76.76,0,0,1-.26-.94,2.22,2.22,0,0,1,.29-.46,4.59,4.59,0,0,1-.83-1.4l0,.69a.79.79,0,0,1-.11.45Z"/><path class="cls-21" d="M46.79,39.94c-.36,1-.53,2.13-.8,3.14v0h.1a2.23,2.23,0,0,1,.4-.69.71.71,0,0,1,.34-.23.71.71,0,0,1,.31-.48,8.3,8.3,0,0,1-.25-.87v0A5.1,5.1,0,0,1,46.79,39.94Z"/><path class="cls-22" d="M39.55,39.82a.83.83,0,0,0,.75,1.25l.21-.18.47,0c0-.14.05-.29.08-.43l.19-.06c-.1-.14-.21-.27-.32-.4,0,1.17-1.5.45-.84-.16.07-.26-.54,0-.54,0Z"/><path class="cls-22" d="M51.8,40.78l.16.41c1.07,0,.89-.9.89-.9-.41.92-1.54.18-.92-.53l-.6,0a1.09,1.09,0,0,0-.07,1l.3-.21,0,.51.28-.28Z"/><path class="cls-23" d="M102.09,36.67c1.39,4.47,4.67,7.62,12.19,7.62s10.38-2.92,10.38-6.47c0-3.76-2.1-6.07-12-7.73-11.49-1.94-14.24-5.55-14.24-10.75,0-6.72,6.38-10.55,14.7-10.55,12.43,0,15.35,6.5,15.78,10.36h-5.47c-.77-2.6-2.4-6-10.45-6-5.49,0-9,1.87-9,5.7,0,3.12,1.56,5.1,10.23,6.55,13.79,2.35,16,6.63,16,11.91,0,6.08-4.85,11.3-16.35,11.3-10.67,0-16.07-4.87-17.31-11.9Z"/><path class="cls-23" d="M144.1,9.57h5.4V25h23V9.57h5.4V47.78h-5.4V29.6h-23V47.78h-5.4Z"/><path class="cls-23" d="M199.9,36.2,195,47.78h-5.63L205.77,9.57h6.55l17.09,38.21h-5.88L218.38,36.2Zm16.73-4.59c-4.67-10.55-6.87-15.55-7.75-18.14h0c-.79,2.5-3.4,9-7.24,18.14Z"/><path class="cls-23" d="M241,9.57h5.4V25h23V9.57h5.4V47.78h-5.4V29.6h-23V47.78H241Z"/><path class="cls-23" d="M97.08,60.15c.28.85.93,1.42,2.48,1.42s2-.5,2-1.15-.43-1.09-2.42-1.42c-2.91-.5-3.49-1.44-3.49-2.62,0-1.69,1.61-2.58,3.64-2.58,3,0,3.73,1.53,3.83,2.51h-1.85c-.14-.49-.46-1.14-2-1.14-1.09,0-1.7.36-1.7,1s.36.89,2.12,1.2c3.28.58,3.8,1.58,3.8,2.83,0,1.49-1.17,2.71-4,2.71-2.65,0-3.89-1.19-4.16-2.79Z"/><path class="cls-23" d="M114.34,61c0,.76,0,1.58.06,1.72h-1.67a5.16,5.16,0,0,1-.08-.79,2.45,2.45,0,0,1-2.32,1c-1.76,0-2.45-1.07-2.45-2.07,0-1.66,1.47-2.12,3.33-2.12h1.41v-.25c0-.57-.25-1.07-1.32-1.07s-1.2.4-1.3.83h-1.76c.06-.8.62-2,3-2,2.63,0,3.06,1.25,3.06,2.32Zm-1.72-1.16h-1.37c-1.17,0-1.66.29-1.66.9s.38.88,1.21.88c1.29,0,1.82-.66,1.82-1.62Z"/><path class="cls-23" d="M119.43,58c0-.55,0-1.09,0-1.64h1.68a7.18,7.18,0,0,1,.06.81,2.24,2.24,0,0,1,2-1,1.9,1.9,0,0,1,1.93,1.1,2.43,2.43,0,0,1,2.17-1.1c1.31,0,2.35.78,2.35,2.68v3.88h-1.73V58.92c0-.61-.21-1.36-1.14-1.36s-1.33.53-1.33,1.68v3.52h-1.74V58.9c0-.67-.24-1.34-1.15-1.34s-1.33.7-1.33,1.71v3.49h-1.74Z"/><path class="cls-23" d="M141,60.9c0,.62,0,1.24,0,1.86h-1.72c0-.18,0-.52,0-.85-.32.57-.83,1-2.19,1s-2.39-.76-2.39-2.64V56.38h1.77V60c0,.88.33,1.54,1.26,1.54,1.11,0,1.54-.65,1.54-2.23V56.38H141Z"/><path class="cls-23" d="M147.34,60a1.65,1.65,0,0,0,1.76,1.61,1.56,1.56,0,0,0,1.53-.75h1.76a3.57,3.57,0,0,1-6.81-1.27,3.26,3.26,0,0,1,3.47-3.38,3.18,3.18,0,0,1,3.42,3.36c0,.15,0,.25,0,.43Zm3.33-1.11A1.45,1.45,0,0,0,149,57.46a1.51,1.51,0,0,0-1.68,1.42Z"/><path class="cls-23" d="M157.06,62.76V53.47h1.76v9.29Z"/><path class="cls-23" d="M170.91,54h1.84v3.38h4.45V54H179v8.78H177.2V58.85h-4.45v3.91h-1.84Z"/><path class="cls-23" d="M190.33,61c0,.76,0,1.58,0,1.72h-1.67a5.16,5.16,0,0,1-.07-.79,2.45,2.45,0,0,1-2.32,1c-1.77,0-2.46-1.07-2.46-2.07,0-1.66,1.47-2.12,3.34-2.12h1.4v-.25c0-.57-.24-1.07-1.31-1.07s-1.21.4-1.31.83h-1.76c.06-.8.62-2,3-2,2.63,0,3.07,1.25,3.07,2.32Zm-1.73-1.16h-1.37c-1.16,0-1.66.29-1.66.9s.38.88,1.22.88c1.29,0,1.81-.66,1.81-1.62Z"/><path class="cls-23" d="M197.14,53.47v3.81a2.34,2.34,0,0,1,2.19-1.08c1.54,0,2.48.9,2.48,2.72v3.84H200V59.13c0-.9-.28-1.54-1.28-1.54s-1.61.83-1.61,2.08v3.09h-1.76V53.47Z"/><path class="cls-23" d="M206.89,58c0-.54,0-1.15,0-1.61h1.71c0,.19,0,.62.06.93a2.56,2.56,0,0,1,4.67,1.53v3.92h-1.78V59.13c0-.84-.32-1.54-1.31-1.54s-1.57.77-1.57,2v3.15h-1.77Z"/><path class="cls-23" d="M219.71,60a1.65,1.65,0,0,0,1.76,1.61,1.53,1.53,0,0,0,1.52-.75h1.76a3.16,3.16,0,0,1-3.32,2.08A3.19,3.19,0,0,1,218,59.58a3.25,3.25,0,0,1,3.46-3.38,3.17,3.17,0,0,1,3.42,3.36V60ZM223,58.88a1.45,1.45,0,0,0-1.63-1.42,1.5,1.5,0,0,0-1.68,1.42Z"/><path class="cls-23" d="M229.44,58c0-.55,0-1.09,0-1.64h1.69c0,.25,0,.55,0,.81a2.24,2.24,0,0,1,2-1,1.9,1.9,0,0,1,1.93,1.1,2.43,2.43,0,0,1,2.17-1.1c1.31,0,2.35.78,2.35,2.68v3.88h-1.73V58.92c0-.61-.21-1.36-1.14-1.36s-1.33.53-1.33,1.68v3.52h-1.74V58.9c0-.67-.24-1.34-1.15-1.34s-1.33.7-1.33,1.71v3.49h-1.74Z"/><path class="cls-23" d="M250.67,61c0,.76,0,1.58.05,1.72h-1.66A5.16,5.16,0,0,1,249,62a2.45,2.45,0,0,1-2.32,1c-1.76,0-2.45-1.07-2.45-2.07,0-1.66,1.47-2.12,3.33-2.12H249v-.25c0-.57-.25-1.07-1.32-1.07s-1.21.4-1.3.83h-1.76c.06-.8.62-2,3-2,2.63,0,3.06,1.25,3.06,2.32ZM249,59.88h-1.37c-1.17,0-1.66.29-1.66.9s.38.88,1.21.88c1.29,0,1.82-.66,1.82-1.62Z"/><path class="cls-23" d="M255.76,58c0-.54,0-1.15,0-1.61h1.71c0,.19.05.62.06.93a2.56,2.56,0,0,1,4.67,1.53v3.92h-1.78V59.13c0-.84-.32-1.54-1.31-1.54s-1.57.77-1.57,2v3.15h-1.77Z"/><path class="cls-23" d="M267.26,58c0-.54,0-1.15,0-1.61H269c0,.19.05.62.06.93a2.56,2.56,0,0,1,4.67,1.53v3.92h-1.78V59.13c0-.84-.32-1.54-1.31-1.54s-1.57.77-1.57,2v3.15h-1.77Z"/><path class="cls-23" d="M97.89,72.11l-.87,2H96l2.9-6.74h1.16l3,6.74h-1l-.91-2Zm3-.81c-.83-1.86-1.21-2.75-1.37-3.2h0c-.14.44-.6,1.59-1.28,3.2Z"/><path class="cls-23" d="M111,72.65a2.24,2.24,0,0,1-2.35,1.63,2.36,2.36,0,0,1-2.53-2.52,2.45,2.45,0,0,1,2.54-2.55A2.14,2.14,0,0,1,111,70.88h-.9a1.4,1.4,0,0,0-1.44-.93,1.81,1.81,0,0,0,0,3.6,1.44,1.44,0,0,0,1.45-.9Z"/><path class="cls-23" d="M118.9,73c0,.47,0,1.08,0,1.19h-.86a4.23,4.23,0,0,1-.06-.7c-.25.5-.8.83-1.81.83-1.36,0-1.86-.82-1.86-1.54,0-1.23,1.12-1.57,2.49-1.57H118v-.25c0-.53-.23-1-1.25-1s-1.14.4-1.23.85h-.9c0-.64.48-1.54,2.13-1.54s2.13.86,2.13,1.65ZM118,71.81h-1.15c-1.1,0-1.62.24-1.62.89,0,.47.35.88,1.15.88A1.41,1.41,0,0,0,118,72Z"/><path class="cls-23" d="M127.56,67v5.74c0,.46,0,.93,0,1.39h-.88c0-.2,0-.49,0-.73a1.8,1.8,0,0,1-1.77.86,2.3,2.3,0,0,1-2.33-2.49A2.48,2.48,0,0,1,125,69.21a1.76,1.76,0,0,1,1.66.74V67Zm-4.07,4.75a1.62,1.62,0,0,0,1.59,1.76c1.14,0,1.61-.74,1.61-1.8S126.32,70,125.11,70A1.64,1.64,0,0,0,123.49,71.77Z"/><path class="cls-23" d="M132.12,72a1.59,1.59,0,0,0,1.64,1.6,1.48,1.48,0,0,0,1.43-.78h.9a2.31,2.31,0,0,1-2.37,1.5,2.54,2.54,0,0,1,0-5.07,2.33,2.33,0,0,1,2.47,2.51V72Zm3.1-.64a1.41,1.41,0,0,0-1.53-1.4,1.44,1.44,0,0,0-1.55,1.4Z"/><path class="cls-23" d="M139.81,70.59c0-.42,0-.83,0-1.24h.87c0,.19,0,.46,0,.72a1.69,1.69,0,0,1,1.55-.86,1.43,1.43,0,0,1,1.47.93,1.81,1.81,0,0,1,1.66-.93c.94,0,1.71.55,1.71,2v3h-.89V71.21c0-.55-.18-1.25-1-1.25s-1.26.52-1.26,1.56v2.63H143v-3c0-.58-.2-1.22-1-1.22s-1.25.71-1.25,1.63v2.56h-.9Z"/><path class="cls-23" d="M151.32,69.35c1,2.35,1.57,3.7,1.71,4.11h0c.17-.48.66-1.85,1.57-4.11h.94l-1.88,4.56c-.85,2.06-1.16,2.48-2.37,2.48a4.46,4.46,0,0,1-.63,0v-.8a3.79,3.79,0,0,0,.53,0c.65,0,.9-.27,1.34-1.21l-2.23-5Z"/><path class="cls-23" d="M164.51,74.15V70.06h-.9v-.71h.9V68.7c0-1.09.48-1.76,1.6-1.76a2,2,0,0,1,.56.06v.74a2,2,0,0,0-.42,0c-.65,0-.83.27-.83,1v.6h1.12v.71h-1.12v4.09Z"/><path class="cls-23" d="M174.56,71.75a2.56,2.56,0,0,1-5.12,0,2.56,2.56,0,0,1,5.12,0Zm-4.19,0A1.66,1.66,0,0,0,172,73.54a1.6,1.6,0,0,0,1.62-1.78A1.65,1.65,0,0,0,172,70,1.6,1.6,0,0,0,170.37,71.75Z"/><path class="cls-23" d="M178.21,70.65c0-.43,0-.87,0-1.3h.88c0,.14,0,.65,0,1.08a2,2,0,0,1,1.94-1.21v.86a1.83,1.83,0,0,0-1.94,2.07v2h-.91Z"/><path class="cls-23" d="M189.93,67.41h.95v2.72h4.06V67.41h.95v6.74h-.95V70.94h-4.06v3.21h-.95Z"/><path class="cls-23" d="M204.75,71.75a2.56,2.56,0,0,1-5.12,0,2.56,2.56,0,0,1,5.12,0Zm-4.19,0a1.66,1.66,0,0,0,1.64,1.79,1.6,1.6,0,0,0,1.62-1.78,1.65,1.65,0,0,0-1.65-1.8A1.6,1.6,0,0,0,200.56,71.75Z"/><path class="cls-23" d="M208.4,70.59c0-.42,0-.83,0-1.24h.87c0,.19,0,.46,0,.72a1.69,1.69,0,0,1,1.55-.86,1.45,1.45,0,0,1,1.48.93,1.78,1.78,0,0,1,1.65-.93c.94,0,1.72.55,1.72,2v3h-.9V71.21c0-.55-.18-1.25-1-1.25s-1.26.52-1.26,1.56v2.63h-.89v-3c0-.58-.2-1.22-1-1.22s-1.25.71-1.25,1.63v2.56h-.9Z"/><path class="cls-23" d="M220.25,72a1.59,1.59,0,0,0,1.64,1.6,1.45,1.45,0,0,0,1.42-.78h.91a2.32,2.32,0,0,1-2.38,1.5,2.38,2.38,0,0,1-2.5-2.52,2.41,2.41,0,0,1,2.48-2.55,2.34,2.34,0,0,1,2.47,2.51,2,2,0,0,1,0,.24Zm3.1-.64a1.41,1.41,0,0,0-1.54-1.4,1.45,1.45,0,0,0-1.55,1.4Z"/><path class="cls-23" d="M232.77,71.75a2.56,2.56,0,0,1-5.12,0,2.56,2.56,0,0,1,5.12,0Zm-4.2,0a1.66,1.66,0,0,0,1.64,1.79,1.6,1.6,0,0,0,1.63-1.78,1.66,1.66,0,0,0-1.65-1.8A1.61,1.61,0,0,0,228.57,71.75Z"/><path class="cls-23" d="M237.32,73.44v2.82h-.9V70.55c0-.4,0-.8,0-1.2h.88a7.69,7.69,0,0,1,0,.82,2,2,0,0,1,1.85-1,2.31,2.31,0,0,1,2.24,2.46A2.44,2.44,0,0,1,239,74.28,1.8,1.8,0,0,1,237.32,73.44Zm3.15-1.74A1.58,1.58,0,0,0,238.9,70c-1.12,0-1.61.79-1.61,1.8a1.55,1.55,0,0,0,1.59,1.75A1.62,1.62,0,0,0,240.47,71.7Z"/><path class="cls-23" d="M249.24,73c0,.47,0,1.08,0,1.19h-.86a4.23,4.23,0,0,1-.06-.7c-.25.5-.8.83-1.82.83-1.35,0-1.85-.82-1.85-1.54,0-1.23,1.11-1.57,2.49-1.57h1.17v-.25c0-.53-.23-1-1.25-1s-1.14.4-1.23.85H245c.06-.64.49-1.54,2.14-1.54s2.13.86,2.13,1.65Zm-.88-1.15h-1.15c-1.1,0-1.62.24-1.62.89,0,.47.35.88,1.15.88A1.42,1.42,0,0,0,248.36,72Z"/><path class="cls-23" d="M252.5,69.35h.95V67.8h.91v1.55h1.25v.71h-1.25v2.63c0,.55.14.79.66.79a1.87,1.87,0,0,0,.47,0v.67a2.42,2.42,0,0,1-.74.09c-1,0-1.3-.45-1.3-1.39V70.06h-.95Z"/><path class="cls-23" d="M260,67v3.19a1.81,1.81,0,0,1,1.78-1c1.1,0,1.82.68,1.82,2v2.9h-.91V71.39c0-.81-.29-1.42-1.19-1.42s-1.49.82-1.49,1.82v2.36h-.91V67Z"/><path class="cls-23" d="M267.82,69.35c1,2.35,1.58,3.7,1.72,4.11h0c.17-.48.66-1.85,1.58-4.11h.94l-1.88,4.56c-.86,2.06-1.17,2.48-2.37,2.48a4.34,4.34,0,0,1-.63,0v-.8a3.79,3.79,0,0,0,.53,0c.65,0,.9-.27,1.33-1.21l-2.22-5Z"/></svg>