<?xml version="1.0" encoding="utf-8"?>
<!-- Generator: Adobe Illustrator 24.2.1, SVG Export Plug-In . SVG Version: 6.00 Build 0)  -->
<svg version="1.1" id="Layer_1" xmlns="http://www.w3.org/2000/svg" xmlns:xlink="http://www.w3.org/1999/xlink" x="0px" y="0px"
	 viewBox="0 0 287 82" style="enable-background:new 0 0 287 82;" xml:space="preserve">
<style type="text/css">
	.st0{fill:#E86200;}
	.st1{fill:url(#SVGID_1_);}
	.st2{fill-rule:evenodd;clip-rule:evenodd;fill:#FFFFFF;}
	.st3{fill-rule:evenodd;clip-rule:evenodd;fill:url(#SVGID_2_);}
	.st4{fill-rule:evenodd;clip-rule:evenodd;fill:url(#SVGID_3_);}
	.st5{fill-rule:evenodd;clip-rule:evenodd;fill:url(#SVGID_4_);}
	.st6{fill-rule:evenodd;clip-rule:evenodd;fill:url(#SVGID_5_);}
	.st7{fill-rule:evenodd;clip-rule:evenodd;fill:url(#SVGID_6_);}
	.st8{fill-rule:evenodd;clip-rule:evenodd;fill:url(#SVGID_7_);}
	.st9{fill-rule:evenodd;clip-rule:evenodd;fill:url(#SVGID_8_);}
	.st10{fill-rule:evenodd;clip-rule:evenodd;fill:url(#SVGID_9_);}
	.st11{fill-rule:evenodd;clip-rule:evenodd;fill:url(#SVGID_10_);}
	.st12{fill-rule:evenodd;clip-rule:evenodd;fill:url(#SVGID_11_);}
	.st13{fill:url(#SVGID_12_);}
	.st14{fill-rule:evenodd;clip-rule:evenodd;fill:url(#SVGID_13_);}
	.st15{fill-rule:evenodd;clip-rule:evenodd;fill:url(#SVGID_14_);}
	.st16{fill-rule:evenodd;clip-rule:evenodd;fill:url(#SVGID_15_);}
	.st17{fill-rule:evenodd;clip-rule:evenodd;fill:url(#SVGID_16_);}
	.st18{fill-rule:evenodd;clip-rule:evenodd;fill:url(#SVGID_17_);}
	.st19{fill-rule:evenodd;clip-rule:evenodd;fill:url(#SVGID_18_);}
	.st20{fill-rule:evenodd;clip-rule:evenodd;fill:url(#SVGID_19_);}
	.st21{fill-rule:evenodd;clip-rule:evenodd;fill:#DBDBDB;}
	.st22{fill:#5C6474;}
	.st23{fill:url(#SVGID_20_);}
	.st24{fill-rule:evenodd;clip-rule:evenodd;fill:url(#SVGID_21_);}
	.st25{fill-rule:evenodd;clip-rule:evenodd;fill:url(#SVGID_22_);}
	.st26{fill-rule:evenodd;clip-rule:evenodd;fill:url(#SVGID_23_);}
	.st27{fill-rule:evenodd;clip-rule:evenodd;fill:url(#SVGID_24_);}
	.st28{fill-rule:evenodd;clip-rule:evenodd;fill:url(#SVGID_25_);}
	.st29{fill-rule:evenodd;clip-rule:evenodd;fill:url(#SVGID_26_);}
	.st30{fill-rule:evenodd;clip-rule:evenodd;fill:url(#SVGID_27_);}
	.st31{fill-rule:evenodd;clip-rule:evenodd;fill:url(#SVGID_28_);}
	.st32{fill-rule:evenodd;clip-rule:evenodd;fill:url(#SVGID_29_);}
	.st33{fill-rule:evenodd;clip-rule:evenodd;fill:url(#SVGID_30_);}
	.st34{fill:url(#SVGID_31_);}
	.st35{fill-rule:evenodd;clip-rule:evenodd;fill:url(#SVGID_32_);}
	.st36{fill-rule:evenodd;clip-rule:evenodd;fill:url(#SVGID_33_);}
	.st37{fill-rule:evenodd;clip-rule:evenodd;fill:url(#SVGID_34_);}
	.st38{fill-rule:evenodd;clip-rule:evenodd;fill:url(#SVGID_35_);}
	.st39{fill-rule:evenodd;clip-rule:evenodd;fill:url(#SVGID_36_);}
	.st40{fill-rule:evenodd;clip-rule:evenodd;fill:url(#SVGID_37_);}
	.st41{fill-rule:evenodd;clip-rule:evenodd;fill:url(#SVGID_38_);}
</style>
<g id="Logo">
	<path class="st0" d="M20.2,80.7c-6.9,0.1-12.7-5.4-12.8-12.3c0-0.5,0-1.1,0.1-1.6L11,26.6c0.6-5.5,4.1-10.3,9.2-12.6
		c1.9-0.8,3.9-1.3,5.9-1.3H63c6.9-0.1,12.6,5.4,12.7,12.4c0,0.5,0,1.1-0.1,1.6l-4.4,50.3c-0.1,1-0.5,1.8-1.2,2.5l0,0H70
		c-0.8,0.7-1.8,1.2-2.9,1.2L20.2,80.7z M26.1,13.7c-1.9,0-3.8,0.4-5.5,1.2c-4.7,2.1-8,6.6-8.6,11.7L8.4,66.9
		C7.7,73.3,12.3,79,18.7,79.7c0.5,0.1,1,0.1,1.5,0.1h46.9c0.8,0,1.6-0.4,2.2-0.9l0,0c0.5-0.5,0.9-1.2,0.9-2l4.4-50.3
		c0.7-6.4-3.9-12.1-10.3-12.8c-0.5-0.1-0.9-0.1-1.4-0.1L26.1,13.7z M69.4,78.8L69.4,78.8z"/>
	<path class="st0" d="M31.8,69c-6.9,0.1-12.7-5.4-12.8-12.3c0-0.5,0-1.1,0.1-1.6l3.5-40.2c0.8-7.7,7.3-13.7,15-13.8h36.9
		c6.9-0.1,12.6,5.4,12.8,12.3c0,0.5,0,1.1-0.1,1.6l0,0l-2.3,26.8l-2,23.5c0,0.1,0,0.2,0,0.3c-0.1,0.8-0.5,1.6-1.1,2.2l-0.1,0.1
		c-0.8,0.8-1.9,1.2-3,1.2H31.8z M37.7,2c-7.3,0.1-13.4,5.7-14.1,13l-3.5,40.1c-0.7,6.4,3.9,12.1,10.3,12.8c0.5,0.1,1,0.1,1.5,0.1
		h46.9c0.8,0,1.7-0.3,2.3-0.9l0,0c0.4-0.5,0.7-1,0.9-1.7c0-0.1,0-0.2,0-0.3l2-23.5l2.3-26.8C86.9,8.5,82.3,2.8,76,2.1
		C75.5,2,75,2,74.6,2H37.7z"/>
	
		<linearGradient id="SVGID_1_" gradientUnits="userSpaceOnUse" x1="25.7309" y1="15.0554" x2="69.0855" y2="67.2588" gradientTransform="matrix(1 0 0 -1 0 82)">
		<stop  offset="0" style="stop-color:#E84900"/>
		<stop  offset="0.3" style="stop-color:#E86200"/>
	</linearGradient>
	<path class="st1" d="M75.1,28.7l-3.5,39.8H33.6c-9.4,0-14.9-6.1-14-15.3l3.5-39.8h38.1C70.5,13,75.7,18.9,75.1,28.7z"/>
</g>
<path class="st2" d="M53,19.4c-4.5-0.2-7.8-0.1-11.5,2.4c-3,1.9-5.2,4.9-6,8.4c-0.5,1.4-0.5,3,0,4.4c0.3,1.1,0.9,2.1,1.8,2.2
	c-0.4,0.1-0.8,0.4-1,0.8c0.3-0.3,0.6-0.4,1-0.5c0,0-0.4,0.3-0.5,0.5c0.6-0.5,1.3-0.8,2-0.9c0,0-0.9,0.5-0.8,1.3
	c-0.9,0.3-1.6,0.8-2.1,1.6c-0.7,1-0.2,1-0.2,1.9s-0.5,1.3-0.4,2.8c0.1,1.3,0.4,2.6,1,3.8c0.6,1.5,1,3.1,1.1,4.7
	c0.1,0.9,0.2,1.7,0.4,2.5c0.4,1.5,1,3.3,1.4,4.2l1.8,1.3c-1.4-1.3-2.2-3.3-2-5.2c0.4,3,3,5.8,6.1,5.8c2.4,0,4.1-1.5,3-3
	c-0.8-1-2.2-1.3-3.4-0.7c-0.7,0.6-1.6,0.9-2.5,0.8c-0.6-1.3-0.6-2.8,0-4.1c2,1.6,3.3,1.2,5.1,0.1c0.6-0.3,1.4-0.1,1.8,0.4
	c-0.3,3.2,3,3.1,3,3.1c1-0.7,1.7-3,1.7-4.4c0-2,1.5-3.3,2.4-4.1c2.5-1.7,2.1-6.3,0.9-9.4c-0.1-0.2-0.1-0.3-0.2-0.4
	c-2-2.3-6.2-2-8.2-1.3c-0.9,0.3-1.3,1.1-1,2.4c0.3,1.3,0.9,2.5,1.7,3.5c-0.7-0.5-1.3-1.1-1.8-1.8c0.2,0.7,0.6,1.4,1.1,2
	c-0.6-0.3-1.2-0.8-1.6-1.4c0,0-1,1.2,0.5,2.5c0,0-0.9-0.1-1.5-1.6c-0.4,0.7-0.3,1.5,0.3,2c-0.4,0.1-0.9-0.1-1.1-0.5
	c0,0-0.1,1.2,0.5,1.5c0,0-1.1,0.3-1.4,0.9c0,0-0.9,0.5-1.2-0.6c0,0,1.2,1.2,1.2-0.3c0.2-1.3,0.4-2.6,0.8-3.9
	c0.4-1.6,0.6-3.2,1.5-4.6c-0.4-0.6-0.6-1.3-0.5-2c0.4,0.8,0.9,1.4,1.7,1.3c0.4-0.1,0.6-0.5,0.6-0.9c0.6,0.5,1.4,0.7,2.1,0.4
	c-0.3-0.3-0.4-0.4-1.1-0.6c0.9-0.1,1.8,0,2.6,0.4c-0.2-0.3-0.6-0.5-1.2-0.6c0.8-0.3,1.8,0,2.3,0.7c0-0.3-0.2-0.5-0.6-0.8
	c0.5,0.1,1,0.4,1.2,0.9c0-0.3-0.2-0.6-0.4-0.7c0.4,0.1,0.8,0.5,1,0.9l0.3,0.1c0.7-0.7,0.6-2.4,1.1-6.2c0.6-4.6,3.3-2.8,3.1-8.6
	C58.9,20.5,56.2,19.7,53,19.4L53,19.4z"/>
<linearGradient id="SVGID_2_" gradientUnits="userSpaceOnUse" x1="60.81" y1="-18.9084" x2="61.1" y2="-18.9084" gradientTransform="matrix(0.9973 7.358631e-02 7.358631e-02 -0.9973 -13.6241 25.1977)">
	<stop  offset="0" style="stop-color:#E84900"/>
	<stop  offset="0.3" style="stop-color:#E86200"/>
</linearGradient>
<path class="st3" d="M45.8,48.9h0.1l0,0c-0.1-0.1-0.1-0.3-0.1-0.5c0-0.1,0-0.2,0.1-0.2c-0.1,0-0.1,0.1-0.2,0.1
	C45.7,48.5,45.8,48.7,45.8,48.9L45.8,48.9z"/>
<linearGradient id="SVGID_3_" gradientUnits="userSpaceOnUse" x1="52.85" y1="-12.9643" x2="55.9183" y2="-12.9643" gradientTransform="matrix(0.9973 7.358631e-02 7.358631e-02 -0.9973 -13.6241 25.1977)">
	<stop  offset="0" style="stop-color:#E84900"/>
	<stop  offset="0.3" style="stop-color:#E86200"/>
</linearGradient>
<path class="st4" d="M38.5,42.4c0.5,0.5,1.4,0.6,2,0.1c0.4-0.2,0.7-0.6,0.8-1c-0.9,0.6-2.1,0.6-3.1,0C38.1,41.8,38.2,42.2,38.5,42.4
	L38.5,42.4z"/>
<linearGradient id="SVGID_4_" gradientUnits="userSpaceOnUse" x1="52.1289" y1="-11.4137" x2="57.392" y2="-11.4137" gradientTransform="matrix(0.9973 7.358631e-02 7.358631e-02 -0.9973 -13.6241 25.1977)">
	<stop  offset="0" style="stop-color:#E84900"/>
	<stop  offset="0.3" style="stop-color:#E86200"/>
</linearGradient>
<path class="st5" d="M39.2,40.1c-0.7,1.8,2.5,2.1,2.2,0l0.6,0.5c0,0.2,0.1,0.3,0.2,0.5c-0.1-0.1,0-0.3,0.1-0.4
	c0.7,0.1,0.5,0.5,0.5,0.5c0.3-0.5-0.5-0.7-0.5-0.7c-0.6-0.8-1.6-1.1-2.5-0.9c-1,0.2-1.9,1-2.2,2c0.1-0.2,0.4-0.2,0.6-0.2
	C38.1,40.7,38.6,40.2,39.2,40.1L39.2,40.1z"/>
<linearGradient id="SVGID_5_" gradientUnits="userSpaceOnUse" x1="51.2905" y1="-11.013" x2="57.3257" y2="-11.013" gradientTransform="matrix(0.9973 7.358631e-02 7.358631e-02 -0.9973 -13.6241 25.1977)">
	<stop  offset="0" style="stop-color:#E84900"/>
	<stop  offset="0.3" style="stop-color:#E86200"/>
</linearGradient>
<path class="st6" d="M40.2,39c0.9,0.1,1.7,0.5,2.3,1.2c0.1,0.2,0.4,0.1,0.2-0.2c-0.6-0.8-1.5-1.3-2.5-1.4c-1.6,0.1-3,1.1-3.6,2.6
	c-0.1,0.2,0.2,0.6,0.4,0.1C37.6,40.1,38.8,39.2,40.2,39z"/>
<linearGradient id="SVGID_6_" gradientUnits="userSpaceOnUse" x1="52.4757" y1="-9.3861" x2="58.9357" y2="-9.3861" gradientTransform="matrix(0.9973 7.358631e-02 7.358631e-02 -0.9973 -13.6241 25.1977)">
	<stop  offset="0" style="stop-color:#E84900"/>
	<stop  offset="0.3" style="stop-color:#E86200"/>
</linearGradient>
<path class="st7" d="M40.3,37.8c1.2,0.1,2.3,0.4,2.7,1.6c0.1,0.4,0.2,0.8,0.2,1.2c0.1-0.1,0.2-0.7,0.3-0.8c0.1,0.7,0.1,1.4,0.1,2.1
	c0.2-0.6,0.5-1.2,0.7-2.1c-0.6-0.3,0.2-3.3,0.4-3.7c-0.5,0.7-0.9,1.5-1.2,2.3c-0.2-1.5-5-2-5.4-0.4C38.8,37.7,39.5,37.7,40.3,37.8z"
	/>
<linearGradient id="SVGID_7_" gradientUnits="userSpaceOnUse" x1="51.5881" y1="-6.9976" x2="56.7381" y2="-6.9976" gradientTransform="matrix(0.9973 7.358631e-02 7.358631e-02 -0.9973 -13.6241 25.1977)">
	<stop  offset="0" style="stop-color:#E84900"/>
	<stop  offset="0.3" style="stop-color:#E86200"/>
</linearGradient>
<path class="st8" d="M42.4,36.9c-2-1.1-3.3-0.5-3.9-0.6c-0.5-0.1-0.9-0.4-1.1-0.8c0.3,1.2,1.2,1.2,2,1.1
	C40.4,36.5,41.4,36.6,42.4,36.9L42.4,36.9z"/>
<linearGradient id="SVGID_8_" gradientUnits="userSpaceOnUse" x1="53.35" y1="-3.2107" x2="64.83" y2="-3.2107" gradientTransform="matrix(0.9973 7.358631e-02 7.358631e-02 -0.9973 -13.6241 25.1977)">
	<stop  offset="0" style="stop-color:#E84900"/>
	<stop  offset="0.3" style="stop-color:#E86200"/>
</linearGradient>
<path class="st9" d="M43.2,33c1.3,0.9,2.2,1,3.9,0.2c2.4-1.2,3-0.9,3.7-0.8c-1.1-0.5-2.3-0.4-3.3,0.1c-1.2,0.7-2.7,0.7-4,0.1
	c-1.3-0.7-2.7-1.1-4.1-1.1C40.8,31.6,42.1,32.2,43.2,33z"/>
<linearGradient id="SVGID_9_" gradientUnits="userSpaceOnUse" x1="54.5508" y1="-18.9105" x2="62.7908" y2="-18.9105" gradientTransform="matrix(0.9973 7.358631e-02 7.358631e-02 -0.9973 -13.6241 25.1977)">
	<stop  offset="0" style="stop-color:#E84900"/>
	<stop  offset="0.3" style="stop-color:#E86200"/>
</linearGradient>
<path class="st10" d="M39.9,50.8c-1.3,2.2-0.7,3.6-0.7,3.6c0.1-1.7,0.9-3.3,2-4.5c0.3-0.3,0.4-1.6,0.4-1.9c0,1,1.2,1.1,1.2,1.1
	c-0.5-0.4-0.4-0.8-0.4-0.8c0.5,0.5,1.1,1,1.7,1.4c1,0.5,2.2,0.3,3-0.5c0-0.2-0.5-0.6-0.5-0.6s0.6,0,0.7,0.3c0.5,0.1,0.6-0.5,0.3-0.8
	c-0.3-0.3-0.6-0.5-1-0.5c-0.8-0.2-1.7,0.2-2.1,0.9c0.8,0.2,0.5,1.1-0.3,0.8c-0.5-0.2-0.9-0.6-1.1-1.1c0-0.7-0.3-1.1-0.6-1.1
	s-0.7,0.8-0.7,0.8c0.1-0.8,0.3-1.5,0.8-2.2l0.9-3.7l-1.7,2.9l1.2-1.6l-0.7,2.4c-0.6,0.7-1,1.5-1,2.4C41.1,49.1,41.2,48.6,39.9,50.8
	L39.9,50.8z"/>
<linearGradient id="SVGID_10_" gradientUnits="userSpaceOnUse" x1="55.89" y1="-25.0151" x2="55.95" y2="-25.0151" gradientTransform="matrix(0.9973 7.358631e-02 7.358631e-02 -0.9973 -13.6241 25.1977)">
	<stop  offset="0" style="stop-color:#E84900"/>
	<stop  offset="0.3" style="stop-color:#E86200"/>
</linearGradient>
<path class="st11" d="M40.3,54.2C40.3,54.2,40.3,54.3,40.3,54.2L40.3,54.2z"/>
<linearGradient id="SVGID_11_" gradientUnits="userSpaceOnUse" x1="55.95" y1="-22.8853" x2="65.6249" y2="-22.8853" gradientTransform="matrix(0.9973 7.358631e-02 7.358631e-02 -0.9973 -13.6241 25.1977)">
	<stop  offset="0" style="stop-color:#E84900"/>
	<stop  offset="0.3" style="stop-color:#E86200"/>
</linearGradient>
<path class="st12" d="M43.2,52.7c-0.1,0-0.3,0-0.4,0.1c0,0-0.7,0.8-1.2,0.3s-0.9-0.3-1,0.2c0,0.3-0.2,0.7-0.3,0.9
	c0.3-0.3,0.8-0.5,1.2-0.5c1.8,0,2.1,0.8,2.1,0.8c0.7-0.5,1.6-0.8,2.5-0.9h2.8c0.2,0,0.4-0.1,0.5-0.2c0.5-0.1,0.7-0.6,0.6-1.1
	c0,0,0-0.1-0.1-0.1c-0.2-0.5-0.9-0.3-1.2,0.2s-0.5,0.9-1,1h-0.4c-0.8-0.1-1-0.5-1.5-0.7v-2.5l-0.3,2.3h-0.2c-0.6,0-1.1,0.2-1.5,0.6
	c-0.1-0.2-0.3-0.4-0.5-0.5l-0.4-2.5L43.2,52.7L43.2,52.7z"/>
<linearGradient id="SVGID_12_" gradientUnits="userSpaceOnUse" x1="55.0982" y1="-1.586" x2="62.5315" y2="-1.586" gradientTransform="matrix(0.9973 7.358631e-02 7.358631e-02 -0.9973 -13.6241 25.1977)">
	<stop  offset="0" style="stop-color:#E84900"/>
	<stop  offset="0.3" style="stop-color:#E86200"/>
</linearGradient>
<path class="st13" d="M44.8,31.1c-1.3-0.1-2.4-0.7-3.6-0.7c1.8,0.3,2.4,1.1,3.6,1.1s2.5-0.6,3.8-0.6C47.3,30.7,46,31.2,44.8,31.1z"
	/>
<linearGradient id="SVGID_13_" gradientUnits="userSpaceOnUse" x1="62.935" y1="-10.5297" x2="69.6745" y2="-10.5297" gradientTransform="matrix(0.9973 7.358631e-02 7.358631e-02 -0.9973 -13.6241 25.1977)">
	<stop  offset="0" style="stop-color:#E84900"/>
	<stop  offset="0.3" style="stop-color:#E86200"/>
</linearGradient>
<path class="st14" d="M49.4,40.5c-1-0.1-0.5,1.5,0.1,0.6c-0.7,0.3-0.8-0.7,0-0.4c0.1-0.7,0.8-1.1,1.5-1c-0.6,1.3,0.3,1.9,0.9,1.9
	c0.7,0,1.2-0.4,1.5-1l0.3,0.3c0,0-0.4,0.8-1.9,0.8c0,0,1.4,0.3,2-0.5H54c-0.4,0.7-1.7,1.4-3.9,0.5c0.8,0.8,2.4,1.8,4.5,0.2l-0.5-0.6
	c0.4,0.1,0.7,0.3,0.9,0.6c-0.4-3.4-5-5.1-6.6-2.2c-0.2,0.3,0.2,0.6,0.4,0.1c0.3-0.7,1-1.2,1.8-1.3c0.9-0.1,1.8,0.1,2.5,0.7
	c0.4,0.4,0.1,0.7-0.4,0.3C51.4,38.7,49.4,39.6,49.4,40.5L49.4,40.5z"/>
<linearGradient id="SVGID_14_" gradientUnits="userSpaceOnUse" x1="67.8813" y1="-9.9" x2="70.6313" y2="-9.9" gradientTransform="matrix(0.9973 7.358631e-02 7.358631e-02 -0.9973 -13.6241 25.1977)">
	<stop  offset="0" style="stop-color:#E84900"/>
	<stop  offset="0.3" style="stop-color:#E86200"/>
</linearGradient>
<path class="st15" d="M55.9,41.1c-0.4-1.2-1.3-2.1-2.4-2.5c-0.2,0.3,1,0.9,1.8,2.7C55.6,41.9,56.3,42,55.9,41.1z"/>
<linearGradient id="SVGID_15_" gradientUnits="userSpaceOnUse" x1="62.41" y1="-20.2365" x2="67.67" y2="-20.2365" gradientTransform="matrix(0.9973 7.358631e-02 7.358631e-02 -0.9973 -13.6241 25.1977)">
	<stop  offset="0" style="stop-color:#E84900"/>
	<stop  offset="0.3" style="stop-color:#E86200"/>
</linearGradient>
<path class="st16" d="M47.8,49.1c-0.8,0.1-0.6,0.9,0,1c0.7,0,1.3-0.5,1.5-1.1c0.1,0.2,0.1,0.3,0.3,0.4c1.3,1.3,2.1,3,2.5,4.7
	c0,0,0.4-1.4-1.2-3.7c-0.9-1.4-1.3-1.8-1.5-2c0-0.2,0-0.4,0-0.6c-0.3-0.9-1.1-1.6-2-1.7C49.7,48.2,47.8,49.2,47.8,49.1L47.8,49.1z"
	/>
<linearGradient id="SVGID_16_" gradientUnits="userSpaceOnUse" x1="51.28" y1="-7.5031" x2="52.6" y2="-7.5031" gradientTransform="matrix(0.9973 7.358631e-02 7.358631e-02 -0.9973 -13.6241 25.1977)">
	<stop  offset="0" style="stop-color:#E84900"/>
	<stop  offset="0.3" style="stop-color:#E86200"/>
</linearGradient>
<path class="st17" d="M37.8,36.9c0.1-0.2,0.3-0.3,0.5-0.3c-0.5,0-0.9-0.2-1.3-0.5C37.1,36.5,37.4,36.8,37.8,36.9L37.8,36.9z"/>
<linearGradient id="SVGID_17_" gradientUnits="userSpaceOnUse" x1="67.78" y1="-23.8451" x2="68.68" y2="-23.8451" gradientTransform="matrix(0.9973 7.358631e-02 7.358631e-02 -0.9973 -13.6241 25.1977)">
	<stop  offset="0" style="stop-color:#E84900"/>
	<stop  offset="0.3" style="stop-color:#E86200"/>
</linearGradient>
<path class="st18" d="M52.5,55.6c0,0,1.5-2-0.2-3.2C52.8,53.4,52.8,54.5,52.5,55.6z"/>
<linearGradient id="SVGID_18_" gradientUnits="userSpaceOnUse" x1="49.3" y1="-8.3803" x2="50.49" y2="-8.3803" gradientTransform="matrix(0.9973 7.358631e-02 7.358631e-02 -0.9973 -13.6241 25.1977)">
	<stop  offset="0" style="stop-color:#E84900"/>
	<stop  offset="0.3" style="stop-color:#E86200"/>
</linearGradient>
<path class="st19" d="M35,36.4c0.1,0.1,0.2,0.3,0.2,0.4c0,0.1,0,0.2,0,0.3c0,0.1,0,0.2,0,0.2c-0.1,0.2-0.1,0.5,0,0.7
	c0,0.1,0,0.2,0,0.3c0.1,0.1,0.1,0.2,0.1,0.3c0,0.1,0,0.2,0,0.3l0,0c0.2-0.3,0.5-0.6,0.8-0.9c-0.1,0-0.1,0-0.2-0.1
	c-0.3-0.2-0.4-0.6-0.3-0.9c0.1-0.2,0.2-0.3,0.3-0.5c-0.4-0.4-0.6-0.9-0.8-1.4V36C35.1,36.2,35,36.3,35,36.4L35,36.4z"/>
<linearGradient id="SVGID_19_" gradientUnits="userSpaceOnUse" x1="60.76" y1="-11.8519" x2="61.8" y2="-11.8519" gradientTransform="matrix(0.9973 7.358631e-02 7.358631e-02 -0.9973 -13.6241 25.1977)">
	<stop  offset="0" style="stop-color:#E84900"/>
	<stop  offset="0.3" style="stop-color:#E86200"/>
</linearGradient>
<path class="st20" d="M46.8,39.9c-0.4,1-0.5,2.1-0.8,3.1l0,0h0.1c0.1-0.3,0.2-0.5,0.4-0.7c0.1-0.1,0.2-0.2,0.3-0.2
	c0-0.2,0.1-0.4,0.3-0.5c-0.1-0.3-0.2-0.6-0.2-0.9l0,0C46.8,40.5,46.8,40.2,46.8,39.9z"/>
<path class="st21" d="M39.5,39.8c-0.2,0.4-0.1,0.9,0.3,1.1c0.1,0.1,0.3,0.1,0.5,0.1l0.2-0.2H41c0-0.1,0-0.3,0.1-0.4l0.2-0.1
	c-0.1-0.1-0.2-0.3-0.3-0.4c0,1.2-1.5,0.5-0.8-0.2C40.2,39.6,39.5,39.8,39.5,39.8L39.5,39.8z"/>
<path class="st21" d="M51.8,40.8l0.2,0.4c1.1,0,0.9-0.9,0.9-0.9c-0.4,0.9-1.5,0.2-0.9-0.5h-0.6c-0.2,0.3-0.2,0.7-0.1,1l0.3-0.2v0.5
	L51.8,40.8L51.8,40.8z"/>
<path class="st22" d="M102.1,36.7c1.4,4.5,4.7,7.6,12.2,7.6s10.4-2.9,10.4-6.5c0-3.8-2.1-6.1-12-7.7c-11.5-1.9-14.2-5.5-14.2-10.8
	c0-6.7,6.4-10.6,14.7-10.6c12.4,0,15.4,6.5,15.8,10.4h-5.5c-0.8-2.6-2.4-6-10.4-6c-5.5,0-9,1.9-9,5.7c0,3.1,1.6,5.1,10.2,6.5
	c13.8,2.4,16,6.6,16,11.9c0,6.1-4.8,11.3-16.3,11.3c-10.7,0-16.1-4.9-17.3-11.9L102.1,36.7z"/>
<path class="st22" d="M144.1,9.6h5.4V25h23V9.6h5.4v38.2h-5.4V29.6h-23v18.2h-5.4V9.6z"/>
<path class="st22" d="M199.9,36.2L195,47.8h-5.6l16.4-38.2h6.6l17.1,38.2h-5.9l-5.1-11.6H199.9z M216.6,31.6
	c-4.7-10.5-6.9-15.5-7.8-18.1l0,0c-0.8,2.5-3.4,9-7.2,18.1H216.6z"/>
<path class="st22" d="M241,9.6h5.4V25h23V9.6h5.4v38.2h-5.4V29.6h-23v18.2H241V9.6z"/>
<path class="st22" d="M97.1,60.2c0.3,0.8,0.9,1.4,2.5,1.4s2-0.5,2-1.2s-0.4-1.1-2.4-1.4c-2.9-0.5-3.5-1.4-3.5-2.6
	c0-1.7,1.6-2.6,3.6-2.6c3,0,3.7,1.5,3.8,2.5h-1.8c-0.1-0.5-0.5-1.1-2-1.1c-1.1,0-1.7,0.4-1.7,1s0.4,0.9,2.1,1.2
	c3.3,0.6,3.8,1.6,3.8,2.8c0,1.5-1.2,2.7-4,2.7c-2.7,0-3.9-1.2-4.2-2.8L97.1,60.2z"/>
<path class="st22" d="M114.3,61c0,0.8,0,1.6,0.1,1.7h-1.7c0-0.3-0.1-0.5-0.1-0.8c-0.5,0.7-1.4,1.1-2.3,1c-1.8,0-2.4-1.1-2.4-2.1
	c0-1.7,1.5-2.1,3.3-2.1h1.4v-0.2c0-0.6-0.2-1.1-1.3-1.1s-1.2,0.4-1.3,0.8h-1.8c0.1-0.8,0.6-2,3-2c2.6,0,3.1,1.2,3.1,2.3L114.3,61z
	 M112.6,59.8h-1.4c-1.2,0-1.7,0.3-1.7,0.9s0.4,0.9,1.2,0.9c1.3,0,1.8-0.7,1.8-1.6L112.6,59.8z"/>
<path class="st22" d="M119.4,58c0-0.5,0-1.1,0-1.6h1.7c0,0.3,0.1,0.5,0.1,0.8c0.4-0.7,1.2-1,2-1c0.8-0.1,1.6,0.4,1.9,1.1
	c0.5-0.7,1.3-1.1,2.2-1.1c1.3,0,2.3,0.8,2.3,2.7v3.9h-1.7v-3.8c0-0.6-0.2-1.4-1.1-1.4s-1.3,0.5-1.3,1.7v3.5h-1.7v-3.9
	c0-0.7-0.2-1.3-1.2-1.3s-1.3,0.7-1.3,1.7v3.5h-1.7L119.4,58z"/>
<path class="st22" d="M141,60.9c0,0.6,0,1.2,0,1.9h-1.7c0-0.2,0-0.5,0-0.8c-0.3,0.6-0.8,1-2.2,1s-2.4-0.8-2.4-2.6v-3.9h1.8V60
	c0,0.9,0.3,1.5,1.3,1.5c1.1,0,1.5-0.7,1.5-2.2v-2.9h1.7V60.9z"/>
<path class="st22" d="M147.3,60c0,0.9,0.8,1.6,1.7,1.6c0,0,0,0,0.1,0c0.6,0.1,1.2-0.2,1.5-0.8h1.8c-0.8,1.8-2.9,2.6-4.7,1.8
	c-1.2-0.5-2-1.7-2.1-3c-0.1-1.8,1.3-3.3,3.1-3.4c0.1,0,0.2,0,0.3,0c1.8-0.1,3.3,1.2,3.4,2.9c0,0.1,0,0.3,0,0.4c0,0.2,0,0.2,0,0.4
	H147.3z M150.7,58.9c0-0.8-0.7-1.4-1.5-1.4c-0.1,0-0.1,0-0.2,0c-0.8-0.1-1.6,0.5-1.7,1.3c0,0,0,0.1,0,0.1L150.7,58.9z"/>
<path class="st22" d="M157.1,62.8v-9.3h1.8v9.3L157.1,62.8z"/>
<path class="st22" d="M170.9,54h1.8v3.4h4.4V54h1.8v8.8h-1.8v-3.9h-4.4v3.9h-1.8V54z"/>
<path class="st22" d="M190.3,61c0,0.8,0,1.6,0,1.7h-1.7c0-0.3-0.1-0.5-0.1-0.8c-0.5,0.7-1.4,1.1-2.3,1c-1.8,0-2.5-1.1-2.5-2.1
	c0-1.7,1.5-2.1,3.3-2.1h1.4v-0.2c0-0.6-0.2-1.1-1.3-1.1s-1.2,0.4-1.3,0.8h-1.8c0.1-0.8,0.6-2,3-2c2.6,0,3.1,1.2,3.1,2.3L190.3,61z
	 M188.6,59.8h-1.4c-1.2,0-1.7,0.3-1.7,0.9s0.4,0.9,1.2,0.9c1.3,0,1.8-0.7,1.8-1.6V59.8z"/>
<path class="st22" d="M197.1,53.5v3.8c0.5-0.7,1.3-1.2,2.2-1.1c1.5,0,2.5,0.9,2.5,2.7v3.8H200v-3.6c0-0.9-0.3-1.5-1.3-1.5
	s-1.6,0.8-1.6,2.1v3.1h-1.8v-9.3H197.1z"/>
<path class="st22" d="M206.9,58c0-0.5,0-1.2,0-1.6h1.7c0,0.2,0,0.6,0.1,0.9c0.8-1.2,2.4-1.5,3.6-0.7c0.7,0.5,1.1,1.3,1.1,2.2v3.9
	h-1.8v-3.6c0-0.8-0.3-1.5-1.3-1.5s-1.6,0.8-1.6,2v3.2h-1.8L206.9,58z"/>
<path class="st22" d="M219.7,60c0,0.9,0.8,1.6,1.7,1.6c0,0,0,0,0.1,0c0.6,0.1,1.2-0.2,1.5-0.8h1.8c-0.5,1.4-1.9,2.2-3.3,2.1
	c-1.8,0.1-3.3-1.2-3.4-2.9c0-0.1,0-0.3,0-0.4c-0.1-1.8,1.3-3.3,3.1-3.4c0.1,0,0.2,0,0.3,0c1.7-0.1,3.3,1.2,3.4,2.9
	c0,0.2,0,0.3,0,0.5V60H219.7z M223,58.9c0-0.8-0.7-1.4-1.5-1.4c-0.1,0-0.1,0-0.2,0c-0.8-0.1-1.6,0.5-1.7,1.3c0,0,0,0.1,0,0.1H223z"
	/>
<path class="st22" d="M229.4,58c0-0.5,0-1.1,0-1.6h1.7c0,0.2,0,0.5,0,0.8c0.4-0.7,1.2-1,2-1c0.8-0.1,1.6,0.4,1.9,1.1
	c0.5-0.7,1.3-1.1,2.2-1.1c1.3,0,2.4,0.8,2.4,2.7v3.9h-1.7v-3.8c0-0.6-0.2-1.4-1.1-1.4s-1.3,0.5-1.3,1.7v3.5h-1.7v-3.9
	c0-0.7-0.2-1.3-1.1-1.3s-1.3,0.7-1.3,1.7v3.5h-1.7L229.4,58z"/>
<path class="st22" d="M250.7,61c0,0.8,0,1.6,0.1,1.7h-1.7c0-0.2-0.1-0.5-0.1-0.7c-0.5,0.7-1.4,1.1-2.3,1c-1.8,0-2.4-1.1-2.4-2.1
	c0-1.7,1.5-2.1,3.3-2.1h1.4v-0.2c0-0.6-0.2-1.1-1.3-1.1s-1.2,0.4-1.3,0.8h-1.8c0.1-0.8,0.6-2,3-2c2.6,0,3.1,1.2,3.1,2.3L250.7,61z
	 M249,59.9h-1.4c-1.2,0-1.7,0.3-1.7,0.9s0.4,0.9,1.2,0.9c1.3,0,1.8-0.7,1.8-1.6L249,59.9z"/>
<path class="st22" d="M255.8,58c0-0.5,0-1.2,0-1.6h1.7c0,0.2,0,0.6,0.1,0.9c0.8-1.2,2.4-1.5,3.6-0.7c0.7,0.5,1.1,1.3,1.1,2.2v3.9
	h-1.8v-3.6c0-0.8-0.3-1.5-1.3-1.5s-1.6,0.8-1.6,2v3.2h-1.8L255.8,58z"/>
<path class="st22" d="M267.3,58c0-0.5,0-1.2,0-1.6h1.7c0,0.2,0,0.6,0.1,0.9c0.8-1.2,2.4-1.5,3.6-0.7c0.7,0.5,1.1,1.3,1.1,2.2v3.9
	H272v-3.6c0-0.8-0.3-1.5-1.3-1.5s-1.6,0.8-1.6,2v3.2h-1.8L267.3,58z"/>
<path class="st22" d="M97.9,72.1l-0.9,2h-1l2.9-6.7h1.2l3,6.7h-1l-0.9-2H97.9z M100.9,71.3c-0.8-1.9-1.2-2.8-1.4-3.2l0,0
	c-0.1,0.4-0.6,1.6-1.3,3.2H100.9z"/>
<path class="st22" d="M111,72.7c-0.3,1-1.3,1.7-2.3,1.6c-1.3,0.1-2.4-0.9-2.5-2.2c0-0.1,0-0.2,0-0.3c-0.1-1.4,1-2.5,2.3-2.5
	c0.1,0,0.1,0,0.2,0c1.1-0.1,2.1,0.6,2.3,1.7h-0.9c-0.2-0.6-0.8-1-1.4-0.9c-1,0.1-1.7,1-1.6,2c0.1,0.8,0.8,1.5,1.6,1.6
	c0.6,0,1.2-0.3,1.4-0.9L111,72.7z"/>
<path class="st22" d="M118.9,73c0,0.5,0,1.1,0,1.2H118c0-0.2-0.1-0.5-0.1-0.7c-0.2,0.5-0.8,0.8-1.8,0.8c-1.4,0-1.9-0.8-1.9-1.5
	c0-1.2,1.1-1.6,2.5-1.6h1.2V71c0-0.5-0.2-1-1.2-1s-1.1,0.4-1.2,0.8h-0.9c0-0.6,0.5-1.5,2.1-1.5s2.1,0.9,2.1,1.7L118.9,73z M118,71.8
	h-1.2c-1.1,0-1.6,0.2-1.6,0.9c0,0.5,0.3,0.9,1.2,0.9c0.8,0.1,1.5-0.4,1.6-1.2c0-0.1,0-0.3,0-0.4V71.8z"/>
<path class="st22" d="M127.6,67v5.7c0,0.5,0,0.9,0,1.4h-0.9c0-0.2,0-0.5,0-0.7c-0.4,0.6-1.1,0.9-1.8,0.9c-1.3,0-2.3-1-2.3-2.3
	c0-0.1,0-0.2,0-0.2c0-1.4,1-2.5,2.4-2.6c0,0,0,0,0,0c0.6-0.1,1.3,0.2,1.7,0.7V67H127.6z M123.5,71.8c-0.1,0.9,0.6,1.7,1.5,1.8
	c0,0,0.1,0,0.1,0c1.1,0,1.6-0.7,1.6-1.8s-0.4-1.7-1.6-1.7C124.2,70,123.5,70.7,123.5,71.8C123.5,71.7,123.5,71.7,123.5,71.8
	L123.5,71.8z"/>
<path class="st22" d="M132.1,72c0,0.9,0.7,1.6,1.6,1.6c0,0,0,0,0.1,0c0.6,0,1.2-0.3,1.4-0.8h0.9c-0.4,1-1.3,1.6-2.4,1.5
	c-1.4-0.1-2.5-1.3-2.4-2.7c0.1-1.3,1.1-2.3,2.4-2.4c1.3-0.1,2.4,0.9,2.5,2.2c0,0.1,0,0.2,0,0.3V72H132.1z M135.2,71.4
	c0-0.8-0.6-1.4-1.4-1.4c0,0-0.1,0-0.1,0c-0.8-0.1-1.5,0.5-1.5,1.3c0,0,0,0,0,0.1H135.2z"/>
<path class="st22" d="M139.8,70.6c0-0.4,0-0.8,0-1.2h0.9c0,0.2,0,0.5,0,0.7c0.3-0.6,0.9-0.9,1.6-0.9c0.6-0.1,1.2,0.3,1.5,0.9
	c0.3-0.6,1-1,1.7-0.9c0.9,0,1.7,0.6,1.7,2v3h-0.9v-3c0-0.6-0.2-1.2-1-1.2s-1.3,0.5-1.3,1.6v2.6H143v-3c0-0.6-0.2-1.2-1-1.2
	s-1.2,0.7-1.2,1.6v2.6h-0.9L139.8,70.6z"/>
<path class="st22" d="M151.3,69.3c1,2.3,1.6,3.7,1.7,4.1l0,0c0.2-0.5,0.7-1.8,1.6-4.1h0.9l-1.9,4.6c-0.9,2.1-1.2,2.5-2.4,2.5
	c-0.2,0-0.4,0-0.6,0v-0.8c0.2,0,0.4,0,0.5,0c0.6,0,0.9-0.3,1.3-1.2l-2.2-5L151.3,69.3z"/>
<path class="st22" d="M164.5,74.2v-4.1h-0.9v-0.7h0.9v-0.7c0-1.1,0.5-1.8,1.6-1.8c0.2,0,0.4,0,0.6,0.1v0.7c-0.1,0-0.3,0-0.4,0
	c-0.6,0-0.8,0.3-0.8,1v0.6h1.1V70h-1.1v4.1L164.5,74.2z"/>
<path class="st22" d="M174.6,71.8c0,1.4-1.1,2.6-2.6,2.6c-1.4,0-2.6-1.1-2.6-2.6c0-1.4,1.1-2.6,2.6-2.6
	C173.4,69.2,174.6,70.3,174.6,71.8z M170.4,71.8c-0.1,0.9,0.6,1.7,1.5,1.8c0,0,0.1,0,0.1,0c0.9,0,1.6-0.7,1.6-1.6c0-0.1,0-0.1,0-0.2
	c0.1-0.9-0.6-1.7-1.5-1.8c0,0-0.1,0-0.1,0c-0.9,0-1.6,0.7-1.6,1.6C170.4,71.6,170.4,71.7,170.4,71.8z"/>
<path class="st22" d="M178.2,70.7c0-0.4,0-0.9,0-1.3h0.9c0,0.1,0,0.7,0,1.1c0.3-0.8,1.1-1.3,1.9-1.2v0.9c-1-0.1-1.9,0.7-2,1.7
	c0,0.1,0,0.2,0,0.4v2h-0.9L178.2,70.7z"/>
<path class="st22" d="M189.9,67.4h0.9v2.7h4.1v-2.7h0.9v6.7h-0.9v-3.2h-4.1v3.2h-0.9V67.4z"/>
<path class="st22" d="M204.8,71.8c0,1.4-1.1,2.6-2.6,2.6c-1.4,0-2.6-1.1-2.6-2.6c0-1.4,1.1-2.6,2.6-2.6
	C203.6,69.2,204.7,70.3,204.8,71.8z M200.6,71.8c-0.1,0.9,0.6,1.7,1.5,1.8c0,0,0.1,0,0.1,0c0.9,0,1.6-0.7,1.6-1.6c0-0.1,0-0.1,0-0.2
	c0.1-0.9-0.6-1.7-1.5-1.8c-0.1,0-0.1,0-0.2,0c-0.9,0-1.6,0.7-1.6,1.6C200.5,71.6,200.6,71.7,200.6,71.8z"/>
<path class="st22" d="M208.4,70.6c0-0.4,0-0.8,0-1.2h0.9c0,0.2,0,0.5,0,0.7c0.3-0.6,0.9-0.9,1.6-0.9c0.6-0.1,1.2,0.3,1.5,0.9
	c0.3-0.6,1-1,1.6-0.9c0.9,0,1.7,0.6,1.7,2v3h-0.9v-3c0-0.6-0.2-1.2-1-1.2s-1.3,0.5-1.3,1.6v2.6h-0.9v-3c0-0.6-0.2-1.2-1-1.2
	s-1.2,0.7-1.2,1.6v2.6h-0.9L208.4,70.6z"/>
<path class="st22" d="M220.2,72c0,0.9,0.7,1.6,1.6,1.6c0,0,0,0,0.1,0c0.6,0.1,1.1-0.3,1.4-0.8h0.9c-0.4,1-1.3,1.6-2.4,1.5
	c-1.3,0.1-2.4-0.9-2.5-2.3c0-0.1,0-0.2,0-0.3c-0.1-1.3,0.9-2.5,2.3-2.5c0.1,0,0.1,0,0.2,0c1.3-0.1,2.4,0.9,2.5,2.2
	c0,0.1,0,0.2,0,0.3c0,0.1,0,0.2,0,0.2H220.2z M223.4,71.4c0-0.8-0.6-1.4-1.4-1.4c0,0-0.1,0-0.1,0c-0.8-0.1-1.5,0.5-1.5,1.3
	c0,0,0,0,0,0.1H223.4z"/>
<path class="st22" d="M232.8,71.8c0,1.4-1.1,2.6-2.6,2.6c-1.4,0-2.6-1.1-2.6-2.6c0-1.4,1.1-2.6,2.6-2.6
	C231.6,69.2,232.8,70.3,232.8,71.8z M228.6,71.8c-0.1,0.9,0.6,1.7,1.5,1.8c0,0,0.1,0,0.1,0c0.9,0,1.6-0.7,1.6-1.6c0-0.1,0-0.1,0-0.2
	c0.1-0.9-0.6-1.7-1.5-1.8c0,0-0.1,0-0.1,0c-0.9,0-1.6,0.7-1.6,1.6C228.6,71.6,228.6,71.7,228.6,71.8z"/>
<path class="st22" d="M237.3,73.4v2.8h-0.9v-5.7c0-0.4,0-0.8,0-1.2h0.9c0,0.3,0,0.5,0,0.8c0.4-0.7,1.1-1,1.9-1
	c1.3,0,2.3,1.1,2.2,2.4c0,0,0,0.1,0,0.1c0.1,1.3-0.9,2.5-2.2,2.6c-0.1,0-0.1,0-0.2,0C238.3,74.3,237.7,74,237.3,73.4z M240.5,71.7
	c0.1-0.9-0.6-1.6-1.5-1.7c0,0-0.1,0-0.1,0c-1.1,0-1.6,0.8-1.6,1.8c-0.1,0.8,0.5,1.6,1.3,1.7c0.1,0,0.2,0,0.3,0
	c0.9,0,1.6-0.7,1.6-1.6C240.5,71.8,240.5,71.8,240.5,71.7z"/>
<path class="st22" d="M249.2,73c0,0.5,0,1.1,0,1.2h-0.9c0-0.2-0.1-0.5-0.1-0.7c-0.2,0.5-0.8,0.8-1.8,0.8c-1.4,0-1.9-0.8-1.9-1.5
	c0-1.2,1.1-1.6,2.5-1.6h1.2V71c0-0.5-0.2-1-1.2-1s-1.1,0.4-1.2,0.8H245c0.1-0.6,0.5-1.5,2.1-1.5s2.1,0.9,2.1,1.7L249.2,73z
	 M248.4,71.8h-1.1c-1.1,0-1.6,0.2-1.6,0.9c0,0.5,0.4,0.9,1.1,0.9c0.8,0.1,1.5-0.4,1.6-1.2c0-0.1,0-0.3,0-0.4V71.8z"/>
<path class="st22" d="M252.5,69.3h0.9v-1.5h0.9v1.6h1.2v0.7h-1.2v2.6c0,0.6,0.1,0.8,0.7,0.8c0.2,0,0.3,0,0.5,0v0.7
	c-0.2,0.1-0.5,0.1-0.7,0.1c-1,0-1.3-0.4-1.3-1.4v-2.8h-0.9V69.3z"/>
<path class="st22" d="M260,67v3.2c0.3-0.7,1-1.1,1.8-1c1.1,0,1.8,0.7,1.8,2v2.9h-0.9v-2.7c0-0.8-0.3-1.4-1.2-1.4s-1.5,0.8-1.5,1.8
	v2.4h-0.9V67H260z"/>
<path class="st22" d="M267.8,69.3c1,2.3,1.6,3.7,1.7,4.1l0,0c0.2-0.5,0.7-1.8,1.6-4.1h0.9l-1.9,4.6c-0.9,2.1-1.2,2.5-2.4,2.5
	c-0.2,0-0.4,0-0.6,0v-0.8c0.2,0,0.4,0,0.5,0c0.6,0,0.9-0.3,1.3-1.2l-2.2-5L267.8,69.3z"/>
<g id="Logo-2">
	<path class="st0" d="M20.2,80.7c-6.9,0.1-12.7-5.4-12.8-12.3c0-0.5,0-1.1,0.1-1.6L11,26.6c0.6-5.5,4.1-10.3,9.2-12.6
		c1.9-0.8,3.9-1.3,5.9-1.3H63c6.9-0.1,12.6,5.4,12.7,12.4c0,0.5,0,1.1-0.1,1.6l-4.4,50.3c-0.1,1-0.5,1.8-1.2,2.5l0,0H70
		c-0.8,0.7-1.8,1.2-2.9,1.2L20.2,80.7z M26.1,13.7c-1.9,0-3.8,0.4-5.5,1.2c-4.7,2.1-8,6.6-8.6,11.7L8.4,66.9
		C7.7,73.3,12.3,79,18.7,79.7c0.5,0.1,1,0.1,1.5,0.1h46.9c0.8,0,1.6-0.4,2.2-0.9l0,0c0.5-0.5,0.9-1.2,0.9-2l4.4-50.3
		c0.7-6.4-3.9-12.1-10.3-12.8c-0.5-0.1-0.9-0.1-1.4-0.1L26.1,13.7z M69.4,78.8L69.4,78.8z"/>
	<path class="st0" d="M31.8,69c-6.9,0.1-12.7-5.4-12.8-12.3c0-0.5,0-1.1,0.1-1.6l3.5-40.2c0.8-7.7,7.3-13.7,15-13.8h36.9
		c6.9-0.1,12.6,5.4,12.8,12.3c0,0.5,0,1.1-0.1,1.6l0,0l-2.3,26.8l-2,23.5c0,0.1,0,0.2,0,0.3c-0.1,0.8-0.5,1.6-1.1,2.2l-0.1,0.1
		c-0.8,0.8-1.9,1.2-3,1.2H31.8z M37.7,2c-7.3,0.1-13.4,5.7-14.1,13l-3.5,40.1c-0.7,6.4,3.9,12.1,10.3,12.8c0.5,0.1,1,0.1,1.5,0.1
		h46.9c0.8,0,1.7-0.3,2.3-0.9l0,0c0.4-0.5,0.7-1,0.9-1.7c0-0.1,0-0.2,0-0.3l2-23.5l2.3-26.8C86.9,8.5,82.3,2.8,76,2.1
		C75.5,2,75,2,74.6,2H37.7z"/>
	
		<linearGradient id="SVGID_20_" gradientUnits="userSpaceOnUse" x1="25.7309" y1="15.0554" x2="69.0855" y2="67.2588" gradientTransform="matrix(1 0 0 -1 0 82)">
		<stop  offset="0" style="stop-color:#E84900"/>
		<stop  offset="0.3" style="stop-color:#E86200"/>
	</linearGradient>
	<path class="st23" d="M75.1,28.7l-3.5,39.8H33.6c-9.4,0-14.9-6.1-14-15.3l3.5-39.8h38.1C70.5,13,75.7,18.9,75.1,28.7z"/>
</g>
<path class="st2" d="M53,19.4c-4.5-0.2-7.8-0.1-11.5,2.4c-3,1.9-5.2,4.9-6,8.4c-0.5,1.4-0.5,3,0,4.4c0.3,1.1,0.9,2.1,1.8,2.2
	c-0.4,0.1-0.8,0.4-1,0.8c0.3-0.3,0.6-0.4,1-0.5c0,0-0.4,0.3-0.5,0.5c0.6-0.5,1.3-0.8,2-0.9c0,0-0.9,0.5-0.8,1.3
	c-0.9,0.3-1.6,0.8-2.1,1.6c-0.7,1-0.2,1-0.2,1.9s-0.5,1.3-0.4,2.8c0.1,1.3,0.4,2.6,1,3.8c0.6,1.5,1,3.1,1.1,4.7
	c0.1,0.9,0.2,1.7,0.4,2.5c0.4,1.5,1,3.3,1.4,4.2l1.8,1.3c-1.4-1.3-2.2-3.3-2-5.2c0.4,3,3,5.8,6.1,5.8c2.4,0,4.1-1.5,3-3
	c-0.8-1-2.2-1.3-3.4-0.7c-0.7,0.6-1.6,0.9-2.5,0.8c-0.6-1.3-0.6-2.8,0-4.1c2,1.6,3.3,1.2,5.1,0.1c0.6-0.3,1.4-0.1,1.8,0.4
	c-0.3,3.2,3,3.1,3,3.1c1-0.7,1.7-3,1.7-4.4c0-2,1.5-3.3,2.4-4.1c2.5-1.7,2.1-6.3,0.9-9.4c-0.1-0.2-0.1-0.3-0.2-0.4
	c-2-2.3-6.2-2-8.2-1.3c-0.9,0.3-1.3,1.1-1,2.4c0.3,1.3,0.9,2.5,1.7,3.5c-0.7-0.5-1.3-1.1-1.8-1.8c0.2,0.7,0.6,1.4,1.1,2
	c-0.6-0.3-1.2-0.8-1.6-1.4c0,0-1,1.2,0.5,2.5c0,0-0.9-0.1-1.5-1.6c-0.4,0.7-0.3,1.5,0.3,2c-0.4,0.1-0.9-0.1-1.1-0.5
	c0,0-0.1,1.2,0.5,1.5c0,0-1.1,0.3-1.4,0.9c0,0-0.9,0.5-1.2-0.6c0,0,1.2,1.2,1.2-0.3c0.2-1.3,0.4-2.6,0.8-3.9
	c0.4-1.6,0.6-3.2,1.5-4.6c-0.4-0.6-0.6-1.3-0.5-2c0.4,0.8,0.9,1.4,1.7,1.3c0.4-0.1,0.6-0.5,0.6-0.9c0.6,0.5,1.4,0.7,2.1,0.4
	c-0.3-0.3-0.4-0.4-1.1-0.6c0.9-0.1,1.8,0,2.6,0.4c-0.2-0.3-0.6-0.5-1.2-0.6c0.8-0.3,1.8,0,2.3,0.7c0-0.3-0.2-0.5-0.6-0.8
	c0.5,0.1,1,0.4,1.2,0.9c0-0.3-0.2-0.6-0.4-0.7c0.4,0.1,0.8,0.5,1,0.9l0.3,0.1c0.7-0.7,0.6-2.4,1.1-6.2c0.6-4.6,3.3-2.8,3.1-8.6
	C58.9,20.5,56.2,19.7,53,19.4L53,19.4z"/>
<linearGradient id="SVGID_21_" gradientUnits="userSpaceOnUse" x1="60.81" y1="-18.9084" x2="61.1" y2="-18.9084" gradientTransform="matrix(0.9973 7.358631e-02 7.358631e-02 -0.9973 -13.6241 25.1977)">
	<stop  offset="0" style="stop-color:#E84900"/>
	<stop  offset="0.3" style="stop-color:#E86200"/>
</linearGradient>
<path class="st24" d="M45.8,48.9h0.1l0,0c-0.1-0.1-0.1-0.3-0.1-0.5c0-0.1,0-0.2,0.1-0.2c-0.1,0-0.1,0.1-0.2,0.1
	C45.7,48.5,45.8,48.7,45.8,48.9L45.8,48.9z"/>
<linearGradient id="SVGID_22_" gradientUnits="userSpaceOnUse" x1="52.85" y1="-12.9643" x2="55.9183" y2="-12.9643" gradientTransform="matrix(0.9973 7.358631e-02 7.358631e-02 -0.9973 -13.6241 25.1977)">
	<stop  offset="0" style="stop-color:#E84900"/>
	<stop  offset="0.3" style="stop-color:#E86200"/>
</linearGradient>
<path class="st25" d="M38.5,42.4c0.5,0.5,1.4,0.6,2,0.1c0.4-0.2,0.7-0.6,0.8-1c-0.9,0.6-2.1,0.6-3.1,0
	C38.1,41.8,38.2,42.2,38.5,42.4L38.5,42.4z"/>
<linearGradient id="SVGID_23_" gradientUnits="userSpaceOnUse" x1="52.1289" y1="-11.4137" x2="57.392" y2="-11.4137" gradientTransform="matrix(0.9973 7.358631e-02 7.358631e-02 -0.9973 -13.6241 25.1977)">
	<stop  offset="0" style="stop-color:#E84900"/>
	<stop  offset="0.3" style="stop-color:#E86200"/>
</linearGradient>
<path class="st26" d="M39.2,40.1c-0.7,1.8,2.5,2.1,2.2,0l0.6,0.5c0,0.2,0.1,0.3,0.2,0.5c-0.1-0.1,0-0.3,0.1-0.4
	c0.7,0.1,0.5,0.5,0.5,0.5c0.3-0.5-0.5-0.7-0.5-0.7c-0.6-0.8-1.6-1.1-2.5-0.9c-1,0.2-1.9,1-2.2,2c0.1-0.2,0.4-0.2,0.6-0.2
	C38.1,40.7,38.6,40.2,39.2,40.1L39.2,40.1z"/>
<linearGradient id="SVGID_24_" gradientUnits="userSpaceOnUse" x1="51.2905" y1="-11.013" x2="57.3257" y2="-11.013" gradientTransform="matrix(0.9973 7.358631e-02 7.358631e-02 -0.9973 -13.6241 25.1977)">
	<stop  offset="0" style="stop-color:#E84900"/>
	<stop  offset="0.3" style="stop-color:#E86200"/>
</linearGradient>
<path class="st27" d="M40.2,39c0.9,0.1,1.7,0.5,2.3,1.2c0.1,0.2,0.4,0.1,0.2-0.2c-0.6-0.8-1.5-1.3-2.5-1.4c-1.6,0.1-3,1.1-3.6,2.6
	c-0.1,0.2,0.2,0.6,0.4,0.1C37.6,40.1,38.8,39.2,40.2,39z"/>
<linearGradient id="SVGID_25_" gradientUnits="userSpaceOnUse" x1="52.4757" y1="-9.3861" x2="58.9357" y2="-9.3861" gradientTransform="matrix(0.9973 7.358631e-02 7.358631e-02 -0.9973 -13.6241 25.1977)">
	<stop  offset="0" style="stop-color:#E84900"/>
	<stop  offset="0.3" style="stop-color:#E86200"/>
</linearGradient>
<path class="st28" d="M40.3,37.8c1.2,0.1,2.3,0.4,2.7,1.6c0.1,0.4,0.2,0.8,0.2,1.2c0.1-0.1,0.2-0.7,0.3-0.8c0.1,0.7,0.1,1.4,0.1,2.1
	c0.2-0.6,0.5-1.2,0.7-2.1c-0.6-0.3,0.2-3.3,0.4-3.7c-0.5,0.7-0.9,1.5-1.2,2.3c-0.2-1.5-5-2-5.4-0.4C38.8,37.7,39.5,37.7,40.3,37.8z"
	/>
<linearGradient id="SVGID_26_" gradientUnits="userSpaceOnUse" x1="51.5881" y1="-6.9976" x2="56.7381" y2="-6.9976" gradientTransform="matrix(0.9973 7.358631e-02 7.358631e-02 -0.9973 -13.6241 25.1977)">
	<stop  offset="0" style="stop-color:#E84900"/>
	<stop  offset="0.3" style="stop-color:#E86200"/>
</linearGradient>
<path class="st29" d="M42.4,36.9c-2-1.1-3.3-0.5-3.9-0.6c-0.5-0.1-0.9-0.4-1.1-0.8c0.3,1.2,1.2,1.2,2,1.1
	C40.4,36.5,41.4,36.6,42.4,36.9L42.4,36.9z"/>
<linearGradient id="SVGID_27_" gradientUnits="userSpaceOnUse" x1="53.35" y1="-3.2107" x2="64.83" y2="-3.2107" gradientTransform="matrix(0.9973 7.358631e-02 7.358631e-02 -0.9973 -13.6241 25.1977)">
	<stop  offset="0" style="stop-color:#E84900"/>
	<stop  offset="0.3" style="stop-color:#E86200"/>
</linearGradient>
<path class="st30" d="M43.2,33c1.3,0.9,2.2,1,3.9,0.2c2.4-1.2,3-0.9,3.7-0.8c-1.1-0.5-2.3-0.4-3.3,0.1c-1.2,0.7-2.7,0.7-4,0.1
	c-1.3-0.7-2.7-1.1-4.1-1.1C40.8,31.6,42.1,32.2,43.2,33z"/>
<linearGradient id="SVGID_28_" gradientUnits="userSpaceOnUse" x1="54.5508" y1="-18.9105" x2="62.7908" y2="-18.9105" gradientTransform="matrix(0.9973 7.358631e-02 7.358631e-02 -0.9973 -13.6241 25.1977)">
	<stop  offset="0" style="stop-color:#E84900"/>
	<stop  offset="0.3" style="stop-color:#E86200"/>
</linearGradient>
<path class="st31" d="M39.9,50.8c-1.3,2.2-0.7,3.6-0.7,3.6c0.1-1.7,0.9-3.3,2-4.5c0.3-0.3,0.4-1.6,0.4-1.9c0,1,1.2,1.1,1.2,1.1
	c-0.5-0.4-0.4-0.8-0.4-0.8c0.5,0.5,1.1,1,1.7,1.4c1,0.5,2.2,0.3,3-0.5c0-0.2-0.5-0.6-0.5-0.6s0.6,0,0.7,0.3c0.5,0.1,0.6-0.5,0.3-0.8
	c-0.3-0.3-0.6-0.5-1-0.5c-0.8-0.2-1.7,0.2-2.1,0.9c0.8,0.2,0.5,1.1-0.3,0.8c-0.5-0.2-0.9-0.6-1.1-1.1c0-0.7-0.3-1.1-0.6-1.1
	s-0.7,0.8-0.7,0.8c0.1-0.8,0.3-1.5,0.8-2.2l0.9-3.7l-1.7,2.9l1.2-1.6l-0.7,2.4c-0.6,0.7-1,1.5-1,2.4C41.1,49.1,41.2,48.6,39.9,50.8
	L39.9,50.8z"/>
<linearGradient id="SVGID_29_" gradientUnits="userSpaceOnUse" x1="55.89" y1="-25.0151" x2="55.95" y2="-25.0151" gradientTransform="matrix(0.9973 7.358631e-02 7.358631e-02 -0.9973 -13.6241 25.1977)">
	<stop  offset="0" style="stop-color:#E84900"/>
	<stop  offset="0.3" style="stop-color:#E86200"/>
</linearGradient>
<path class="st32" d="M40.3,54.2C40.3,54.2,40.3,54.3,40.3,54.2L40.3,54.2z"/>
<linearGradient id="SVGID_30_" gradientUnits="userSpaceOnUse" x1="55.95" y1="-22.8853" x2="65.6249" y2="-22.8853" gradientTransform="matrix(0.9973 7.358631e-02 7.358631e-02 -0.9973 -13.6241 25.1977)">
	<stop  offset="0" style="stop-color:#E84900"/>
	<stop  offset="0.3" style="stop-color:#E86200"/>
</linearGradient>
<path class="st33" d="M43.2,52.7c-0.1,0-0.3,0-0.4,0.1c0,0-0.7,0.8-1.2,0.3s-0.9-0.3-1,0.2c0,0.3-0.2,0.7-0.3,0.9
	c0.3-0.3,0.8-0.5,1.2-0.5c1.8,0,2.1,0.8,2.1,0.8c0.7-0.5,1.6-0.8,2.5-0.9h2.8c0.2,0,0.4-0.1,0.5-0.2c0.5-0.1,0.7-0.6,0.6-1.1
	c0,0,0-0.1-0.1-0.1c-0.2-0.5-0.9-0.3-1.2,0.2s-0.5,0.9-1,1h-0.4c-0.8-0.1-1-0.5-1.5-0.7v-2.5l-0.3,2.3h-0.2c-0.6,0-1.1,0.2-1.5,0.6
	c-0.1-0.2-0.3-0.4-0.5-0.5l-0.4-2.5L43.2,52.7L43.2,52.7z"/>
<linearGradient id="SVGID_31_" gradientUnits="userSpaceOnUse" x1="55.0982" y1="-1.586" x2="62.5315" y2="-1.586" gradientTransform="matrix(0.9973 7.358631e-02 7.358631e-02 -0.9973 -13.6241 25.1977)">
	<stop  offset="0" style="stop-color:#E84900"/>
	<stop  offset="0.3" style="stop-color:#E86200"/>
</linearGradient>
<path class="st34" d="M44.8,31.1c-1.3-0.1-2.4-0.7-3.6-0.7c1.8,0.3,2.4,1.1,3.6,1.1s2.5-0.6,3.8-0.6C47.3,30.7,46,31.2,44.8,31.1z"
	/>
<linearGradient id="SVGID_32_" gradientUnits="userSpaceOnUse" x1="62.935" y1="-10.5297" x2="69.6745" y2="-10.5297" gradientTransform="matrix(0.9973 7.358631e-02 7.358631e-02 -0.9973 -13.6241 25.1977)">
	<stop  offset="0" style="stop-color:#E84900"/>
	<stop  offset="0.3" style="stop-color:#E86200"/>
</linearGradient>
<path class="st35" d="M49.4,40.5c-1-0.1-0.5,1.5,0.1,0.6c-0.7,0.3-0.8-0.7,0-0.4c0.1-0.7,0.8-1.1,1.5-1c-0.6,1.3,0.3,1.9,0.9,1.9
	c0.7,0,1.2-0.4,1.5-1l0.3,0.3c0,0-0.4,0.8-1.9,0.8c0,0,1.4,0.3,2-0.5H54c-0.4,0.7-1.7,1.4-3.9,0.5c0.8,0.8,2.4,1.8,4.5,0.2l-0.5-0.6
	c0.4,0.1,0.7,0.3,0.9,0.6c-0.4-3.4-5-5.1-6.6-2.2c-0.2,0.3,0.2,0.6,0.4,0.1c0.3-0.7,1-1.2,1.8-1.3c0.9-0.1,1.8,0.1,2.5,0.7
	c0.4,0.4,0.1,0.7-0.4,0.3C51.4,38.7,49.4,39.6,49.4,40.5L49.4,40.5z"/>
<linearGradient id="SVGID_33_" gradientUnits="userSpaceOnUse" x1="67.8813" y1="-9.9" x2="70.6313" y2="-9.9" gradientTransform="matrix(0.9973 7.358631e-02 7.358631e-02 -0.9973 -13.6241 25.1977)">
	<stop  offset="0" style="stop-color:#E84900"/>
	<stop  offset="0.3" style="stop-color:#E86200"/>
</linearGradient>
<path class="st36" d="M55.9,41.1c-0.4-1.2-1.3-2.1-2.4-2.5c-0.2,0.3,1,0.9,1.8,2.7C55.6,41.9,56.3,42,55.9,41.1z"/>
<linearGradient id="SVGID_34_" gradientUnits="userSpaceOnUse" x1="62.41" y1="-20.2365" x2="67.67" y2="-20.2365" gradientTransform="matrix(0.9973 7.358631e-02 7.358631e-02 -0.9973 -13.6241 25.1977)">
	<stop  offset="0" style="stop-color:#E84900"/>
	<stop  offset="0.3" style="stop-color:#E86200"/>
</linearGradient>
<path class="st37" d="M47.8,49.1c-0.8,0.1-0.6,0.9,0,1c0.7,0,1.3-0.5,1.5-1.1c0.1,0.2,0.1,0.3,0.3,0.4c1.3,1.3,2.1,3,2.5,4.7
	c0,0,0.4-1.4-1.2-3.7c-0.9-1.4-1.3-1.8-1.5-2c0-0.2,0-0.4,0-0.6c-0.3-0.9-1.1-1.6-2-1.7C49.7,48.2,47.8,49.2,47.8,49.1L47.8,49.1z"
	/>
<linearGradient id="SVGID_35_" gradientUnits="userSpaceOnUse" x1="51.28" y1="-7.5031" x2="52.6" y2="-7.5031" gradientTransform="matrix(0.9973 7.358631e-02 7.358631e-02 -0.9973 -13.6241 25.1977)">
	<stop  offset="0" style="stop-color:#E84900"/>
	<stop  offset="0.3" style="stop-color:#E86200"/>
</linearGradient>
<path class="st38" d="M37.8,36.9c0.1-0.2,0.3-0.3,0.5-0.3c-0.5,0-0.9-0.2-1.3-0.5C37.1,36.5,37.4,36.8,37.8,36.9L37.8,36.9z"/>
<linearGradient id="SVGID_36_" gradientUnits="userSpaceOnUse" x1="67.78" y1="-23.8451" x2="68.68" y2="-23.8451" gradientTransform="matrix(0.9973 7.358631e-02 7.358631e-02 -0.9973 -13.6241 25.1977)">
	<stop  offset="0" style="stop-color:#E84900"/>
	<stop  offset="0.3" style="stop-color:#E86200"/>
</linearGradient>
<path class="st39" d="M52.5,55.6c0,0,1.5-2-0.2-3.2C52.8,53.4,52.8,54.5,52.5,55.6z"/>
<linearGradient id="SVGID_37_" gradientUnits="userSpaceOnUse" x1="49.3" y1="-8.3803" x2="50.49" y2="-8.3803" gradientTransform="matrix(0.9973 7.358631e-02 7.358631e-02 -0.9973 -13.6241 25.1977)">
	<stop  offset="0" style="stop-color:#E84900"/>
	<stop  offset="0.3" style="stop-color:#E86200"/>
</linearGradient>
<path class="st40" d="M35,36.4c0.1,0.1,0.2,0.3,0.2,0.4c0,0.1,0,0.2,0,0.3c0,0.1,0,0.2,0,0.2c-0.1,0.2-0.1,0.5,0,0.7
	c0,0.1,0,0.2,0,0.3c0.1,0.1,0.1,0.2,0.1,0.3c0,0.1,0,0.2,0,0.3l0,0c0.2-0.3,0.5-0.6,0.8-0.9c-0.1,0-0.1,0-0.2-0.1
	c-0.3-0.2-0.4-0.6-0.3-0.9c0.1-0.2,0.2-0.3,0.3-0.5c-0.4-0.4-0.6-0.9-0.8-1.4V36C35.1,36.2,35,36.3,35,36.4L35,36.4z"/>
<linearGradient id="SVGID_38_" gradientUnits="userSpaceOnUse" x1="60.76" y1="-11.8519" x2="61.8" y2="-11.8519" gradientTransform="matrix(0.9973 7.358631e-02 7.358631e-02 -0.9973 -13.6241 25.1977)">
	<stop  offset="0" style="stop-color:#E84900"/>
	<stop  offset="0.3" style="stop-color:#E86200"/>
</linearGradient>
<path class="st41" d="M46.8,39.9c-0.4,1-0.5,2.1-0.8,3.1l0,0h0.1c0.1-0.3,0.2-0.5,0.4-0.7c0.1-0.1,0.2-0.2,0.3-0.2
	c0-0.2,0.1-0.4,0.3-0.5c-0.1-0.3-0.2-0.6-0.2-0.9l0,0C46.8,40.5,46.8,40.2,46.8,39.9z"/>
<path class="st21" d="M39.5,39.8c-0.2,0.4-0.1,0.9,0.3,1.1c0.1,0.1,0.3,0.1,0.5,0.1l0.2-0.2H41c0-0.1,0-0.3,0.1-0.4l0.2-0.1
	c-0.1-0.1-0.2-0.3-0.3-0.4c0,1.2-1.5,0.5-0.8-0.2C40.2,39.6,39.5,39.8,39.5,39.8L39.5,39.8z"/>
<path class="st21" d="M51.8,40.8l0.2,0.4c1.1,0,0.9-0.9,0.9-0.9c-0.4,0.9-1.5,0.2-0.9-0.5h-0.6c-0.2,0.3-0.2,0.7-0.1,1l0.3-0.2v0.5
	L51.8,40.8L51.8,40.8z"/>
<path class="st22" d="M102.1,36.7c1.4,4.5,4.7,7.6,12.2,7.6s10.4-2.9,10.4-6.5c0-3.8-2.1-6.1-12-7.7c-11.5-1.9-14.2-5.5-14.2-10.8
	c0-6.7,6.4-10.6,14.7-10.6c12.4,0,15.4,6.5,15.8,10.4h-5.5c-0.8-2.6-2.4-6-10.4-6c-5.5,0-9,1.9-9,5.7c0,3.1,1.6,5.1,10.2,6.5
	c13.8,2.4,16,6.6,16,11.9c0,6.1-4.8,11.3-16.3,11.3c-10.7,0-16.1-4.9-17.3-11.9L102.1,36.7z"/>
<path class="st22" d="M144.1,9.6h5.4V25h23V9.6h5.4v38.2h-5.4V29.6h-23v18.2h-5.4V9.6z"/>
<path class="st22" d="M199.9,36.2L195,47.8h-5.6l16.4-38.2h6.6l17.1,38.2h-5.9l-5.1-11.6H199.9z M216.6,31.6
	c-4.7-10.5-6.9-15.5-7.8-18.1l0,0c-0.8,2.5-3.4,9-7.2,18.1H216.6z"/>
<path class="st22" d="M241,9.6h5.4V25h23V9.6h5.4v38.2h-5.4V29.6h-23v18.2H241V9.6z"/>
<path class="st22" d="M97.1,60.2c0.3,0.8,0.9,1.4,2.5,1.4s2-0.5,2-1.2s-0.4-1.1-2.4-1.4c-2.9-0.5-3.5-1.4-3.5-2.6
	c0-1.7,1.6-2.6,3.6-2.6c3,0,3.7,1.5,3.8,2.5h-1.8c-0.1-0.5-0.5-1.1-2-1.1c-1.1,0-1.7,0.4-1.7,1s0.4,0.9,2.1,1.2
	c3.3,0.6,3.8,1.6,3.8,2.8c0,1.5-1.2,2.7-4,2.7c-2.7,0-3.9-1.2-4.2-2.8L97.1,60.2z"/>
<path class="st22" d="M114.3,61c0,0.8,0,1.6,0.1,1.7h-1.7c0-0.3-0.1-0.5-0.1-0.8c-0.5,0.7-1.4,1.1-2.3,1c-1.8,0-2.4-1.1-2.4-2.1
	c0-1.7,1.5-2.1,3.3-2.1h1.4v-0.2c0-0.6-0.2-1.1-1.3-1.1s-1.2,0.4-1.3,0.8h-1.8c0.1-0.8,0.6-2,3-2c2.6,0,3.1,1.2,3.1,2.3L114.3,61z
	 M112.6,59.8h-1.4c-1.2,0-1.7,0.3-1.7,0.9s0.4,0.9,1.2,0.9c1.3,0,1.8-0.7,1.8-1.6L112.6,59.8z"/>
<path class="st22" d="M119.4,58c0-0.5,0-1.1,0-1.6h1.7c0,0.3,0.1,0.5,0.1,0.8c0.4-0.7,1.2-1,2-1c0.8-0.1,1.6,0.4,1.9,1.1
	c0.5-0.7,1.3-1.1,2.2-1.1c1.3,0,2.3,0.8,2.3,2.7v3.9h-1.7v-3.8c0-0.6-0.2-1.4-1.1-1.4s-1.3,0.5-1.3,1.7v3.5h-1.7v-3.9
	c0-0.7-0.2-1.3-1.2-1.3s-1.3,0.7-1.3,1.7v3.5h-1.7L119.4,58z"/>
<path class="st22" d="M141,60.9c0,0.6,0,1.2,0,1.9h-1.7c0-0.2,0-0.5,0-0.8c-0.3,0.6-0.8,1-2.2,1s-2.4-0.8-2.4-2.6v-3.9h1.8V60
	c0,0.9,0.3,1.5,1.3,1.5c1.1,0,1.5-0.7,1.5-2.2v-2.9h1.7V60.9z"/>
<path class="st22" d="M147.3,60c0,0.9,0.8,1.6,1.7,1.6c0,0,0,0,0.1,0c0.6,0.1,1.2-0.2,1.5-0.8h1.8c-0.8,1.8-2.9,2.6-4.7,1.8
	c-1.2-0.5-2-1.7-2.1-3c-0.1-1.8,1.3-3.3,3.1-3.4c0.1,0,0.2,0,0.3,0c1.8-0.1,3.3,1.2,3.4,2.9c0,0.1,0,0.3,0,0.4c0,0.2,0,0.2,0,0.4
	H147.3z M150.7,58.9c0-0.8-0.7-1.4-1.5-1.4c-0.1,0-0.1,0-0.2,0c-0.8-0.1-1.6,0.5-1.7,1.3c0,0,0,0.1,0,0.1L150.7,58.9z"/>
<path class="st22" d="M157.1,62.8v-9.3h1.8v9.3L157.1,62.8z"/>
<path class="st22" d="M170.9,54h1.8v3.4h4.4V54h1.8v8.8h-1.8v-3.9h-4.4v3.9h-1.8V54z"/>
<path class="st22" d="M190.3,61c0,0.8,0,1.6,0,1.7h-1.7c0-0.3-0.1-0.5-0.1-0.8c-0.5,0.7-1.4,1.1-2.3,1c-1.8,0-2.5-1.1-2.5-2.1
	c0-1.7,1.5-2.1,3.3-2.1h1.4v-0.2c0-0.6-0.2-1.1-1.3-1.1s-1.2,0.4-1.3,0.8h-1.8c0.1-0.8,0.6-2,3-2c2.6,0,3.1,1.2,3.1,2.3L190.3,61z
	 M188.6,59.8h-1.4c-1.2,0-1.7,0.3-1.7,0.9s0.4,0.9,1.2,0.9c1.3,0,1.8-0.7,1.8-1.6V59.8z"/>
<path class="st22" d="M197.1,53.5v3.8c0.5-0.7,1.3-1.2,2.2-1.1c1.5,0,2.5,0.9,2.5,2.7v3.8H200v-3.6c0-0.9-0.3-1.5-1.3-1.5
	s-1.6,0.8-1.6,2.1v3.1h-1.8v-9.3H197.1z"/>
<path class="st22" d="M206.9,58c0-0.5,0-1.2,0-1.6h1.7c0,0.2,0,0.6,0.1,0.9c0.8-1.2,2.4-1.5,3.6-0.7c0.7,0.5,1.1,1.3,1.1,2.2v3.9
	h-1.8v-3.6c0-0.8-0.3-1.5-1.3-1.5s-1.6,0.8-1.6,2v3.2h-1.8L206.9,58z"/>
<path class="st22" d="M219.7,60c0,0.9,0.8,1.6,1.7,1.6c0,0,0,0,0.1,0c0.6,0.1,1.2-0.2,1.5-0.8h1.8c-0.5,1.4-1.9,2.2-3.3,2.1
	c-1.8,0.1-3.3-1.2-3.4-2.9c0-0.1,0-0.3,0-0.4c-0.1-1.8,1.3-3.3,3.1-3.4c0.1,0,0.2,0,0.3,0c1.7-0.1,3.3,1.2,3.4,2.9
	c0,0.2,0,0.3,0,0.5V60H219.7z M223,58.9c0-0.8-0.7-1.4-1.5-1.4c-0.1,0-0.1,0-0.2,0c-0.8-0.1-1.6,0.5-1.7,1.3c0,0,0,0.1,0,0.1H223z"
	/>
<path class="st22" d="M229.4,58c0-0.5,0-1.1,0-1.6h1.7c0,0.2,0,0.5,0,0.8c0.4-0.7,1.2-1,2-1c0.8-0.1,1.6,0.4,1.9,1.1
	c0.5-0.7,1.3-1.1,2.2-1.1c1.3,0,2.4,0.8,2.4,2.7v3.9h-1.7v-3.8c0-0.6-0.2-1.4-1.1-1.4s-1.3,0.5-1.3,1.7v3.5h-1.7v-3.9
	c0-0.7-0.2-1.3-1.1-1.3s-1.3,0.7-1.3,1.7v3.5h-1.7L229.4,58z"/>
<path class="st22" d="M250.7,61c0,0.8,0,1.6,0.1,1.7h-1.7c0-0.2-0.1-0.5-0.1-0.7c-0.5,0.7-1.4,1.1-2.3,1c-1.8,0-2.4-1.1-2.4-2.1
	c0-1.7,1.5-2.1,3.3-2.1h1.4v-0.2c0-0.6-0.2-1.1-1.3-1.1s-1.2,0.4-1.3,0.8h-1.8c0.1-0.8,0.6-2,3-2c2.6,0,3.1,1.2,3.1,2.3L250.7,61z
	 M249,59.9h-1.4c-1.2,0-1.7,0.3-1.7,0.9s0.4,0.9,1.2,0.9c1.3,0,1.8-0.7,1.8-1.6L249,59.9z"/>
<path class="st22" d="M255.8,58c0-0.5,0-1.2,0-1.6h1.7c0,0.2,0,0.6,0.1,0.9c0.8-1.2,2.4-1.5,3.6-0.7c0.7,0.5,1.1,1.3,1.1,2.2v3.9
	h-1.8v-3.6c0-0.8-0.3-1.5-1.3-1.5s-1.6,0.8-1.6,2v3.2h-1.8L255.8,58z"/>
<path class="st22" d="M267.3,58c0-0.5,0-1.2,0-1.6h1.7c0,0.2,0,0.6,0.1,0.9c0.8-1.2,2.4-1.5,3.6-0.7c0.7,0.5,1.1,1.3,1.1,2.2v3.9
	H272v-3.6c0-0.8-0.3-1.5-1.3-1.5s-1.6,0.8-1.6,2v3.2h-1.8L267.3,58z"/>
<path class="st22" d="M97.9,72.1l-0.9,2h-1l2.9-6.7h1.2l3,6.7h-1l-0.9-2H97.9z M100.9,71.3c-0.8-1.9-1.2-2.8-1.4-3.2l0,0
	c-0.1,0.4-0.6,1.6-1.3,3.2H100.9z"/>
<path class="st22" d="M111,72.7c-0.3,1-1.3,1.7-2.3,1.6c-1.3,0.1-2.4-0.9-2.5-2.2c0-0.1,0-0.2,0-0.3c-0.1-1.4,1-2.5,2.3-2.5
	c0.1,0,0.1,0,0.2,0c1.1-0.1,2.1,0.6,2.3,1.7h-0.9c-0.2-0.6-0.8-1-1.4-0.9c-1,0.1-1.7,1-1.6,2c0.1,0.8,0.8,1.5,1.6,1.6
	c0.6,0,1.2-0.3,1.4-0.9L111,72.7z"/>
<path class="st22" d="M118.9,73c0,0.5,0,1.1,0,1.2H118c0-0.2-0.1-0.5-0.1-0.7c-0.2,0.5-0.8,0.8-1.8,0.8c-1.4,0-1.9-0.8-1.9-1.5
	c0-1.2,1.1-1.6,2.5-1.6h1.2V71c0-0.5-0.2-1-1.2-1s-1.1,0.4-1.2,0.8h-0.9c0-0.6,0.5-1.5,2.1-1.5s2.1,0.9,2.1,1.7L118.9,73z M118,71.8
	h-1.2c-1.1,0-1.6,0.2-1.6,0.9c0,0.5,0.3,0.9,1.2,0.9c0.8,0.1,1.5-0.4,1.6-1.2c0-0.1,0-0.3,0-0.4V71.8z"/>
<path class="st22" d="M127.6,67v5.7c0,0.5,0,0.9,0,1.4h-0.9c0-0.2,0-0.5,0-0.7c-0.4,0.6-1.1,0.9-1.8,0.9c-1.3,0-2.3-1-2.3-2.3
	c0-0.1,0-0.2,0-0.2c0-1.4,1-2.5,2.4-2.6c0,0,0,0,0,0c0.6-0.1,1.3,0.2,1.7,0.7V67H127.6z M123.5,71.8c-0.1,0.9,0.6,1.7,1.5,1.8
	c0,0,0.1,0,0.1,0c1.1,0,1.6-0.7,1.6-1.8s-0.4-1.7-1.6-1.7C124.2,70,123.5,70.7,123.5,71.8C123.5,71.7,123.5,71.7,123.5,71.8
	L123.5,71.8z"/>
<path class="st22" d="M132.1,72c0,0.9,0.7,1.6,1.6,1.6c0,0,0,0,0.1,0c0.6,0,1.2-0.3,1.4-0.8h0.9c-0.4,1-1.3,1.6-2.4,1.5
	c-1.4-0.1-2.5-1.3-2.4-2.7c0.1-1.3,1.1-2.3,2.4-2.4c1.3-0.1,2.4,0.9,2.5,2.2c0,0.1,0,0.2,0,0.3V72H132.1z M135.2,71.4
	c0-0.8-0.6-1.4-1.4-1.4c0,0-0.1,0-0.1,0c-0.8-0.1-1.5,0.5-1.5,1.3c0,0,0,0,0,0.1H135.2z"/>
<path class="st22" d="M139.8,70.6c0-0.4,0-0.8,0-1.2h0.9c0,0.2,0,0.5,0,0.7c0.3-0.6,0.9-0.9,1.6-0.9c0.6-0.1,1.2,0.3,1.5,0.9
	c0.3-0.6,1-1,1.7-0.9c0.9,0,1.7,0.6,1.7,2v3h-0.9v-3c0-0.6-0.2-1.2-1-1.2s-1.3,0.5-1.3,1.6v2.6H143v-3c0-0.6-0.2-1.2-1-1.2
	s-1.2,0.7-1.2,1.6v2.6h-0.9L139.8,70.6z"/>
<path class="st22" d="M151.3,69.3c1,2.3,1.6,3.7,1.7,4.1l0,0c0.2-0.5,0.7-1.8,1.6-4.1h0.9l-1.9,4.6c-0.9,2.1-1.2,2.5-2.4,2.5
	c-0.2,0-0.4,0-0.6,0v-0.8c0.2,0,0.4,0,0.5,0c0.6,0,0.9-0.3,1.3-1.2l-2.2-5L151.3,69.3z"/>
<path class="st22" d="M164.5,74.2v-4.1h-0.9v-0.7h0.9v-0.7c0-1.1,0.5-1.8,1.6-1.8c0.2,0,0.4,0,0.6,0.1v0.7c-0.1,0-0.3,0-0.4,0
	c-0.6,0-0.8,0.3-0.8,1v0.6h1.1V70h-1.1v4.1L164.5,74.2z"/>
<path class="st22" d="M174.6,71.8c0,1.4-1.1,2.6-2.6,2.6c-1.4,0-2.6-1.1-2.6-2.6c0-1.4,1.1-2.6,2.6-2.6
	C173.4,69.2,174.6,70.3,174.6,71.8z M170.4,71.8c-0.1,0.9,0.6,1.7,1.5,1.8c0,0,0.1,0,0.1,0c0.9,0,1.6-0.7,1.6-1.6c0-0.1,0-0.1,0-0.2
	c0.1-0.9-0.6-1.7-1.5-1.8c0,0-0.1,0-0.1,0c-0.9,0-1.6,0.7-1.6,1.6C170.4,71.6,170.4,71.7,170.4,71.8z"/>
<path class="st22" d="M178.2,70.7c0-0.4,0-0.9,0-1.3h0.9c0,0.1,0,0.7,0,1.1c0.3-0.8,1.1-1.3,1.9-1.2v0.9c-1-0.1-1.9,0.7-2,1.7
	c0,0.1,0,0.2,0,0.4v2h-0.9L178.2,70.7z"/>
<path class="st22" d="M189.9,67.4h0.9v2.7h4.1v-2.7h0.9v6.7h-0.9v-3.2h-4.1v3.2h-0.9V67.4z"/>
<path class="st22" d="M204.8,71.8c0,1.4-1.1,2.6-2.6,2.6c-1.4,0-2.6-1.1-2.6-2.6c0-1.4,1.1-2.6,2.6-2.6
	C203.6,69.2,204.7,70.3,204.8,71.8z M200.6,71.8c-0.1,0.9,0.6,1.7,1.5,1.8c0,0,0.1,0,0.1,0c0.9,0,1.6-0.7,1.6-1.6c0-0.1,0-0.1,0-0.2
	c0.1-0.9-0.6-1.7-1.5-1.8c-0.1,0-0.1,0-0.2,0c-0.9,0-1.6,0.7-1.6,1.6C200.5,71.6,200.6,71.7,200.6,71.8z"/>
<path class="st22" d="M208.4,70.6c0-0.4,0-0.8,0-1.2h0.9c0,0.2,0,0.5,0,0.7c0.3-0.6,0.9-0.9,1.6-0.9c0.6-0.1,1.2,0.3,1.5,0.9
	c0.3-0.6,1-1,1.6-0.9c0.9,0,1.7,0.6,1.7,2v3h-0.9v-3c0-0.6-0.2-1.2-1-1.2s-1.3,0.5-1.3,1.6v2.6h-0.9v-3c0-0.6-0.2-1.2-1-1.2
	s-1.2,0.7-1.2,1.6v2.6h-0.9L208.4,70.6z"/>
<path class="st22" d="M220.2,72c0,0.9,0.7,1.6,1.6,1.6c0,0,0,0,0.1,0c0.6,0.1,1.1-0.3,1.4-0.8h0.9c-0.4,1-1.3,1.6-2.4,1.5
	c-1.3,0.1-2.4-0.9-2.5-2.3c0-0.1,0-0.2,0-0.3c-0.1-1.3,0.9-2.5,2.3-2.5c0.1,0,0.1,0,0.2,0c1.3-0.1,2.4,0.9,2.5,2.2
	c0,0.1,0,0.2,0,0.3c0,0.1,0,0.2,0,0.2H220.2z M223.4,71.4c0-0.8-0.6-1.4-1.4-1.4c0,0-0.1,0-0.1,0c-0.8-0.1-1.5,0.5-1.5,1.3
	c0,0,0,0,0,0.1H223.4z"/>
<path class="st22" d="M232.8,71.8c0,1.4-1.1,2.6-2.6,2.6c-1.4,0-2.6-1.1-2.6-2.6c0-1.4,1.1-2.6,2.6-2.6
	C231.6,69.2,232.8,70.3,232.8,71.8z M228.6,71.8c-0.1,0.9,0.6,1.7,1.5,1.8c0,0,0.1,0,0.1,0c0.9,0,1.6-0.7,1.6-1.6c0-0.1,0-0.1,0-0.2
	c0.1-0.9-0.6-1.7-1.5-1.8c0,0-0.1,0-0.1,0c-0.9,0-1.6,0.7-1.6,1.6C228.6,71.6,228.6,71.7,228.6,71.8z"/>
<path class="st22" d="M237.3,73.4v2.8h-0.9v-5.7c0-0.4,0-0.8,0-1.2h0.9c0,0.3,0,0.5,0,0.8c0.4-0.7,1.1-1,1.9-1
	c1.3,0,2.3,1.1,2.2,2.4c0,0,0,0.1,0,0.1c0.1,1.3-0.9,2.5-2.2,2.6c-0.1,0-0.1,0-0.2,0C238.3,74.3,237.7,74,237.3,73.4z M240.5,71.7
	c0.1-0.9-0.6-1.6-1.5-1.7c0,0-0.1,0-0.1,0c-1.1,0-1.6,0.8-1.6,1.8c-0.1,0.8,0.5,1.6,1.3,1.7c0.1,0,0.2,0,0.3,0
	c0.9,0,1.6-0.7,1.6-1.6C240.5,71.8,240.5,71.8,240.5,71.7z"/>
<path class="st22" d="M249.2,73c0,0.5,0,1.1,0,1.2h-0.9c0-0.2-0.1-0.5-0.1-0.7c-0.2,0.5-0.8,0.8-1.8,0.8c-1.4,0-1.9-0.8-1.9-1.5
	c0-1.2,1.1-1.6,2.5-1.6h1.2V71c0-0.5-0.2-1-1.2-1s-1.1,0.4-1.2,0.8H245c0.1-0.6,0.5-1.5,2.1-1.5s2.1,0.9,2.1,1.7L249.2,73z
	 M248.4,71.8h-1.1c-1.1,0-1.6,0.2-1.6,0.9c0,0.5,0.4,0.9,1.1,0.9c0.8,0.1,1.5-0.4,1.6-1.2c0-0.1,0-0.3,0-0.4V71.8z"/>
<path class="st22" d="M252.5,69.3h0.9v-1.5h0.9v1.6h1.2v0.7h-1.2v2.6c0,0.6,0.1,0.8,0.7,0.8c0.2,0,0.3,0,0.5,0v0.7
	c-0.2,0.1-0.5,0.1-0.7,0.1c-1,0-1.3-0.4-1.3-1.4v-2.8h-0.9V69.3z"/>
<path class="st22" d="M260,67v3.2c0.3-0.7,1-1.1,1.8-1c1.1,0,1.8,0.7,1.8,2v2.9h-0.9v-2.7c0-0.8-0.3-1.4-1.2-1.4s-1.5,0.8-1.5,1.8
	v2.4h-0.9V67H260z"/>
<path class="st22" d="M267.8,69.3c1,2.3,1.6,3.7,1.7,4.1l0,0c0.2-0.5,0.7-1.8,1.6-4.1h0.9l-1.9,4.6c-0.9,2.1-1.2,2.5-2.4,2.5
	c-0.2,0-0.4,0-0.6,0v-0.8c0.2,0,0.4,0,0.5,0c0.6,0,0.9-0.3,1.3-1.2l-2.2-5L267.8,69.3z"/>
</svg>
