<svg width="161" height="47" viewBox="0 0 161 47" fill="none" xmlns="http://www.w3.org/2000/svg">
<path fill-rule="evenodd" clip-rule="evenodd" d="M34.0477 29.4566H12.2984C10.6274 29.4566 9.2697 28.0678 9.2697 26.3556C9.2697 24.6437 10.6274 23.2552 12.2984 23.2552H34.0477C35.7211 23.2552 37.0788 24.6437 37.0788 26.3556C37.0788 28.0678 35.7211 29.4566 34.0477 29.4566Z" fill="#2D3A67"/>
<path fill-rule="evenodd" clip-rule="evenodd" d="M0 25.9682C0 27.4661 1.21077 28.6814 2.70351 28.6814C4.19562 28.6814 5.40732 27.4661 5.40732 25.9682C5.40732 24.4696 4.19562 23.2552 2.70351 23.2552C1.21077 23.2552 0 24.4696 0 25.9682Z" fill="#FF6459"/>
<path fill-rule="evenodd" clip-rule="evenodd" d="M34.0477 37.9835H12.2984C10.6274 37.9835 9.2697 36.5945 9.2697 34.8821C9.2697 33.1714 10.6274 31.7821 12.2984 31.7821H34.0477C35.7211 31.7821 37.0788 33.1714 37.0788 34.8821C37.0788 36.5945 35.7211 37.9835 34.0477 37.9835Z" fill="#2D3A67"/>
<path fill-rule="evenodd" clip-rule="evenodd" d="M0 34.4952C0 35.9933 1.21077 37.2083 2.70351 37.2083C4.19562 37.2083 5.40732 35.9933 5.40732 34.4952C5.40732 32.9972 4.19562 31.7821 2.70351 31.7821C1.21077 31.7821 0 32.9972 0 34.4952Z" fill="#FF6459"/>
<path fill-rule="evenodd" clip-rule="evenodd" d="M34.0477 46.5104H12.2984C10.6274 46.5104 9.2697 45.1229 9.2697 43.4097C9.2697 41.6973 10.6274 40.309 12.2984 40.309H34.0477C35.7211 40.309 37.0788 41.6973 37.0788 43.4097C37.0788 45.1229 35.7211 46.5104 34.0477 46.5104Z" fill="#2D3A67"/>
<path fill-rule="evenodd" clip-rule="evenodd" d="M0 43.7959C0 45.296 1.21077 46.5104 2.70351 46.5104C4.19562 46.5104 5.40732 45.296 5.40732 43.7959C5.40732 42.2986 4.19562 41.0842 2.70351 41.0842C1.21077 41.0842 0 42.2986 0 43.7959Z" fill="#FF6459"/>
<path fill-rule="evenodd" clip-rule="evenodd" d="M33.4285 20.9297C31.8373 20.9297 30.5473 19.6484 30.5473 18.0645C30.5473 11.2643 24.9877 5.72997 18.1532 5.72997C11.3166 5.72997 5.75866 11.2643 5.75866 18.0645C5.75866 19.6484 4.47041 20.9297 2.8795 20.9297C1.28825 20.9297 0 19.6484 0 18.0645C0 8.1037 8.14228 0 18.1532 0C28.1637 0 36.3063 8.1037 36.3063 18.0645C36.3063 19.6484 35.0163 20.9297 33.4285 20.9297Z" fill="#2D3A67"/>
<path d="M64.766 32C64.9319 32.32 65.0831 32.655 65.2197 33.005C65.3661 33.345 65.5076 33.69 65.6442 34.04C65.7808 33.68 65.9223 33.325 66.0687 32.975C66.215 32.625 66.3711 32.29 66.537 31.97L72.8014 19.955C72.8794 19.805 72.9575 19.685 73.0356 19.595C73.1234 19.505 73.2161 19.44 73.3137 19.4C73.421 19.36 73.5381 19.335 73.6649 19.325C73.7918 19.315 73.943 19.31 74.1187 19.31H77.0898V41H73.621V26.99C73.621 26.73 73.6259 26.445 73.6357 26.135C73.6552 25.825 73.6796 25.51 73.7088 25.19L67.3127 37.49C67.1664 37.77 66.9761 37.99 66.7419 38.15C66.5077 38.3 66.2345 38.375 65.9223 38.375H65.3807C65.0685 38.375 64.7953 38.3 64.5611 38.15C64.3269 37.99 64.1367 37.77 63.9903 37.49L57.5064 25.145C57.5454 25.475 57.5698 25.8 57.5796 26.12C57.5991 26.43 57.6088 26.72 57.6088 26.99V41H54.14V19.31H57.1112C57.2868 19.31 57.4381 19.315 57.5649 19.325C57.6918 19.335 57.804 19.36 57.9016 19.4C58.0089 19.44 58.1065 19.505 58.1943 19.595C58.2821 19.685 58.3651 19.805 58.4431 19.955L64.766 32Z" fill="#2D3A67"/>
<path d="M93.3075 41H91.6829C91.3414 41 91.0731 40.95 90.8779 40.85C90.6828 40.74 90.5364 40.525 90.4388 40.205L90.1168 39.11C89.7363 39.46 89.3606 39.77 88.9898 40.04C88.6288 40.3 88.2531 40.52 87.8628 40.7C87.4725 40.88 87.0578 41.015 86.6187 41.105C86.1796 41.195 85.6918 41.24 85.1551 41.24C84.5208 41.24 83.9354 41.155 83.3987 40.985C82.8621 40.805 82.3986 40.54 82.0083 40.19C81.6277 39.84 81.3301 39.405 81.1154 38.885C80.9008 38.365 80.7934 37.76 80.7934 37.07C80.7934 36.49 80.9398 35.92 81.2325 35.36C81.535 34.79 82.0327 34.28 82.7254 33.83C83.4182 33.37 84.3403 32.99 85.4917 32.69C86.6431 32.39 88.0726 32.22 89.7802 32.18V31.28C89.7802 30.25 89.5655 29.49 89.1362 29C88.7166 28.5 88.1019 28.25 87.292 28.25C86.7065 28.25 86.2187 28.32 85.8284 28.46C85.4381 28.6 85.0965 28.76 84.8038 28.94C84.5208 29.11 84.2574 29.265 84.0134 29.405C83.7695 29.545 83.5012 29.615 83.2084 29.615C82.9645 29.615 82.7547 29.55 82.5791 29.42C82.4034 29.29 82.262 29.13 82.1546 28.94L81.496 27.755C83.2231 26.135 85.3063 25.325 87.7457 25.325C88.6239 25.325 89.4045 25.475 90.0875 25.775C90.7803 26.065 91.3658 26.475 91.8439 27.005C92.322 27.525 92.6831 28.15 92.927 28.88C93.1807 29.61 93.3075 30.41 93.3075 31.28V41ZM86.2821 38.69C86.6529 38.69 86.9944 38.655 87.3066 38.585C87.6189 38.515 87.9116 38.41 88.1848 38.27C88.4678 38.13 88.7361 37.96 88.9898 37.76C89.2533 37.55 89.5167 37.305 89.7802 37.025V34.43C88.7264 34.48 87.8433 34.575 87.131 34.715C86.4284 34.845 85.8625 35.015 85.4332 35.225C85.0038 35.435 84.6965 35.68 84.5111 35.96C84.3354 36.24 84.2476 36.545 84.2476 36.875C84.2476 37.525 84.433 37.99 84.8038 38.27C85.1844 38.55 85.6771 38.69 86.2821 38.69Z" fill="#2D3A67"/>
<path d="M101.102 18.71V41H97.4868V18.71H101.102Z" fill="#2D3A67"/>
<path d="M116.143 28.865C116.036 29.005 115.928 29.115 115.821 29.195C115.723 29.275 115.577 29.315 115.382 29.315C115.196 29.315 115.016 29.26 114.84 29.15C114.665 29.03 114.455 28.9 114.211 28.76C113.967 28.61 113.674 28.48 113.333 28.37C113.001 28.25 112.586 28.19 112.089 28.19C111.454 28.19 110.898 28.31 110.42 28.55C109.942 28.78 109.542 29.115 109.22 29.555C108.908 29.995 108.673 30.53 108.517 31.16C108.361 31.78 108.283 32.485 108.283 33.275C108.283 34.095 108.366 34.825 108.532 35.465C108.708 36.105 108.956 36.645 109.278 37.085C109.6 37.515 109.991 37.845 110.449 38.075C110.908 38.295 111.425 38.405 112.001 38.405C112.576 38.405 113.04 38.335 113.391 38.195C113.752 38.045 114.055 37.885 114.299 37.715C114.543 37.535 114.752 37.375 114.928 37.235C115.113 37.085 115.318 37.01 115.543 37.01C115.835 37.01 116.055 37.125 116.201 37.355L117.241 38.705C116.841 39.185 116.406 39.59 115.938 39.92C115.47 40.24 114.982 40.5 114.474 40.7C113.977 40.89 113.46 41.025 112.923 41.105C112.386 41.185 111.854 41.225 111.327 41.225C110.401 41.225 109.527 41.05 108.708 40.7C107.888 40.34 107.171 39.82 106.556 39.14C105.951 38.46 105.468 37.63 105.107 36.65C104.756 35.66 104.58 34.535 104.58 33.275C104.58 32.145 104.736 31.1 105.048 30.14C105.37 29.17 105.839 28.335 106.454 27.635C107.068 26.925 107.829 26.37 108.737 25.97C109.644 25.57 110.688 25.37 111.869 25.37C112.991 25.37 113.972 25.555 114.811 25.925C115.66 26.295 116.421 26.825 117.094 27.515L116.143 28.865Z" fill="#2D3A67"/>
<path d="M131.698 41H130.074C129.732 41 129.464 40.95 129.269 40.85C129.073 40.74 128.927 40.525 128.83 40.205L128.508 39.11C128.127 39.46 127.751 39.77 127.381 40.04C127.02 40.3 126.644 40.52 126.254 40.7C125.863 40.88 125.449 41.015 125.009 41.105C124.57 41.195 124.082 41.24 123.546 41.24C122.912 41.24 122.326 41.155 121.789 40.985C121.253 40.805 120.789 40.54 120.399 40.19C120.018 39.84 119.721 39.405 119.506 38.885C119.291 38.365 119.184 37.76 119.184 37.07C119.184 36.49 119.331 35.92 119.623 35.36C119.926 34.79 120.423 34.28 121.116 33.83C121.809 33.37 122.731 32.99 123.882 32.69C125.034 32.39 126.463 32.22 128.171 32.18V31.28C128.171 30.25 127.956 29.49 127.527 29C127.107 28.5 126.493 28.25 125.683 28.25C125.097 28.25 124.609 28.32 124.219 28.46C123.829 28.6 123.487 28.76 123.195 28.94C122.912 29.11 122.648 29.265 122.404 29.405C122.16 29.545 121.892 29.615 121.599 29.615C121.355 29.615 121.145 29.55 120.97 29.42C120.794 29.29 120.653 29.13 120.545 28.94L119.887 27.755C121.614 26.135 123.697 25.325 126.136 25.325C127.015 25.325 127.795 25.475 128.478 25.775C129.171 26.065 129.757 26.475 130.235 27.005C130.713 27.525 131.074 28.15 131.318 28.88C131.571 29.61 131.698 30.41 131.698 31.28V41ZM124.673 38.69C125.044 38.69 125.385 38.655 125.697 38.585C126.01 38.515 126.302 38.41 126.576 38.27C126.859 38.13 127.127 37.96 127.381 37.76C127.644 37.55 127.907 37.305 128.171 37.025V34.43C127.117 34.48 126.234 34.575 125.522 34.715C124.819 34.845 124.253 35.015 123.824 35.225C123.395 35.435 123.087 35.68 122.902 35.96C122.726 36.24 122.638 36.545 122.638 36.875C122.638 37.525 122.824 37.99 123.195 38.27C123.575 38.55 124.068 38.69 124.673 38.69Z" fill="#2D3A67"/>
<path d="M135.643 41V25.61H137.766C138.136 25.61 138.395 25.68 138.541 25.82C138.688 25.96 138.785 26.2 138.834 26.54L139.054 28.4C139.59 27.45 140.22 26.7 140.942 26.15C141.664 25.6 142.474 25.325 143.371 25.325C144.113 25.325 144.728 25.5 145.216 25.85L144.747 28.625C144.718 28.805 144.654 28.935 144.557 29.015C144.459 29.085 144.328 29.12 144.162 29.12C144.015 29.12 143.815 29.085 143.562 29.015C143.308 28.945 142.971 28.91 142.552 28.91C141.8 28.91 141.156 29.125 140.62 29.555C140.083 29.975 139.629 30.595 139.259 31.415V41H135.643Z" fill="#2D3A67"/>
<path d="M154.189 25.37C155.135 25.37 156.004 25.525 156.794 25.835C157.594 26.145 158.282 26.6 158.858 27.2C159.433 27.79 159.882 28.52 160.204 29.39C160.526 30.25 160.687 31.235 160.687 32.345C160.687 32.625 160.673 32.86 160.643 33.05C160.624 33.23 160.58 33.375 160.512 33.485C160.453 33.585 160.37 33.66 160.263 33.71C160.155 33.75 160.019 33.77 159.853 33.77H150.574C150.681 35.35 151.096 36.51 151.818 37.25C152.54 37.99 153.496 38.36 154.686 38.36C155.272 38.36 155.774 38.29 156.194 38.15C156.623 38.01 156.994 37.855 157.306 37.685C157.628 37.515 157.906 37.36 158.141 37.22C158.384 37.08 158.619 37.01 158.843 37.01C158.989 37.01 159.116 37.04 159.224 37.1C159.331 37.16 159.424 37.245 159.502 37.355L160.556 38.705C160.155 39.185 159.707 39.59 159.209 39.92C158.711 40.24 158.189 40.5 157.643 40.7C157.106 40.89 156.555 41.025 155.989 41.105C155.433 41.185 154.891 41.225 154.364 41.225C153.32 41.225 152.349 41.05 151.452 40.7C150.554 40.34 149.773 39.815 149.11 39.125C148.446 38.425 147.924 37.565 147.544 36.545C147.163 35.515 146.973 34.325 146.973 32.975C146.973 31.925 147.139 30.94 147.471 30.02C147.802 29.09 148.276 28.285 148.89 27.605C149.515 26.915 150.271 26.37 151.159 25.97C152.057 25.57 153.067 25.37 154.189 25.37ZM154.262 28.025C153.208 28.025 152.384 28.33 151.788 28.94C151.193 29.55 150.813 30.415 150.647 31.535H157.438C157.438 31.055 157.375 30.605 157.248 30.185C157.121 29.755 156.926 29.38 156.662 29.06C156.399 28.74 156.067 28.49 155.667 28.31C155.267 28.12 154.799 28.025 154.262 28.025Z" fill="#2D3A67"/>
</svg>
